<?xml version="1.0" encoding="UTF-8"?>
<svg version="1.1" viewBox="0 0 120 120" xmlns="http://www.w3.org/2000/svg">
<title>Artboard3</title>
<desc>Created with Sketch.</desc>
<g fill="none" fill-rule="evenodd">
<g transform="translate(13.059 12.729)">
<ellipse cx="47.088" cy="46.838" rx="9.2416" ry="9.0933" stroke="#6B6B6B" stroke-linecap="round" stroke-width="2"/>
<path d="m5.941 69.427c-3.7406-6.7117-5.7943-14.434-5.7943-22.733 0-7.5056 1.8336-14.506 4.9875-20.713l1.907-3.3198c8.2147-13.496 23.324-22.084 38.213-22.084" stroke="#6B6B6B" stroke-linecap="round" stroke-width="2"/>
<path d="m86.328 73.035c-8.2881 13.207-22.15 21.434-39.167 21.434-17.09 0-33.006-9.3098-39.607-21.29" stroke="#6B6B6B" stroke-linecap="round" stroke-width="2"/>
<path d="m87.648 68.994c3.4473-6.3509 5.6476-14.434 5.6476-22.156 0-16.599-13.496-46.333-44.961-46.333" stroke="#6B6B6B" stroke-linecap="round" stroke-width="2"/>
<path d="m32.639 47.127l-6.161 5.7735c-0.22004 0.21651-0.58677 0.21651-0.8068 0-0.22004-0.21651-0.22004-0.57735 0-0.79386l6.161-5.7735c0.22004-0.21651 0.58677-0.21651 0.8068 0 0.22004 0.21651 0.22004 0.57735 0 0.79386z" fill="#6B6B6B" fill-rule="nonzero"/>
<path d="m31.539 45.9l-2.2737 2.1651-0.22004-0.9382c-0.22004-0.86603-0.9535-3.1754-2.2737-3.5363-0.66011-0.21651-1.3936 0.14434-2.2737 0.9382-0.88015 0.79386-1.2469 1.5156-1.0268 2.1651 0.29338 1.299 2.6404 2.1651 3.5206 2.3816l0.9535 0.21651-2.4938 2.3094c-0.22004 0.21651-0.58677 0.21651-0.8068 0-0.22004-0.21651-0.22004-0.57735 0-0.79386l1.1002-1.0825c-1.1735-0.43302-3.0072-1.3712-3.3739-2.8868-0.29338-1.0104 0.22004-2.1651 1.3202-3.2476s2.2737-1.5156 3.3739-1.1547c1.5403 0.43302 2.3471 2.3094 2.7871 3.4641l0.9535-0.86603c0.22004-0.21651 0.58677-0.21651 0.8068 0 0.14669 0.36085 0.14669 0.72169-0.073346 0.86603z" fill="#6B6B6B" fill-rule="nonzero"/>
<path d="m47.235 28.507c1.1002 1.299 2.2004 2.1651 2.2737 2.1651h0.073346c0.073346 0.072169 0.14669 0.072169 0.22004 0.072169h0.14669 0.073346c0.073346 0 0.073346 0 0.14669-0.072169 0 0 0.073346 0 0.073346-0.072169l0.073346-0.072169v-0.072169c0-0.072169 0.073346-0.072169 0.073346-0.14434v-0.072169-0.14434c0-0.072169 0-0.14434-0.073346-0.21651v-0.072169c-0.073346-0.072169-0.88015-1.2269-2.127-2.3094-0.58677-0.50518-1.0268-1.0825-1.3936-1.7321-0.073346-0.14434-0.14669-0.28868-0.22004-0.50518-0.36673-0.86603-0.29338-1.5156 0.22004-1.8042 0.36673-0.21651 1.0268-0.21651 1.3202 0.14434 0.51342 0.57735 0.14669 1.0104 0.073346 1.1547-0.22004 0.21651-0.22004 0.57735 0 0.72169 0.22004 0.21651 0.58677 0.21651 0.8068 0 0.51342-0.50518 0.88015-1.6599-0.073346-2.6703-0.66011-0.64952-1.8336-0.79386-2.7138-0.28868-0.36673 0.21651-1.4669 1.0825-0.66011 3.1033 0 0 0 0.072169 0.073346 0.072169 0 0-0.073346 0-0.073346-0.072169-1.9803-0.86603-2.9338 0.14434-3.2272 0.50518-0.58677 0.79386-0.51342 1.9486 0.14669 2.6703 0.9535 1.0104 2.127 0.64952 2.7138 0.14434 0.22004-0.21651 0.22004-0.50518 0.073346-0.72169-0.22004-0.21651-0.51342-0.28868-0.73346-0.072169-0.14669 0.14434-0.66011 0.43302-1.1735-0.072169-0.29338-0.28868-0.29338-0.9382-0.073346-1.299 0.29338-0.43302 1.0268-0.50518 1.8336-0.14434 0.14669 0.072169 0.29338 0.14434 0.51342 0.21651" fill="#6B6B6B" fill-rule="nonzero"/>
<path d="m71.292 45.178c-0.29338-0.072169-0.58677 0.072169-0.66011 0.36085 0 0-0.8068 2.3816-2.3471 3.392 0.14669-0.57735 0-1.299-0.51342-1.7321-0.73346-0.79386-1.9803-0.79386-2.7138-0.072169-0.8068 0.72169-0.8068 1.9486-0.073346 2.6703 0.14669 0.14434 0.29338 0.28868 0.44007 0.36085 0.22004 0.14434 0.44007 0.21651 0.73346 0.21651 0.73346 0.14434 1.4669 0.072169 2.127-0.28868 0.44007-0.21651 0.88015-0.50518 1.1735-0.79386 1.3936-1.299 2.0537-3.2476 2.127-3.392 0.14669-0.36085 0-0.64952-0.29338-0.72169zm-5.5009 2.6703c0.36673-0.28868 0.88015-0.28868 1.1735 0 0.29338 0.36085 0.29338 0.86603 0 1.1547-0.14669 0.14434-0.36673 0.21651-0.58677 0.21651-0.14669 0-0.29338-0.072169-0.51342-0.14434-0.073346 0-0.073346-0.072169-0.14669-0.14434-0.29338-0.28868-0.22004-0.79386 0.073346-1.0825z" fill="#6B6B6B" fill-rule="nonzero"/>
<path d="m62.784 47.343c0.29338 0.072169 0.58677-0.072169 0.66011-0.36085 0 0 0.8068-2.3816 2.3471-3.392-0.14669 0.57735 0 1.299 0.51342 1.7321 0.73346 0.79386 1.9803 0.79386 2.7138 0.072169 0.8068-0.72169 0.8068-1.9486 0.073346-2.6703-0.14669-0.14434-0.29338-0.28868-0.44007-0.36085-0.22004-0.14434-0.44007-0.21651-0.73346-0.21651-0.73346-0.14434-1.4669-0.072169-2.127 0.28868-0.44007 0.21651-0.88015 0.50518-1.1735 0.79386-1.3936 1.299-2.0537 3.2476-2.127 3.392-0.14669 0.28868 0 0.64952 0.29338 0.72169zm5.5009-2.6703c-0.36673 0.28868-0.88015 0.28868-1.1735 0-0.29338-0.36085-0.29338-0.86603 0-1.1547 0.14669-0.14434 0.36673-0.21651 0.58677-0.21651 0.14669 0 0.29338 0.072169 0.51342 0.14434 0.073346 0 0.073346 0.072169 0.14669 0.14434 0.22004 0.21651 0.22004 0.79386-0.073346 1.0825z" fill="#6B6B6B" fill-rule="nonzero"/>
<path d="m45.841 60.766c-0.22004-0.072169-0.51342 0.072169-0.66011 0.28868-0.88015 1.5877-3.3006 3.0311-3.3006 3.1033-0.14669 0.072169-0.22004 0.21651-0.29338 0.36085l-0.22004 1.5877c-0.073346 0.28868 0.14669 0.57735 0.44007 0.57735s0.58677-0.14434 0.58677-0.43302l0.14669-1.3712c0.44007-0.28868 1.3936-0.9382 2.2737-1.8042l-0.51342 5.557c0 0.28868 0.22004 0.57735 0.51342 0.57735 0.14669 0 0.29338-0.072169 0.44007-0.14434 0.073346-0.072169 0.14669-0.21651 0.14669-0.36085v-0.28868c1.0268 0.9382 2.6404 0.9382 3.6673-0.072169 1.1002-1.0104 1.1002-2.6703 0.073346-3.7528-0.88015-0.9382-2.3471-1.0825-3.3739-0.43302l0.22004-2.8146c0.29338-0.28868 0.14669-0.50518-0.14669-0.57735zm2.7138 4.5467c0.58677 0.64952 0.58677 1.6599-0.073346 2.2372-0.66011 0.57735-1.687 0.57735-2.2737-0.072169s-0.58677-1.6599 0.073346-2.2372c0.66011-0.57735 1.687-0.50518 2.2737 0.072169z" fill="#6B6B6B" fill-rule="nonzero"/>
<rect transform="translate(47.036 46.803) rotate(45) translate(-47.036 -46.803)" x="24.299" y="24.431" width="45.474" height="44.744" stroke="#6B6B6B" stroke-linecap="round" stroke-width="2"/>
<path d="m72.099 21.939l-50.095 49.364" stroke="#6B6B6B" stroke-linecap="round" stroke-width="2"/>
<path d="m72.099 71.303l-50.095-49.364" stroke="#6B6B6B" stroke-linecap="round" stroke-width="2"/>
<ellipse cx="47.088" cy="46.838" rx="9.3149" ry="9.1655" fill="#fff" fill-rule="nonzero" stroke="#6B6B6B" stroke-linecap="round" stroke-width="2"/>
<path d="m5.941 69.427c-3.7406-6.7117-5.7943-14.434-5.7943-22.733 0-7.5056 1.8336-14.506 4.9875-20.713l1.907-3.3198c8.2147-13.496 23.324-22.084 38.213-22.084" stroke="#6B6B6B" stroke-linecap="round" stroke-width="2"/>
<path d="m86.328 73.035c-8.2881 13.207-22.15 21.434-39.167 21.434-17.09 0-33.006-9.3098-39.607-21.29" stroke="#6B6B6B" stroke-linecap="round" stroke-width="2"/>
<path d="m87.648 68.994c3.4473-6.3509 5.6476-14.434 5.6476-22.156 0-16.599-13.496-46.333-44.961-46.333" stroke="#6B6B6B" stroke-linecap="round" stroke-width="2"/>
<path d="m32.639 47.127l-6.161 5.7735c-0.22004 0.21651-0.58677 0.21651-0.8068 0-0.22004-0.21651-0.22004-0.57735 0-0.79386l6.161-5.7735c0.22004-0.21651 0.58677-0.21651 0.8068 0 0.22004 0.21651 0.22004 0.57735 0 0.79386z" fill="#6B6B6B" fill-rule="nonzero"/>
<path d="m31.539 45.9l-2.2737 2.1651-0.22004-0.9382c-0.22004-0.86603-0.9535-3.1754-2.2737-3.5363-0.66011-0.21651-1.3936 0.14434-2.2737 0.9382-0.88015 0.79386-1.2469 1.5156-1.0268 2.1651 0.29338 1.299 2.6404 2.1651 3.5206 2.3816l0.9535 0.21651-2.4938 2.3094c-0.22004 0.21651-0.58677 0.21651-0.8068 0-0.22004-0.21651-0.22004-0.57735 0-0.79386l1.1002-1.0825c-1.1735-0.43302-3.0072-1.3712-3.3739-2.8868-0.29338-1.0104 0.22004-2.1651 1.3202-3.2476s2.2737-1.5156 3.3739-1.1547c1.5403 0.43302 2.3471 2.3094 2.7871 3.4641l0.9535-0.86603c0.22004-0.21651 0.58677-0.21651 0.8068 0 0.14669 0.36085 0.14669 0.72169-0.073346 0.86603z" fill="#6B6B6B" fill-rule="nonzero"/>
<path d="m47.235 28.507c1.1002 1.299 2.2004 2.1651 2.2737 2.1651h0.073346c0.073346 0.072169 0.14669 0.072169 0.22004 0.072169h0.14669 0.073346c0.073346 0 0.073346 0 0.14669-0.072169 0 0 0.073346 0 0.073346-0.072169l0.073346-0.072169v-0.072169c0-0.072169 0.073346-0.072169 0.073346-0.14434v-0.072169-0.14434c0-0.072169 0-0.14434-0.073346-0.21651v-0.072169c-0.073346-0.072169-0.88015-1.2269-2.127-2.3094-0.58677-0.50518-1.0268-1.0825-1.3936-1.7321-0.073346-0.14434-0.14669-0.28868-0.22004-0.50518-0.36673-0.86603-0.29338-1.5156 0.22004-1.8042 0.36673-0.21651 1.0268-0.21651 1.3202 0.14434 0.51342 0.57735 0.14669 1.0104 0.073346 1.1547-0.22004 0.21651-0.22004 0.57735 0 0.72169 0.22004 0.21651 0.58677 0.21651 0.8068 0 0.51342-0.50518 0.88015-1.6599-0.073346-2.6703-0.66011-0.64952-1.8336-0.79386-2.7138-0.28868-0.36673 0.21651-1.4669 1.0825-0.66011 3.1033 0 0 0 0.072169 0.073346 0.072169 0 0-0.073346 0-0.073346-0.072169-1.9803-0.86603-2.9338 0.14434-3.2272 0.50518-0.58677 0.79386-0.51342 1.9486 0.14669 2.6703 0.9535 1.0104 2.127 0.64952 2.7138 0.14434 0.22004-0.21651 0.22004-0.50518 0.073346-0.72169-0.22004-0.21651-0.51342-0.28868-0.73346-0.072169-0.14669 0.14434-0.66011 0.43302-1.1735-0.072169-0.29338-0.28868-0.29338-0.9382-0.073346-1.299 0.29338-0.43302 1.0268-0.50518 1.8336-0.14434 0.14669 0.072169 0.29338 0.14434 0.51342 0.21651" fill="#6B6B6B" fill-rule="nonzero"/>
<path d="m71.292 45.178c-0.29338-0.072169-0.58677 0.072169-0.66011 0.36085 0 0-0.8068 2.3816-2.3471 3.392 0.14669-0.57735 0-1.299-0.51342-1.7321-0.73346-0.79386-1.9803-0.79386-2.7138-0.072169-0.8068 0.72169-0.8068 1.9486-0.073346 2.6703 0.14669 0.14434 0.29338 0.28868 0.44007 0.36085 0.22004 0.14434 0.44007 0.21651 0.73346 0.21651 0.73346 0.14434 1.4669 0.072169 2.127-0.28868 0.44007-0.21651 0.88015-0.50518 1.1735-0.79386 1.3936-1.299 2.0537-3.2476 2.127-3.392 0.14669-0.36085 0-0.64952-0.29338-0.72169zm-5.5009 2.6703c0.36673-0.28868 0.88015-0.28868 1.1735 0 0.29338 0.36085 0.29338 0.86603 0 1.1547-0.14669 0.14434-0.36673 0.21651-0.58677 0.21651-0.14669 0-0.29338-0.072169-0.51342-0.14434-0.073346 0-0.073346-0.072169-0.14669-0.14434-0.29338-0.28868-0.22004-0.79386 0.073346-1.0825z" fill="#6B6B6B" fill-rule="nonzero"/>
<path d="m62.784 47.343c0.29338 0.072169 0.58677-0.072169 0.66011-0.36085 0 0 0.8068-2.3816 2.3471-3.392-0.14669 0.57735 0 1.299 0.51342 1.7321 0.73346 0.79386 1.9803 0.79386 2.7138 0.072169 0.8068-0.72169 0.8068-1.9486 0.073346-2.6703-0.14669-0.14434-0.29338-0.28868-0.44007-0.36085-0.22004-0.14434-0.44007-0.21651-0.73346-0.21651-0.73346-0.14434-1.4669-0.072169-2.127 0.28868-0.44007 0.21651-0.88015 0.50518-1.1735 0.79386-1.3936 1.299-2.0537 3.2476-2.127 3.392-0.14669 0.28868 0 0.64952 0.29338 0.72169zm5.5009-2.6703c-0.36673 0.28868-0.88015 0.28868-1.1735 0-0.29338-0.36085-0.29338-0.86603 0-1.1547 0.14669-0.14434 0.36673-0.21651 0.58677-0.21651 0.14669 0 0.29338 0.072169 0.51342 0.14434 0.073346 0 0.073346 0.072169 0.14669 0.14434 0.22004 0.21651 0.22004 0.79386-0.073346 1.0825z" fill="#6B6B6B" fill-rule="nonzero"/>
<path d="m45.841 60.766c-0.22004-0.072169-0.51342 0.072169-0.66011 0.28868-0.88015 1.5877-3.3006 3.0311-3.3006 3.1033-0.14669 0.072169-0.22004 0.21651-0.29338 0.36085l-0.22004 1.5877c-0.073346 0.28868 0.14669 0.57735 0.44007 0.57735s0.58677-0.14434 0.58677-0.43302l0.14669-1.3712c0.44007-0.28868 1.3936-0.9382 2.2737-1.8042l-0.51342 5.557c0 0.28868 0.22004 0.57735 0.51342 0.57735 0.14669 0 0.29338-0.072169 0.44007-0.14434 0.073346-0.072169 0.14669-0.21651 0.14669-0.36085v-0.28868c1.0268 0.9382 2.6404 0.9382 3.6673-0.072169 1.1002-1.0104 1.1002-2.6703 0.073346-3.7528-0.88015-0.9382-2.3471-1.0825-3.3739-0.43302l0.22004-2.8146c0.29338-0.28868 0.14669-0.50518-0.14669-0.57735zm2.7138 4.5467c0.58677 0.64952 0.58677 1.6599-0.073346 2.2372-0.66011 0.57735-1.687 0.57735-2.2737-0.072169s-0.58677-1.6599 0.073346-2.2372c0.66011-0.57735 1.687-0.50518 2.2737 0.072169z" fill="#6B6B6B" fill-rule="nonzero"/>
</g>
</g>
</svg>
