<?xml version="1.0" encoding="UTF-8"?>
<svg version="1.1" viewBox="0 0 120 120" xmlns="http://www.w3.org/2000/svg">
<title>Artboard2</title>
<desc>Created with Sketch.</desc>
<g fill="none" fill-rule="evenodd">
<g transform="translate(13 12.5)" stroke="#6B6B6B">
<ellipse cx="47.088" cy="46.766" rx="9.2416" ry="9.0933" stroke-linecap="round" stroke-width="2"/>
<path d="m5.941 69.355c-3.7406-6.7117-5.7943-14.434-5.7943-22.733 0-7.5056 1.8336-14.506 4.9875-20.713l1.907-3.3198c8.2147-13.496 23.324-22.084 38.213-22.084" stroke-linecap="round" stroke-width="2"/>
<path d="m86.328 72.891c-8.2881 13.207-22.15 21.434-39.167 21.434-17.09 0-33.006-9.3098-39.607-21.29" stroke-linecap="round" stroke-width="2"/>
<path d="m87.648 68.922c3.4473-6.3509 5.6476-14.434 5.6476-22.156 0-16.599-13.496-46.333-44.961-46.333" stroke-linecap="round" stroke-width="2"/>
<rect transform="translate(46.992 46.475) rotate(195.34) translate(-46.992 -46.475)" x="18.974" y="18.906" width="56.037" height="55.138" stroke-linecap="round" stroke-width="2"/>
<path d="m61.097 67.55c0.073346-0.28868-0.14669-0.57735-0.44007-0.57735-0.29338-0.072169-0.58677 0.14434-0.58677 0.43302-0.073346 0.36085-0.22004 1.0825-0.58677 1.299-0.073346 0.072169-0.14669 0.072169-0.36673 0-0.29338-0.072169-0.44007-0.21651-0.51342-0.43302-0.14669-0.28868 0-0.64952 0-0.72169l1.8336-5.4849c0.073346-0.14434 0.073346-0.21651 0-0.36085-0.22004-0.72169-0.66011-1.0104-1.0268-1.1547-0.44007-0.14434-0.88015-0.14434-1.1735-0.072169-0.29338-0.36085-0.58677-0.57735-1.0268-0.72169-0.29338-0.072169-0.58677-0.072169-0.88015 0-0.073346-0.14434-0.22004-0.21651-0.36673-0.28868-0.66011-0.36085-1.3936-0.072169-1.6136 0-0.29338 0.14434-0.44007 0.43302-0.29338 0.72169 0.14669 0.28868 0.44007 0.43302 0.73346 0.28868 0.14669-0.072169 0.51342-0.14434 0.58677-0.072169 0 0 0 0.072169 0.073346 0.072169l-0.073346 0.072169-1.687 4.9075c-0.073346 0.28868 0.073346 0.57735 0.36673 0.64952s0.58677-0.072169 0.66011-0.36085l1.687-4.9075v-0.072169c0.14669-0.072169 0.29338-0.072169 0.44007-0.072169 0.22004 0.072169 0.36673 0.21651 0.51342 0.57735l-1.6136 4.8353c-0.073346 0.28868 0.073346 0.57735 0.36673 0.64952 0.29338 0.072169 0.58677-0.072169 0.66011-0.36085l1.687-4.9075v-0.072169c0.14669 0 0.22004 0 0.36673 0.072169 0.14669 0.072169 0.22004 0.14434 0.36673 0.36085l-1.7603 5.2684c0 0.072169-0.29338 0.79386 0.073346 1.5156 0.14669 0.28868 0.51342 0.72169 1.1735 0.9382 0.44007 0.14434 0.9535 0.14434 1.3202-0.14434 0.88015-0.36085 1.1002-1.7321 1.1002-1.8764z" fill="#6B6B6B" fill-rule="nonzero" stroke-width=".4"/>
<path d="m30.365 59.973c-0.8068-0.28868-1.1002-0.72169-1.2469-1.1547-0.29338-0.64952-0.14669-1.4434 0.36673-2.3094 0.22004-0.28868 0.51342-0.64952 0.8068-1.0104 0.66011-0.72169 1.5403-1.6599 1.4669-2.3816 0-0.28868-0.22004-0.57735-0.58677-0.79386-0.58677-0.36085-1.0268-0.50518-1.2469-0.43302-0.36673 0.14434-0.66011 0.9382-0.88015 1.6599-0.36673 1.2269-0.88015 2.8868-2.6404 2.4538-0.88015-0.21651-1.2469-0.64952-1.3936-1.0104-0.44007-0.9382 0.14669-2.0207 0.22004-2.0929 0.14669-0.28868 0.51342-0.36085 0.73346-0.21651 0.29338 0.14434 0.36673 0.50518 0.22004 0.72169-0.073346 0.14434-0.36673 0.79386-0.22004 1.1547 0.073346 0.21651 0.29338 0.28868 0.66011 0.43302 0.66011 0.14434 0.9535-0.28868 1.3936-1.7321 0.29338-1.0104 0.66011-2.0207 1.5403-2.3094 0.58677-0.21651 1.3202 0 2.2004 0.57735 0.66011 0.43302 1.0268 0.9382 1.1002 1.5877 0.14669 1.2269-0.88015 2.3094-1.687 3.2476-0.29338 0.28868-0.58677 0.64952-0.73346 0.86603-0.29338 0.50518-0.44007 1.0104-0.29338 1.3712 0.073346 0.21651 0.29338 0.43302 0.66011 0.50518 0.44007 0.14434 0.66011 0 0.73346-0.072169 0 0 0.073346-0.14434 0-0.21651-0.22004-0.21651-0.22004-0.57735 0-0.79386 0.22004-0.21651 0.58677-0.21651 0.8068 0 0.36673 0.43302 0.44007 1.0104 0.14669 1.5156-0.29338 0.50518-0.9535 0.86603-1.9803 0.57735-0.073346-0.072169-0.073346-0.072169-0.14669-0.14434z" fill="#6B6B6B" fill-rule="nonzero" stroke-width=".4"/>
<path d="m67.331 39.91c-1.1735-0.36085-0.9535-1.5877-0.8068-2.4538 0.22004-1.2269 0.22004-1.6599-0.44007-1.8042-0.29338-0.072169-0.51342 0.14434-0.9535 1.0825-0.36673 0.72169-0.88015 1.8764-2.0537 1.5156-0.9535-0.28868-0.8068-1.4434-0.73346-2.2372 0.14669-1.0825 0.14669-1.5156-0.29338-1.6599-0.22004-0.072169-0.29338 0-0.36673 0-0.22004 0.14434-0.44007 0.57735-0.44007 0.79386-0.073346 0.28868-0.36673 0.50518-0.66011 0.43302s-0.51342-0.36085-0.44007-0.64952c0-0.14434 0.22004-1.0825 0.9535-1.5156 0.29338-0.14434 0.66011-0.28868 1.2469-0.072169 1.3936 0.43302 1.1735 1.8764 1.0268 2.8146-0.073346 0.28868-0.14669 0.9382-0.073346 1.0825 0.22004 0.072169 0.44007-0.36085 0.73346-0.9382 0.36673-0.79386 1.0268-2.0929 2.2737-1.6599 1.6136 0.50518 1.3202 2.0207 1.1735 3.0311-0.14669 0.9382-0.14669 1.1547 0.073346 1.2269 0.14669-0.072169 0.36673-0.50518 0.44007-0.9382 0.073346-0.28868 0.36673-0.50518 0.66011-0.43302 0.29338 0.072169 0.51342 0.36085 0.44007 0.64952-0.073346 0.21651-0.29338 1.299-0.9535 1.6599-0.14669 0.14434-0.51342 0.21651-0.8068 0.072169z" fill="#6B6B6B" fill-rule="nonzero" stroke-width=".4"/>
<path d="m65.571 43.807c-1.2469-0.36085-0.8068-1.5877-0.58677-2.4538 0.36673-1.2269 0.29338-1.5156-0.22004-1.6599-0.29338-0.072169-0.51342 0.14434-0.9535 1.0825-0.36673 0.72169-0.88015 1.8764-2.0537 1.5156-0.9535-0.28868-0.8068-1.4434-0.73346-2.2372 0.14669-1.0825 0.14669-1.5156-0.29338-1.6599-0.22004-0.072169-0.29338 0-0.36673 0-0.22004 0.14434-0.44007 0.57735-0.44007 0.79386-0.073346 0.28868-0.36673 0.50518-0.66011 0.43302s-0.51342-0.36085-0.44007-0.64952c0-0.14434 0.22004-1.0825 0.9535-1.5156 0.29338-0.14434 0.66011-0.28868 1.2469-0.072169 1.3936 0.43302 1.1735 1.8764 1.0268 2.8146-0.073346 0.28868-0.14669 0.9382-0.073346 1.0825 0.22004 0.072169 0.44007-0.36085 0.73346-0.9382 0.36673-0.79386 1.0268-2.0929 2.2737-1.6599 1.687 0.57735 1.1735 2.0929 0.9535 3.0311-0.29338 0.86603-0.22004 1.0825-0.14669 1.0825 0.073346-0.072169 0.29338-0.50518 0.36673-0.9382 0.073346-0.28868 0.36673-0.50518 0.66011-0.43302s0.51342 0.36085 0.44007 0.64952c-0.073346 0.21651-0.29338 1.299-0.9535 1.7321-0.073346 0.072169-0.36673 0.072169-0.73346 0z" fill="#6B6B6B" fill-rule="nonzero" stroke-width=".4"/>
<path d="m42.1 26.919c-0.14669-0.28868-0.44007-0.36085-0.73346-0.21651-3.7406 2.0207-6.3077-2.2372-6.3811-2.4538-0.14669-0.28868-0.51342-0.36085-0.73346-0.21651-0.29338 0.14434-0.36673 0.50518-0.22004 0.72169 0.36673 0.64952 1.0268 1.4434 1.8336 2.0929-1.1002 0.28868-2.0537 1.0825-2.4204 2.2372-0.58677 1.7321 0.36673 3.6806 2.2004 4.258 1.7603 0.57735 3.7406-0.36085 4.3274-2.1651 0.36673-1.0104 0.14669-2.0929-0.44007-2.9589 0.73346 0 1.5403-0.21651 2.4204-0.64952 0.14669-0.072169 0.29338-0.36085 0.14669-0.64952zm-6.2344 5.4127c-1.2469-0.36085-1.907-1.6599-1.4669-2.8868 0.44007-1.2269 1.687-1.8764 2.9338-1.4434 1.2469 0.36085 1.907 1.6599 1.4669 2.8868-0.44007 1.2269-1.687 1.8764-2.9338 1.4434z" fill="#6B6B6B" fill-rule="nonzero" stroke-width=".4"/>
<path d="m56.183 13.135l-6.7107 24.254m-5.0592 18.285l-6.86 24.794" stroke-linecap="round" stroke-width="2"/>
<path d="m81.12 55.931l-24.961-6.6863m-18.222-4.8811l-25.249-6.7636" stroke-linecap="round" stroke-width="2"/>
</g>
</g>
</svg>
