<?xml version="1.0" encoding="UTF-8"?>
<svg version="1.1" xmlns="http://www.w3.org/2000/svg" width="612" height="612">
<path d="M0 0 C201.96 0 403.92 0 612 0 C612 201.96 612 403.92 612 612 C410.04 612 208.08 612 0 612 C0 410.04 0 208.08 0 0 Z " fill="#FEFEFE" transform="translate(0,0)"/>
<path d="M0 0 C-0.17700195 1.8515625 -0.17700195 1.8515625 -1 4 C-3.20776367 5.2734375 -3.20776367 5.2734375 -6.16796875 6.375 C-7.82759644 7.0078894 -7.82759644 7.0078894 -9.52075195 7.65356445 C-10.73077881 8.09788818 -11.94080566 8.54221191 -13.1875 9 C-14.44493686 9.47500434 -15.70168232 9.95184262 -16.95776367 10.43041992 C-18.93051106 11.18171857 -20.90366505 11.93171413 -22.87904358 12.67607117 C-29.59313938 15.20717292 -36.25319022 17.86750784 -42.90933228 20.54663086 C-45.92387323 21.75973671 -48.94063394 22.96730012 -51.95703125 24.17578125 C-53.10067139 24.6349292 -54.24431152 25.09407715 -55.42260742 25.56713867 C-57.95518595 26.58151821 -60.488983 27.59230856 -63.0246582 28.59887695 C-63.69506638 28.86552658 -64.36547455 29.13217621 -65.05619812 29.40690613 C-66.92850186 30.1513525 -68.801391 30.89432607 -70.67431641 31.63720703 C-73.68005708 32.86889433 -76.62419976 34.17899796 -79.5625 35.5625 C-84.59259272 37.8931588 -89.73155795 39.71929313 -94.96484375 41.5390625 C-100.7373225 43.58816751 -106.39910794 45.9262449 -112.07202148 48.23364258 C-116.34427516 49.9653622 -120.60136067 51.60757359 -125 53 C-125.66 51.35 -126.32 49.7 -127 48 C-106.675262 39.75018577 -106.675262 39.75018577 -96.43359375 36.30078125 C-93.50997342 35.19319812 -90.71965204 33.9793191 -87.8828125 32.671875 C-81.81587091 29.87931945 -75.64753885 27.39192586 -69.4375 24.9375 C-68.37853516 24.51662109 -67.31957031 24.09574219 -66.22851562 23.66210938 C-64.13799668 22.83131164 -62.04710296 22.00145626 -59.95581055 21.17260742 C-53.35485993 18.55392684 -46.76551221 15.90627451 -40.17578125 13.25952148 C-37.65644249 12.24996415 -35.13495259 11.24590341 -32.61328125 10.2421875 C-28.64450571 8.66203342 -24.68603936 7.05821635 -20.73046875 5.4453125 C-18.65379585 4.6090024 -16.57697585 3.77305744 -14.5 2.9375 C-13.51491455 2.53120361 -12.5298291 2.12490723 -11.51489258 1.70629883 C-10.59216553 1.33786865 -9.66943848 0.96943848 -8.71875 0.58984375 C-7.90341797 0.25847412 -7.08808594 -0.07289551 -6.24804688 -0.41430664 C-3.74697116 -1.0659227 -2.41040569 -0.8473004 0 0 Z " fill="#2B282A" transform="translate(399,271)"/>
<path d="M0 0 C-0.01171875 2.73486328 -0.01171875 2.73486328 -1 6 C-3.64929214 7.7544184 -5.93642654 8.98538598 -8.8125 10.2421875 C-9.61421631 10.61425323 -10.41593262 10.98631897 -11.24194336 11.36965942 C-13.8186955 12.55966548 -16.40843122 13.71767061 -19 14.875 C-20.68325462 15.64503392 -22.36555832 16.41715011 -24.046875 17.19140625 C-27.38676032 18.72610457 -30.73143738 20.24950078 -34.08056641 21.76391602 C-38.8294403 23.91560128 -43.55616809 26.11200496 -48.2734375 28.33203125 C-48.94310547 28.64643158 -49.61277344 28.96083191 -50.30273438 29.28475952 C-54.77701319 31.39536549 -59.20857734 33.58358745 -63.625 35.8125 C-72.22518142 40.14312906 -80.90114635 44.3087343 -89.60546875 48.42578125 C-92.80127696 49.9390006 -95.9724155 51.48143071 -99.11328125 53.10546875 C-107.94266435 57.55580372 -107.94266435 57.55580372 -112.3125 56.375 C-113.199375 55.92125 -114.08625 55.4675 -115 55 C-111.27775475 51.85720718 -107.07355798 50.02346837 -102.6875 48 C-100.95806676 47.19197656 -99.22891163 46.38335767 -97.5 45.57421875 C-96.59507813 45.15188965 -95.69015625 44.72956055 -94.7578125 44.29443359 C-90.21969879 42.16438058 -85.7054091 39.98498359 -81.1875 37.8125 C-72.66459305 33.72206009 -64.10656135 29.71162945 -55.5333252 25.72824097 C-45.92112249 21.26194542 -36.34819553 16.74770666 -26.89453125 11.953125 C-21.8381436 9.3998593 -16.73260645 6.94876413 -11.625 4.5 C-10.23945923 3.83049316 -10.23945923 3.83049316 -8.82592773 3.14746094 C-7.96813721 2.73786133 -7.11034668 2.32826172 -6.2265625 1.90625 C-5.45908691 1.53822266 -4.69161133 1.17019531 -3.90087891 0.79101562 C-2 0 -2 0 0 0 Z " fill="#252223" transform="translate(169,356)"/>
<path d="M0 0 C1.32 0.66 2.64 1.32 4 2 C2.54456288 5.20923885 0.73586291 7.72056003 -1.5 10.4375 C-4.61196935 14.26332612 -7.64242548 18.13495138 -10.625 22.0625 C-15.27484839 28.16076742 -20.14022223 34.07034449 -25.03100586 39.97607422 C-29.11725446 44.91406794 -33.0958917 49.91679859 -37 55 C-43.46278091 63.30178361 -50.01236571 71.52552373 -56.67236328 79.67016602 C-57.1929834 80.30752686 -57.71360352 80.9448877 -58.25 81.6015625 C-58.73597656 82.19356445 -59.22195312 82.78556641 -59.72265625 83.39550781 C-60.76729619 84.70769697 -61.73897676 86.07767445 -62.6875 87.4609375 C-63.120625 87.96882813 -63.55375 88.47671875 -64 89 C-64.99 89 -65.98 89 -67 89 C-67.61146687 85.19451794 -66.97913573 83.96945005 -64.76171875 80.72265625 C-63.74869046 79.49286278 -62.7231355 78.27331684 -61.6875 77.0625 C-60.58657259 75.73232259 -59.48632829 74.40157955 -58.38671875 73.0703125 C-57.82388184 72.39645508 -57.26104492 71.72259766 -56.68115234 71.02832031 C-54.06657092 67.87381226 -51.53059732 64.65948876 -49 61.4375 C-48.55615967 60.87877197 -48.11231934 60.32004395 -47.6550293 59.74438477 C-45.57060496 57.10098644 -43.61444065 54.43770754 -41.8125 51.59765625 C-41.214375 50.74042969 -40.61625 49.88320313 -40 49 C-39.34 49 -38.68 49 -38 49 C-37.73832031 48.42765625 -37.47664063 47.8553125 -37.20703125 47.265625 C-35.91050531 44.83201643 -34.43148658 42.88610347 -32.6875 40.75 C-31.62789062 39.44289063 -31.62789062 39.44289063 -30.546875 38.109375 C-29.18930182 36.44914415 -27.82862338 34.79150997 -26.46679688 33.13476562 C-24.78798596 31.0917788 -23.11182585 29.04666415 -21.4375 27 C-20.87313232 26.310271 -20.30876465 25.62054199 -19.72729492 24.90991211 C-16.0678653 20.40455728 -12.67586399 15.78896238 -9.421875 10.98046875 C-7.54436202 8.36536139 -5.33570294 6.20594167 -3 4 C-1.97186389 2.68824014 -0.95915568 1.3630107 0 0 Z " fill="#282627" transform="translate(246,341)"/>
<path d="M0 0 C1.32 0.33 2.64 0.66 4 1 C4.43819318 8.74681395 4.86382745 16.49425327 5.28173828 24.2421875 C5.42369227 26.86416111 5.56992382 29.48579015 5.71826172 32.10742188 C6.75293584 50.43593493 7.20982375 68.64472571 7 87 C4.525 87.495 4.525 87.495 2 88 C1.65676221 78.95869173 1.32378286 69.91702588 1 60.875 C0.9762455 60.2118 0.952491 59.54860001 0.92801666 58.86530304 C0.22796911 39.23611293 -0.340017 19.6425204 0 0 Z " fill="#262224" transform="translate(463,114)"/>
<path d="M0 0 C-0.45589146 4.0201338 -1.02038864 6.1129795 -4.06640625 8.87109375 C-6.82625657 10.84003674 -9.63567351 12.68642513 -12.5 14.5 C-14.42744989 15.75985606 -16.35453523 17.02027001 -18.28125 18.28125 C-19.23394775 18.89621338 -20.18664551 19.51117676 -21.16821289 20.14477539 C-24.76760926 22.50289359 -28.28349929 24.96900372 -31.79833984 27.45068359 C-35.51565079 30.06656907 -39.30733659 32.56616667 -43.10546875 35.0625 C-44.9468008 36.29502456 -46.76545498 37.56266216 -48.55078125 38.875 C-54.26759946 43.02569826 -54.26759946 43.02569826 -58.5625 42.875 C-59.7690625 42.441875 -59.7690625 42.441875 -61 42 C-56.26253471 36.62600303 -50.34338359 33.07023669 -44.375 29.1875 C-37.25888608 24.53397118 -30.25710671 19.7947163 -23.40673828 14.7565918 C-20.57111726 12.6869739 -17.68640536 10.73592753 -14.75 8.8125 C-11.4021318 6.60812444 -8.10240735 4.37703239 -4.875 2 C-2 0 -2 0 0 0 Z " fill="#2B292A" transform="translate(541,167)"/>
<path d="M0 0 C0.87269531 0.165 1.74539063 0.33 2.64453125 0.5 C2.64453125 1.49 2.64453125 2.48 2.64453125 3.5 C1.98453125 3.5 1.32453125 3.5 0.64453125 3.5 C0.40605469 4.02078125 0.16757812 4.5415625 -0.078125 5.078125 C-1.76772336 8.28164482 -3.77205445 11.25018099 -5.79296875 14.25 C-6.23543945 14.9097583 -6.67791016 15.5695166 -7.13378906 16.24926758 C-11.63316775 22.94221195 -16.1886754 29.59586641 -20.78271484 36.22412109 C-22.56049975 38.79669342 -24.32661595 41.37713242 -26.09375 43.95703125 C-27.36809441 45.80496008 -28.64282933 47.65261967 -29.91796875 49.5 C-30.52608398 50.39162842 -31.13419922 51.28325684 -31.76074219 52.2019043 C-32.32954102 53.02215088 -32.89833984 53.84239746 -33.484375 54.6875 C-33.9904126 55.42355469 -34.4964502 56.15960938 -35.01782227 56.91796875 C-35.67995728 57.70107422 -35.67995728 57.70107422 -36.35546875 58.5 C-37.01546875 58.5 -37.67546875 58.5 -38.35546875 58.5 C-39.62248999 54.10699084 -39.62248999 54.10699084 -38.45019531 51.44213867 C-37.9703418 50.7741626 -37.49048828 50.10618652 -36.99609375 49.41796875 C-36.46298584 48.6592749 -35.92987793 47.90058105 -35.38061523 47.11889648 C-34.79481689 46.31653564 -34.20901855 45.5141748 -33.60546875 44.6875 C-32.39319602 42.97398178 -31.18095695 41.26043976 -29.96875 39.546875 C-29.35725098 38.69416016 -28.74575195 37.84144531 -28.11572266 36.96289062 C-25.62991605 33.48483 -23.21058455 29.96309656 -20.79296875 26.4375 C-20.35412354 25.80674561 -19.91527832 25.17599121 -19.46313477 24.52612305 C-16.9537524 20.90561885 -14.54836857 17.24054499 -12.21484375 13.50390625 C-11.42122437 12.25395874 -11.42122437 12.25395874 -10.61157227 10.97875977 C-9.58646697 9.35885408 -8.57828668 7.72807979 -7.58959961 6.08569336 C-4.09775957 0.61060911 -4.09775957 0.61060911 0 0 Z " fill="#242223" transform="translate(400.35546875,281.5)"/>
<path d="M0 0 C-0.53091894 3.15757055 -1.20589286 5.34042608 -3.71777344 7.42675781 C-6.06227159 8.91270735 -8.44607585 10.28136891 -10.875 11.625 C-12.69300078 12.67136706 -14.51070039 13.71825753 -16.328125 14.765625 C-17.26462891 15.29736328 -18.20113281 15.82910156 -19.16601562 16.37695312 C-23.69562884 18.97110101 -28.15736478 21.67599915 -32.625 24.375 C-34.96201236 25.77834951 -37.29982786 27.18013493 -39.64208984 28.57470703 C-41.31627018 29.5867038 -42.97682956 30.62138777 -44.62744141 31.67138672 C-45.93334229 32.49147217 -45.93334229 32.49147217 -47.265625 33.328125 C-48.04969727 33.82989258 -48.83376953 34.33166016 -49.64160156 34.84863281 C-53.53433011 36.74905806 -56.74562791 36.41171343 -61 36 C-58.79720229 33.61704459 -56.57559378 32.0169034 -53.7734375 30.390625 C-52.91830566 29.89046875 -52.06317383 29.3903125 -51.18212891 28.875 C-50.25577637 28.33875 -49.32942383 27.8025 -48.375 27.25 C-46.39014277 26.08936596 -44.40578796 24.92787238 -42.421875 23.765625 C-41.37837891 23.15525391 -40.33488281 22.54488281 -39.25976562 21.91601562 C-33.69439295 18.64481695 -28.15946086 15.32314542 -22.625 12 C-21.58649902 11.37770508 -20.54799805 10.75541016 -19.47802734 10.11425781 C-18.48754395 9.51967773 -17.49706055 8.92509766 -16.4765625 8.3125 C-15.53973633 7.75046875 -14.60291016 7.1884375 -13.63769531 6.609375 C-10.59408671 4.75233428 -7.60298662 2.8220344 -4.63427734 0.84765625 C-3 0 -3 0 0 0 Z " fill="#282727" transform="translate(163,442)"/>
<path d="M0 0 C1.10611998 1.10611998 2.2118519 2.2126291 3.31640625 3.3203125 C4.56917776 4.57017734 5.82795574 5.81402751 7.08984375 7.0546875 C11.34240471 11.25636311 15.43462269 15.51364499 19.296875 20.078125 C21.43318022 22.48881804 23.72061158 24.72387718 26 27 C28.31058114 29.41990351 30.59425152 31.86449253 32.875 34.3125 C33.49197754 34.97459473 34.10895508 35.63668945 34.74462891 36.31884766 C47 49.50623535 47 49.50623535 47 51 C44.09608822 51.61785357 42.79471713 51.83072326 40 51 C36.58643899 48.01238422 33.83561904 44.52933299 31 41 C29.84129182 39.63901733 28.67529137 38.28418803 27.5 36.9375 C26.943125 36.29683594 26.38625 35.65617187 25.8125 34.99609375 C23.05264242 31.95668163 20.11341496 29.10511154 17.19140625 26.22265625 C14.58457476 23.5786507 12.17626104 20.80226468 9.765625 17.98046875 C7.2199755 15.12506101 4.47036637 12.49441518 1.69921875 9.859375 C-0.02895771 7.96831295 -1.10156998 6.39581339 -2 4 C-1.125 1.75 -1.125 1.75 0 0 Z " fill="#2D2C2C" transform="translate(297,181)"/>
<path d="M0 0 C0.99 0 1.98 0 3 0 C3.1458018 13.92913449 2.70216344 27.77735944 2 41.6875 C1.9032259 43.67250561 1.80686972 45.65753165 1.7109375 47.64257812 C1.47875155 52.42863336 1.2409955 57.21438061 1 62 C-0.65 61.67 -2.3 61.34 -4 61 C-4.12082802 49.95382596 -3.83824765 38.97237327 -3.25537109 27.94213867 C-3.12351934 25.40905405 -3.00495243 22.8755495 -2.88671875 20.34179688 C-2.80288545 18.70568787 -2.71827871 17.06961827 -2.6328125 15.43359375 C-2.59938751 14.68871201 -2.56596252 13.94383026 -2.53152466 13.17637634 C-2.26870642 8.50765357 -1.43857267 4.45284683 0 0 Z " fill="#221D1F" transform="translate(354,360)"/>
<path d="M0 0 C0 0.99 0 1.98 0 3 C-12.74339396 7.32309302 -25.51666854 11.5302896 -38.375 15.5 C-39.50341309 15.84998047 -40.63182617 16.19996094 -41.79443359 16.56054688 C-42.83937988 16.88087891 -43.88432617 17.20121094 -44.9609375 17.53125 C-45.88696777 17.81548828 -46.81299805 18.09972656 -47.76708984 18.39257812 C-50 19 -50 19 -52 19 C-52.33 17.35 -52.66 15.7 -53 14 C-46.58400967 11.82442497 -40.160466 9.67240134 -33.73120117 7.53637695 C-31.54613358 6.80737323 -29.3628342 6.07304672 -27.18139648 5.33325195 C-24.04082601 4.26922181 -20.89434046 3.22465794 -17.74609375 2.18359375 C-16.7760289 1.85032578 -15.80596405 1.5170578 -14.8065033 1.1736908 C-9.37602134 -0.59858137 -5.5849568 -1.38020987 0 0 Z " fill="#242122" transform="translate(248,331)"/>
<path d="M0 0 C1 2 1 2 0.328125 4.86328125 C-1.12220267 8.28861395 -2.44556511 9.78701517 -5.25 12.1875 C-6.13945312 12.95191406 -7.02890625 13.71632812 -7.9453125 14.50390625 C-11.90213917 17.73716999 -15.90033488 20.91358182 -19.95043945 24.02929688 C-23.2862116 26.60238459 -26.39616544 29.26427552 -29.4375 32.1875 C-31.99175481 34.5045346 -33.5227787 35.40984814 -37 35.4375 C-37.99 35.293125 -38.98 35.14875 -40 35 C-38.67763721 31.03291163 -36.10297292 29.5364551 -32.875 27.125 C-26.14656129 21.97879571 -19.74058714 16.53072601 -13.375 10.9453125 C-12.25049294 9.9629771 -11.12550464 8.98119227 -10 8 C-9.43925781 7.50725586 -8.87851562 7.01451172 -8.30078125 6.50683594 C-4.22959856 3 -4.22959856 3 -2 3 C-2 2.34 -2 1.68 -2 1 C-1.34 0.67 -0.68 0.34 0 0 Z " fill="#262526" transform="translate(458,224)"/>
<path d="M0 0 C1.1875 1.625 1.1875 1.625 1.1875 3.625 C-4.57791096 4.3401605 -10.34370047 5.05215741 -16.10986328 5.76123047 C-18.07123357 6.0028744 -20.03249775 6.2453812 -21.99365234 6.48876953 C-24.81320153 6.83853639 -27.6331182 7.18519451 -30.453125 7.53125 C-31.32930481 7.6406189 -32.20548462 7.74998779 -33.10821533 7.8626709 C-33.92876404 7.96277466 -34.74931274 8.06287842 -35.59472656 8.16601562 C-36.31420471 8.25484009 -37.03368286 8.34366455 -37.77496338 8.43518066 C-39.77978884 8.62195259 -41.79899339 8.625 -43.8125 8.625 C-43.8125 6.645 -43.8125 4.665 -43.8125 2.625 C-38.63505829 2.05188803 -33.45724267 1.48232748 -28.27905273 0.91601562 C-26.51852945 0.72297508 -24.75811117 0.5289744 -22.99780273 0.33398438 C-20.46365091 0.05344568 -17.92913822 -0.22360744 -15.39453125 -0.5 C-14.21924614 -0.63124268 -14.21924614 -0.63124268 -13.0202179 -0.76513672 C-2.5074828 -1.90222833 -2.5074828 -1.90222833 0 0 Z " fill="#1B1819" transform="translate(523.8125,93.375)"/>
<path d="M0 0 C3.80935673 2.05775315 5.69053398 3.22565005 7.32373047 7.31225586 C7.58557129 8.60010986 7.84741211 9.88796387 8.1171875 11.21484375 C8.33751144 12.25397667 8.33751144 12.25397667 8.56228638 13.31410217 C9.02303511 15.51786443 9.44873248 17.72683999 9.875 19.9375 C10.18274878 21.4190674 10.4926243 22.90019472 10.8046875 24.38085938 C13.20189448 36.00699428 13.20189448 36.00699428 13 41 C10.525 41.495 10.525 41.495 8 42 C6.8569034 36.50150773 5.71767228 31.00223424 4.58203125 25.50219727 C4.19507546 23.63088297 3.80706038 21.75978739 3.41796875 19.88891602 C2.85919666 17.20125078 2.30422662 14.5128245 1.75 11.82421875 C1.57500977 10.98662521 1.40001953 10.14903168 1.21972656 9.28605652 C0.57460654 6.14200909 0 3.21879145 0 0 Z " fill="#2E2C2D" transform="translate(538,105)"/>
<path d="M0 0 C2.5654594 2.5654594 2.54046087 4.47686668 3 8 C5.97 8 8.94 8 12 8 C12 8.66 12 9.32 12 10 C11.175 10.37125 10.35 10.7425 9.5 11.125 C6.81972842 12.6864317 6.81972842 12.6864317 6.66796875 14.97265625 C6.68571198 16.98473875 6.83562007 18.99456487 7 21 C6.236875 20.67 5.47375 20.34 4.6875 20 C2.00930865 18.82563314 2.00930865 18.82563314 -1 19 C-2.34789347 19.98028616 -3.68212715 20.97971135 -5 22 C-5.66 22 -6.32 22 -7 22 C-6.01 19.03 -5.02 16.06 -4 13 C-4.78375 12.731875 -5.5675 12.46375 -6.375 12.1875 C-9 11 -9 11 -11 8 C-8.03 8 -5.06 8 -2 8 C-1.34 5.36 -0.68 2.72 0 0 Z " fill="#2D2C2C" transform="translate(94,474)"/>
<path d="M0 0 C2.62386487 3.06117568 3 3.73173127 3 8 C5.97 8 8.94 8 12 8 C11.154375 8.639375 10.30875 9.27875 9.4375 9.9375 C6.78779668 12.65331049 6.78779668 12.65331049 6.890625 15.3359375 C7.16088149 17.59044562 7.5121463 19.7829223 8 22 C7.34 22 6.68 22 6 22 C6 21.34 6 20.68 6 20 C4.68 19.67 3.36 19.34 2 19 C2 18.34 2 17.68 2 17 C-1.465 19.475 -1.465 19.475 -5 22 C-5.66 21.67 -6.32 21.34 -7 21 C-6.01 18.36 -5.02 15.72 -4 13 C-4.598125 12.731875 -5.19625 12.46375 -5.8125 12.1875 C-8 11 -8 11 -11 8 C-8.03 8 -5.06 8 -2 8 C-1.34 5.36 -0.68 2.72 0 0 Z " fill="#222021" transform="translate(351,426)"/>
<path d="M0 0 C0.66 0 1.32 0 2 0 C2.66 2.64 3.32 5.28 4 8 C6.64 8 9.28 8 12 8 C11.154375 8.639375 10.30875 9.27875 9.4375 9.9375 C6.78779668 12.65331049 6.78779668 12.65331049 6.890625 15.3359375 C7.16088149 17.59044562 7.5121463 19.7829223 8 22 C7.113125 21.29875 6.22625 20.5975 5.3125 19.875 C2.21769751 17.62977088 2.21769751 17.62977088 -0.6875 18.625 C-2.49078001 19.69722055 -4.25438393 20.83625595 -6 22 C-5.86980469 21.40832031 -5.73960937 20.81664062 -5.60546875 20.20703125 C-5.17271677 17.72780728 -4.88212811 15.51740673 -5 13 C-7.25057567 9.91201326 -7.25057567 9.91201326 -10 8 C-7.36 8 -4.72 8 -2 8 C-1.34 5.36 -0.68 2.72 0 0 Z " fill="#161415" transform="translate(408,256)"/>
<path d="M0 0 C2.62386487 3.06117568 3 3.73173127 3 8 C5.97 8 8.94 8 12 8 C10.71034824 9.37562854 9.37310707 10.70766393 8 12 C7.34 12 6.68 12 6 12 C6.66 15.3 7.32 18.6 8 22 C7.01 21.67 6.02 21.34 5 21 C5 20.34 5 19.68 5 19 C1.2983569 18.05306805 -0.39112465 17.69556233 -3.875 19.4375 C-4.57625 19.953125 -5.2775 20.46875 -6 21 C-5.67 18.36 -5.34 15.72 -5 13 C-5.99 12.360625 -6.98 11.72125 -8 11.0625 C-8.99 10.381875 -9.98 9.70125 -11 9 C-11 8.67 -11 8.34 -11 8 C-8.03 8 -5.06 8 -2 8 C-1.7834375 6.576875 -1.7834375 6.576875 -1.5625 5.125 C-1 2 -1 2 0 0 Z " fill="#201C1D" transform="translate(179,342)"/>
<path d="M0 0 C0.66 0.33 1.32 0.66 2 1 C2.625 4.0625 2.625 4.0625 3 7 C5.97 7 8.94 7 12 7 C11.154375 7.639375 10.30875 8.27875 9.4375 8.9375 C6.78779668 11.65331049 6.78779668 11.65331049 6.890625 14.3359375 C7.16088149 16.59044562 7.5121463 18.7829223 8 21 C7.2575 20.505 6.515 20.01 5.75 19.5 C2.93681812 17.68076525 2.93681812 17.68076525 -1 18 C-3.71126384 19.42621684 -3.71126384 19.42621684 -6 21 C-5.34 18.03 -4.68 15.06 -4 12 C-5.32 11.34 -6.64 10.68 -8 10 C-8.66 9.01 -9.32 8.02 -10 7 C-7.36 7 -4.72 7 -2 7 C-1.34 4.69 -0.68 2.38 0 0 Z " fill="#2B282A" transform="translate(284,160)"/>
<path d="M0 0 C5.06327352 0.55210047 9.25998539 1.69878566 13.95703125 3.65234375 C14.58606857 3.91253799 15.2151059 4.17273224 15.86320496 4.44081116 C17.17986972 4.9875067 18.49490956 5.53813109 19.80834961 6.0925293 C21.82064886 6.94093564 23.83845775 7.77501831 25.85742188 8.60742188 C35.71672714 12.71672714 35.71672714 12.71672714 38 15 C35.49800957 16.63591682 34.27055492 17.02916593 31.25512695 16.70410156 C25.96928622 15.56074563 21.07422204 13.51254631 16.06665039 11.49951172 C14.18207691 10.74783696 12.28804286 10.02447297 10.39257812 9.30078125 C9.20470703 8.82511719 8.01683594 8.34945312 6.79296875 7.859375 C5.7052417 7.43108398 4.61751465 7.00279297 3.49682617 6.56152344 C1 5 1 5 0.13793945 2.32128906 C0.09241943 1.55526367 0.04689941 0.78923828 0 0 Z " fill="#2D292B" transform="translate(360,244)"/>
<path d="M0 0 C0.66 0.33 1.32 0.66 2 1 C2.40729228 3.32156597 2.74438677 5.6568787 3 8 C5.97 8 8.94 8 12 8 C10.71034824 9.37562854 9.37310707 10.70766393 8 12 C7.34 12 6.68 12 6 12 C6.66 15.3 7.32 18.6 8 22 C4 20 4 20 2.125 18.6875 C-0.21677009 17.67391559 -0.21677009 17.67391559 -3.25 19.375 C-4.1575 19.91125 -5.065 20.4475 -6 21 C-5.731875 19.783125 -5.46375 18.56625 -5.1875 17.3125 C-4.82432666 15.13313307 -4.82432666 15.13313307 -5 13 C-7.27127334 9.97590636 -7.27127334 9.97590636 -10 8 C-7.36 8 -4.72 8 -2 8 C-1.7834375 6.576875 -1.7834375 6.576875 -1.5625 5.125 C-1 2 -1 2 0 0 Z " fill="#312D2F" transform="translate(349,229)"/>
<path d="M0 0 C1.5 1.25 1.5 1.25 3 3 C3 4.32 3 5.64 3 7 C5.97 7 8.94 7 12 7 C10.71034824 8.37562854 9.37310707 9.70766393 8 11 C7.34 11 6.68 11 6 11 C6.66 14.3 7.32 17.6 8 21 C5.33333333 19.66666667 2.66666667 18.33333333 0 17 C-0.61875 17.495 -1.2375 17.99 -1.875 18.5 C-4 20 -4 20 -6 20 C-5.67 17.36 -5.34 14.72 -5 12 C-5.99 11.360625 -6.98 10.72125 -8 10.0625 C-8.99 9.381875 -9.98 8.70125 -11 8 C-11 7.67 -11 7.34 -11 7 C-8.03 7 -5.06 7 -2 7 C-1.67 5.68 -1.34 4.36 -1 3 C-0.67 2.01 -0.34 1.02 0 0 Z " fill="#272425" transform="translate(469,207)"/>
<path d="M0 0 C0.66 0.33 1.32 0.66 2 1 C2.40729228 3.32156597 2.74438677 5.6568787 3 8 C5.97 8 8.94 8 12 8 C10.71034824 9.37562854 9.37310707 10.70766393 8 12 C7.34 12 6.68 12 6 12 C6.66 15.3 7.32 18.6 8 22 C7.113125 21.29875 6.22625 20.5975 5.3125 19.875 C2.21224502 17.61502868 2.21224502 17.61502868 -0.6875 18.6875 C-1.8321875 19.3371875 -1.8321875 19.3371875 -3 20 C-3.99 20.33 -4.98 20.66 -6 21 C-5.731875 19.783125 -5.46375 18.56625 -5.1875 17.3125 C-4.82432666 15.13313307 -4.82432666 15.13313307 -5 13 C-7.27127334 9.97590636 -7.27127334 9.97590636 -10 8 C-7.36 8 -4.72 8 -2 8 C-1.34 5.36 -0.68 2.72 0 0 Z " fill="#2B2829" transform="translate(43,408)"/>
<path d="M0 0 C0.66 0 1.32 0 2 0 C3.25664978 2.90600261 4 4.79604584 4 8 C6.64 8 9.28 8 12 8 C11.154375 8.66 10.30875 9.32 9.4375 10 C6.81089794 12.6303496 6.81089794 12.6303496 6.890625 15.11328125 C7.15774969 17.09211284 7.57033783 19.04999475 8 21 C7.443125 20.690625 6.88625 20.38125 6.3125 20.0625 C3.79092898 18.90394034 1.77283771 18.21329521 -1 18 C-2.7087646 19.37514541 -2.7087646 19.37514541 -4 21 C-4.66 21 -5.32 21 -6 21 C-5.34 18.03 -4.68 15.06 -4 12 C-6.475 11.01 -6.475 11.01 -9 10 C-9 9.34 -9 8.68 -9 8 C-5.535 7.505 -5.535 7.505 -2 7 C-1.34 4.69 -0.68 2.38 0 0 Z " fill="#181617" transform="translate(463,91)"/>
<path d="M0 0 C2.12508244 3.18762365 2.5020163 5.26512223 3 9 C5.64 9 8.28 9 11 9 C10.154375 9.66 9.30875 10.32 8.4375 11 C5.81089794 13.6303496 5.81089794 13.6303496 5.890625 16.11328125 C6.15774969 18.09211284 6.57033783 20.04999475 7 22 C6.278125 21.484375 5.55625 20.96875 4.8125 20.4375 C2.1437182 18.76669358 2.1437182 18.76669358 -0.5625 19.1875 C-3.32409061 20.04419417 -3.32409061 20.04419417 -7 22 C-6.34 19.03 -5.68 16.06 -5 13 C-6.32 12.34 -7.64 11.68 -9 11 C-9.33 10.34 -9.66 9.68 -10 9 C-6.535 8.505 -6.535 8.505 -3 8 C-2.01 5.36 -1.02 2.72 0 0 Z " fill="#262224" transform="translate(356,336)"/>
<path d="M0 0 C0.66 0.33 1.32 0.66 2 1 C2.40729228 3.32156597 2.74438677 5.6568787 3 8 C5.97 8 8.94 8 12 8 C11.175 8.66 10.35 9.32 9.5 10 C6.14694485 14.02366618 6.56839023 15.90700467 7 21 C6.278125 20.46375 5.55625 19.9275 4.8125 19.375 C2.09292329 17.65681513 2.09292329 17.65681513 -0.625 18.75 C-1.40875 19.1625 -2.1925 19.575 -3 20 C-3.99 20.33 -4.98 20.66 -6 21 C-5.731875 19.783125 -5.46375 18.56625 -5.1875 17.3125 C-4.82432666 15.13313307 -4.82432666 15.13313307 -5 13 C-7.27127334 9.97590636 -7.27127334 9.97590636 -10 8 C-7.36 8 -4.72 8 -2 8 C-1.34 5.36 -0.68 2.72 0 0 Z " fill="#242223" transform="translate(537,82)"/>
<path d="M0 0 C0.66 0 1.32 0 2 0 C2.33 2.64 2.66 5.28 3 8 C5.97 8 8.94 8 12 8 C11.154375 8.66 10.30875 9.32 9.4375 10 C6.81089794 12.6303496 6.81089794 12.6303496 6.890625 15.11328125 C7.15774969 17.09211284 7.57033783 19.04999475 8 21 C7.113125 20.46375 6.22625 19.9275 5.3125 19.375 C2.15209477 17.67460495 2.15209477 17.67460495 -0.6875 18.6875 C-2.50242318 19.71759153 -4.26361754 20.8424117 -6 22 C-5.34 18.7 -4.68 15.4 -4 12 C-4.804375 11.71125 -5.60875 11.4225 -6.4375 11.125 C-9 10 -9 10 -10 8 C-7.03 8 -4.06 8 -1 8 C-0.67 5.36 -0.34 2.72 0 0 Z " fill="#1D1A1B" transform="translate(257,317)"/>
<path d="M0 0 C2.5654594 2.5654594 2.54046087 4.47686668 3 8 C5.64 8 8.28 8 11 8 C10.154375 8.845625 9.30875 9.69125 8.4375 10.5625 C6.00572884 13.42461268 5.9910727 13.81550241 6.1875 17.875 C6.455625 18.90625 6.72375 19.9375 7 21 C6.2575 20.484375 5.515 19.96875 4.75 19.4375 C2.20915447 17.7932769 2.20915447 17.7932769 -0.0625 18.1875 C-2.09507174 19.03986879 -4.0570659 19.95914244 -6 21 C-5.67 18.36 -5.34 15.72 -5 13 C-5.99 12.360625 -6.98 11.72125 -8 11.0625 C-8.99 10.381875 -9.98 9.70125 -11 9 C-11 8.67 -11 8.34 -11 8 C-8.03 8 -5.06 8 -2 8 C-1.855625 7.236875 -1.71125 6.47375 -1.5625 5.6875 C-1 3 -1 3 0 0 Z " fill="#161415" transform="translate(173,427)"/>
<path d="M0 0 C0.66 0 1.32 0 2 0 C3.25664978 2.90600261 4 4.79604584 4 8 C6.64 8 9.28 8 12 8 C10.71034824 9.37562854 9.37310707 10.70766393 8 12 C7.34 12 6.68 12 6 12 C6.66 14.97 7.32 17.94 8 21 C6.68 20.34 5.36 19.68 4 19 C2.1477633 17.99521963 2.1477633 17.99521963 0 18 C-3.23761134 19.85250004 -3.23761134 19.85250004 -6 22 C-5.34 18.7 -4.68 15.4 -4 12 C-5.32 11.34 -6.64 10.68 -8 10 C-8 9.34 -8 8.68 -8 8 C-5.69 8 -3.38 8 -1 8 C-0.67 5.36 -0.34 2.72 0 0 Z " fill="#2A2829" transform="translate(550,151)"/>
<path d="M0 0 C1.32 0.33 2.64 0.66 4 1 C6.10474041 29.26365688 6.10474041 29.26365688 4 38 C3.01 38 2.02 38 1 38 C-0.27786205 30.19196105 -0.11158147 22.38637319 -0.0625 14.5 C-0.05747533 13.09114742 -0.05291413 11.68229311 -0.04882812 10.2734375 C-0.0371003 6.84891362 -0.02068691 3.42447953 0 0 Z " fill="#252223" transform="translate(463,114)"/>
<path d="M0 0 C1.24546405 2.49092811 0.7767578 3.41080733 0 6 C0.66 6.33 1.32 6.66 2 7 C1.26394531 7.85722656 0.52789062 8.71445312 -0.23046875 9.59765625 C-7.44907019 18.03848062 -7.44907019 18.03848062 -14 27 C-14.33 26.34 -14.66 25.68 -15 25 C-16.98 25.66 -18.96 26.32 -21 27 C-20.34 25.68 -19.68 24.36 -19 23 C-18.34 23 -17.68 23 -17 23 C-16.74605469 22.43667969 -16.49210938 21.87335938 -16.23046875 21.29296875 C-14.83570184 18.69383168 -13.18226789 16.59369029 -11.3125 14.3125 C-7.47520278 9.59129154 -3.72058325 4.81350457 0 0 Z " fill="#282627" transform="translate(225,367)"/>
<path d="M0 0 C-0.17944336 2.81298828 -0.17944336 2.81298828 -1 6 C-3.22485352 7.69091797 -3.22485352 7.69091797 -6.12890625 8.9921875 C-7.16337891 9.46914063 -8.19785156 9.94609375 -9.26367188 10.4375 C-10.35228516 10.911875 -11.44089844 11.38625 -12.5625 11.875 C-14.2012207 12.62136719 -14.2012207 12.62136719 -15.87304688 13.3828125 C-18.57351566 14.60922627 -21.28175488 15.81363786 -24 17 C-24.33 16.01 -24.66 15.02 -25 14 C-24.01 13.67 -23.02 13.34 -22 13 C-22.99 12.34 -23.98 11.68 -25 11 C-21.21135025 9.16038326 -17.41860225 7.32937928 -13.625 5.5 C-12.54476562 4.97535156 -11.46453125 4.45070313 -10.3515625 3.91015625 C-9.3203125 3.41386719 -8.2890625 2.91757812 -7.2265625 2.40625 C-6.27346191 1.94541016 -5.32036133 1.48457031 -4.33837891 1.00976562 C-2 0 -2 0 0 0 Z " fill="#292627" transform="translate(169,356)"/>
<path d="M0 0 C0.66 0.33 1.32 0.66 2 1 C1.505 1.433125 1.01 1.86625 0.5 2.3125 C-1.33218192 3.99740483 -1.33218192 3.99740483 -1 7 C-3.54115002 7.95972174 -6.08289457 8.91781494 -8.625 9.875 C-9.33785156 10.14441406 -10.05070312 10.41382813 -10.78515625 10.69140625 C-14.83148122 12.2134184 -18.88737656 13.66372172 -23 15 C-23.66 13.35 -24.32 11.7 -25 10 C-18.33333333 7.33333333 -11.66666667 4.66666667 -5 2 C-4.11594482 1.60925293 -3.23188965 1.21850586 -2.32104492 0.81591797 C-1.5551001 0.54666504 -0.78915527 0.27741211 0 0 Z " fill="#2B2A2A" transform="translate(297,309)"/>
<path d="M0 0 C-0.33 0.99 -0.66 1.98 -1 3 C2.96 3 6.92 3 11 3 C11 3.33 11 3.66 11 4 C6.75043359 4.50373171 2.50028144 5.00234046 -1.75 5.5 C-2.9565625 5.64308594 -4.163125 5.78617187 -5.40625 5.93359375 C-6.56640625 6.06894531 -7.7265625 6.20429687 -8.921875 6.34375 C-9.99018555 6.46943359 -11.05849609 6.59511719 -12.15917969 6.72460938 C-15 7 -15 7 -19 7 C-19 5.02 -19 3.04 -19 1 C-12.62694402 0.25492456 -6.41688675 -0.10349817 0 0 Z " fill="#312E2F" transform="translate(499,95)"/>
<path d="M0 0 C1.31677734 0.22623047 1.31677734 0.22623047 2.66015625 0.45703125 C2.66015625 1.44703125 2.66015625 2.43703125 2.66015625 3.45703125 C2.00015625 3.45703125 1.34015625 3.45703125 0.66015625 3.45703125 C0.42554688 3.9675 0.1909375 4.47796875 -0.05078125 5.00390625 C-1.82073572 8.37218324 -3.8914301 11.51915777 -5.96484375 14.70703125 C-6.38507813 15.35671875 -6.8053125 16.00640625 -7.23828125 16.67578125 C-8.27030048 18.27072006 -9.30482403 19.86403794 -10.33984375 21.45703125 C-12.33984375 18.45703125 -12.33984375 18.45703125 -13.33984375 15.45703125 C-12.19501251 12.68460862 -10.43293999 10.26340407 -8.77734375 7.76953125 C-8.13055664 6.71668945 -8.13055664 6.71668945 -7.47070312 5.64257812 C-4.13018158 0.56518274 -4.13018158 0.56518274 0 0 Z " fill="#2D2C2D" transform="translate(400.33984375,281.54296875)"/>
<path d="M0 0 C0 0.66 0 1.32 0 2 C-0.66 2 -1.32 2 -2 2 C-1.88785156 2.74636719 -1.77570313 3.49273437 -1.66015625 4.26171875 C-2 7 -2 7 -4.30859375 9.01953125 C-10.92420897 12.81050177 -15.35012368 14.89248557 -23 14 C-19.52141359 10.26526251 -15.27168319 7.93876425 -10.9375 5.3125 C-9.69516602 4.54583008 -9.69516602 4.54583008 -8.42773438 3.76367188 C-7.63560547 3.28091797 -6.84347656 2.79816406 -6.02734375 2.30078125 C-4.94054321 1.63816284 -4.94054321 1.63816284 -3.83178711 0.9621582 C-2 0 -2 0 0 0 Z " fill="#2C2A2B" transform="translate(125,464)"/>
<path d="M0 0 C4.66666667 4.66666667 9.33333333 9.33333333 14 14 C13 16 13 16 11.2265625 16.88671875 C9 17 9 17 6.7109375 15.26953125 C5.94007813 14.45871094 5.16921875 13.64789063 4.375 12.8125 C3.59898437 12.01457031 2.82296875 11.21664062 2.0234375 10.39453125 C0.23558254 8.27878784 -1.05345637 6.59198867 -2 4 C-1.125 1.75 -1.125 1.75 0 0 Z " fill="#292728" transform="translate(297,181)"/>
<path d="M0 0 C-2.61278727 3.15943426 -5.59381793 4.24684367 -9.375 5.6875 C-11.05722656 6.34298828 -11.05722656 6.34298828 -12.7734375 7.01171875 C-15.74958215 7.92329817 -17.92144829 8.21330789 -21 8 C-21 6.68 -21 5.36 -21 4 C-5.53549962 -1.91613449 -5.53549962 -1.91613449 0 0 Z " fill="#232122" transform="translate(378,281)"/>
<path d="M0 0 C0.66 0 1.32 0 2 0 C2.33 1.98 2.66 3.96 3 6 C2.01 6.495 2.01 6.495 1 7 C0.72223808 9.19321165 0.72223808 9.19321165 0.6875 11.75 C0.41392356 15.42223759 0.11505869 17.52265363 -2.5625 20.125 C-3.366875 20.74375 -4.17125 21.3625 -5 22 C-6 20 -6 20 -5.25 16.6875 C-4.56361072 12.8393179 -4.56361072 12.8393179 -7.4375 10.0625 C-8.283125 9.381875 -9.12875 8.70125 -10 8 C-7.36 8 -4.72 8 -2 8 C-1.34 5.36 -0.68 2.72 0 0 Z " fill="#333232" transform="translate(408,256)"/>
<path d="M0 0 C1.5 1.25 1.5 1.25 3 3 C3 4.32 3 5.64 3 7 C5.97 7 8.94 7 12 7 C10.71034824 8.37562854 9.37310707 9.70766393 8 11 C7.34 11 6.68 11 6 11 C6.66 14.3 7.32 17.6 8 21 C6.68 20.34 5.36 19.68 4 19 C4 16 4 16 5 14 C3.35 13.67 1.7 13.34 0 13 C0 12.01 0 11.02 0 10 C0.66 10 1.32 10 2 10 C1.67 8.35 1.34 6.7 1 5 C0.67 5.66 0.34 6.32 0 7 C-0.66 7 -1.32 7 -2 7 C-1.42415568 4.61435923 -0.77772405 2.33317216 0 0 Z " fill="#2A2829" transform="translate(469,207)"/>
<path d="M0 0 C0.556875 0.37125 1.11375 0.7425 1.6875 1.125 C-0.20035909 2.61541507 -2.09668108 4.09205783 -4 5.5625 C-4.79567383 6.19381836 -4.79567383 6.19381836 -5.60742188 6.83789062 C-8.76517028 9.25947683 -11.27692845 10.96687709 -15.3125 11.125 C-16.3025 10.465 -17.2925 9.805 -18.3125 9.125 C-16.5883698 7.82661824 -14.85796768 6.53656253 -13.125 5.25 C-12.16207031 4.53070313 -11.19914062 3.81140625 -10.20703125 3.0703125 C-3.6075 -1.365 -3.6075 -1.365 0 0 Z " fill="#201E1F" transform="translate(498.3125,198.875)"/>
<path d="M0 0 C0.33 0.66 0.66 1.32 1 2 C0.01 2.99 -0.98 3.98 -2 5 C-1.01 5.33 -0.02 5.66 1 6 C-0.58093054 7.12837409 -2.16484716 8.25256518 -3.75 9.375 C-4.63171875 10.00148437 -5.5134375 10.62796875 -6.421875 11.2734375 C-12.13539192 15.09976247 -12.13539192 15.09976247 -16.25 14.625 C-17.61125 14.315625 -17.61125 14.315625 -19 14 C-15.94404946 10.71577364 -12.69075884 8.32136202 -8.9375 5.875 C-7.89464844 5.19179687 -6.85179687 4.50859375 -5.77734375 3.8046875 C-4.86082031 3.20914063 -3.94429688 2.61359375 -3 2 C-2.01 1.34 -1.02 0.68 0 0 Z " fill="#2F2E2F" transform="translate(513,185)"/>
<path d="M0 0 C-1.98 0.99 -1.98 0.99 -4 2 C-4 2.99 -4 3.98 -4 5 C-12.4690583 10.07802691 -12.4690583 10.07802691 -16.22265625 9.88671875 C-18.125 9.3125 -18.125 9.3125 -21 8 C-18.00377381 5.58323265 -15.00933902 3.94648973 -11.5 2.375 C-10.5615625 1.94960938 -9.623125 1.52421875 -8.65625 1.0859375 C-2.69902913 -1.34951456 -2.69902913 -1.34951456 0 0 Z " fill="#252223" transform="translate(75,403)"/>
<path d="M0 0 C0 0.99 0 1.98 0 3 C-2.24916619 3.81487171 -4.49926978 4.62696918 -6.75 5.4375 C-7.70132812 5.78264648 -7.70132812 5.78264648 -8.671875 6.13476562 C-15.89032851 8.72889736 -15.89032851 8.72889736 -18 9 C-18.66 8.34 -19.32 7.68 -20 7 C-18.36421214 3.72842427 -15.21478873 2.45856155 -12 1 C-4.26302306 -1.42100769 -4.26302306 -1.42100769 0 0 Z " fill="#242122" transform="translate(314,306)"/>
<path d="M0 0 C2 2 2 2 3 5 C3.66 5 4.32 5 5 5 C5 6.65 5 8.3 5 10 C4.236875 9.979375 3.47375 9.95875 2.6875 9.9375 C-0.10185786 9.87057159 -0.10185786 9.87057159 -3 11 C-3.37125 9.88625 -3.37125 9.88625 -3.75 8.75 C-5.09147301 5.79875938 -6.60905526 4.15185026 -9 2 C-6.94921875 1.77213542 -4.8984375 1.54427083 -2.84765625 1.31640625 C-0.98859771 1.18113386 -0.98859771 1.18113386 0 0 Z " fill="#242323" transform="translate(348,235)"/>
<path d="M0 0 C2.1796875 1.265625 2.1796875 1.265625 3.1796875 3.265625 C-1.1103125 4.915625 -5.4003125 6.565625 -9.8203125 8.265625 C-10.1503125 7.605625 -10.4803125 6.945625 -10.8203125 6.265625 C-13.1303125 6.265625 -15.4403125 6.265625 -17.8203125 6.265625 C-14.91550792 4.32908861 -12.1318859 2.93011394 -8.9453125 1.515625 C-7.91664063 1.04640625 -6.88796875 0.5771875 -5.828125 0.09375 C-2.8203125 -0.734375 -2.8203125 -0.734375 0 0 Z " fill="#353334" transform="translate(324.8203125,299.734375)"/>
<path d="M0 0 C2.4750171 1.11431765 4.67883419 2.58150978 7 4 C6.34 6.97 5.68 9.94 5 13 C2.69 13 0.38 13 -2 13 C-1.01 10.69 -0.02 8.38 1 6 C-0.32 5.34 -1.64 4.68 -3 4 C-2.67 3.01 -2.34 2.02 -2 1 C-1.34 0.67 -0.68 0.34 0 0 Z " fill="#EAE9EA" transform="translate(162,436)"/>
<path d="M0 0 C-0.66 0.66 -1.32 1.32 -2 2 C-2.16687448 4.58354218 -2.16687448 4.58354218 -2 7 C-2.99 7 -3.98 7 -5 7 C-7.01254782 8.31431695 -9.01310269 9.64721885 -11 11 C-11.66 11 -12.32 11 -13 11 C-12.34 8.03 -11.68 5.06 -11 2 C-10.01 2 -9.02 2 -8 2 C-8 1.34 -8 0.68 -8 0 C-5.13822943 -1.43088528 -3.06624227 -0.59991697 0 0 Z " fill="#151314" transform="translate(544,92)"/>
<path d="M0 0 C0.33 1.32 0.66 2.64 1 4 C-0.88842514 4.87042243 -2.78611902 5.72075474 -4.6875 6.5625 C-5.74324219 7.03816406 -6.79898437 7.51382812 -7.88671875 8.00390625 C-11.16633893 9.05322011 -12.75895539 9.00418265 -16 8 C-16 7.01 -16 6.02 -16 5 C-11.63651625 2.94659588 -8.84972448 1.86892637 -4 2 C-1.74867483 1.08431094 -1.74867483 1.08431094 0 0 Z " fill="#292728" transform="translate(341,293)"/>
<path d="M0 0 C2.62386487 3.06117568 3 3.73173127 3 8 C5.97 8 8.94 8 12 8 C10 10 10 10 6.875 10.125 C5.92625 10.08375 4.9775 10.0425 4 10 C3.67 10.66 3.34 11.32 3 12 C0.9375 12.625 0.9375 12.625 -1 13 C-1.33 12.01 -1.66 11.02 -2 10 C-3.3921875 10.3403125 -3.3921875 10.3403125 -4.8125 10.6875 C-5.864375 10.790625 -6.91625 10.89375 -8 11 C-8.99 10.01 -9.98 9.02 -11 8 C-8.03 8 -5.06 8 -2 8 C-1.34 5.36 -0.68 2.72 0 0 Z " fill="#312F30" transform="translate(351,426)"/>
<path d="M0 0 C0.33 0 0.66 0 1 0 C1 9.24 1 18.48 1 28 C-0.65 28.33 -2.3 28.66 -4 29 C-4 24.71 -4 20.42 -4 16 C-3.67 16.99 -3.34 17.98 -3 19 C-2.01 19 -1.02 19 0 19 C0 12.73 0 6.46 0 0 Z " fill="#424041" transform="translate(469,173)"/>
<path d="M0 0 C1.9451 2.91765 2.45276317 4.62537285 3 8 C2.34 8 1.68 8 1 8 C1 9.65 1 11.3 1 13 C0.195625 13.12375 -0.60875 13.2475 -1.4375 13.375 C-2.283125 13.58125 -3.12875 13.7875 -4 14 C-4.33 14.66 -4.66 15.32 -5 16 C-5 15.01 -5 14.02 -5 13 C-5.639375 12.71125 -6.27875 12.4225 -6.9375 12.125 C-9 11 -9 11 -10 9 C-6.535 8.505 -6.535 8.505 -3 8 C-2.01 5.36 -1.02 2.72 0 0 Z " fill="#282425" transform="translate(356,336)"/>
<path d="M0 0 C0.33 0 0.66 0 1 0 C2.59105604 8.27086157 3.2386744 15.64731722 2 24 C1.01 24 0.02 24 -1 24 C-1.0270491 20.93744039 -1.04686298 17.8751214 -1.0625 14.8125 C-1.07087891 13.94818359 -1.07925781 13.08386719 -1.08789062 12.19335938 C-1.10396812 7.99713231 -1.07559038 4.09063114 0 0 Z " fill="#1A1516" transform="translate(465,128)"/>
<path d="M0 0 C0.33 0.66 0.66 1.32 1 2 C-0.32 2 -1.64 2 -3 2 C-3 2.99 -3 3.98 -3 5 C-8.445 7.475 -8.445 7.475 -14 10 C-14.33 8.68 -14.66 7.36 -15 6 C-13.70903219 5.18639005 -12.41720125 4.37414954 -11.125 3.5625 C-10.04605469 2.88380859 -10.04605469 2.88380859 -8.9453125 2.19140625 C-5.70200825 0.20504521 -3.80131767 -0.10003468 0 0 Z " fill="#221F20" transform="translate(147,368)"/>
<path d="M0 0 C0.66 0.33 1.32 0.66 2 1 C1.83984375 2.796875 1.83984375 2.796875 1 5 C-1.43359375 6.703125 -1.43359375 6.703125 -4.4375 8.25 C-5.92056641 9.03117187 -5.92056641 9.03117187 -7.43359375 9.828125 C-10 11 -10 11 -12 11 C-11.67 9.68 -11.34 8.36 -11 7 C-10.34 7 -9.68 7 -9 7 C-9 6.01 -9 5.02 -9 4 C-5.86501708 2.14223235 -3.62528568 1.79859524 0 2 C0 1.34 0 0.68 0 0 Z " fill="#232122" transform="translate(134,459)"/>
<path d="M0 0 C-0.33 1.32 -0.66 2.64 -1 4 C-4.96 4.99 -8.92 5.98 -13 7 C-13.33 5.35 -13.66 3.7 -14 2 C-12.4176994 1.66179834 -10.83410625 1.32964061 -9.25 1 C-8.36828125 0.814375 -7.4865625 0.62875 -6.578125 0.4375 C-4 0 -4 0 0 0 Z " fill="#2B2829" transform="translate(209,343)"/>
<path d="M0 0 C0.66 0.33 1.32 0.66 2 1 C1.505 1.433125 1.01 1.86625 0.5 2.3125 C-1.33218192 3.99740483 -1.33218192 3.99740483 -1 7 C-5.95 8.485 -5.95 8.485 -11 10 C-11.33 8.35 -11.66 6.7 -12 5 C-10.04578965 4.13644222 -8.08648653 3.28440066 -6.125 2.4375 C-5.03445313 1.96183594 -3.94390625 1.48617188 -2.8203125 0.99609375 C-1.88960938 0.66738281 -0.95890625 0.33867187 0 0 Z " fill="#272526" transform="translate(297,309)"/>
<path d="M0 0 C0.66 0 1.32 0 2 0 C3.25664978 2.90600261 4 4.79604584 4 8 C6.64 8 9.28 8 12 8 C10.02 10.31 8.04 12.62 6 15 C5.34 13.68 4.68 12.36 4 11 C4.33 10.34 4.66 9.68 5 9 C4.071875 8.7834375 4.071875 8.7834375 3.125 8.5625 C1 8 1 8 -1 7 C-0.67 4.69 -0.34 2.38 0 0 Z " fill="#272526" transform="translate(463,91)"/>
<path d="M0 0 C1.1875 1.625 1.1875 1.625 1.1875 3.625 C-1.7825 3.625 -4.7525 3.625 -7.8125 3.625 C-7.4825 2.635 -7.1525 1.645 -6.8125 0.625 C-7.92625 0.79 -9.04 0.955 -10.1875 1.125 C-15.06760338 1.74594505 -19.90111948 1.71557874 -24.8125 1.625 C-24.8125 1.295 -24.8125 0.965 -24.8125 0.625 C-21.91702736 0.28824721 -19.02118928 -0.04451734 -16.125 -0.375 C-15.30837891 -0.47039062 -14.49175781 -0.56578125 -13.65039062 -0.6640625 C-2.53615064 -1.92397634 -2.53615064 -1.92397634 0 0 Z " fill="#424041" transform="translate(523.8125,93.375)"/>
<path d="M0 0 C-0.66 0.66 -1.32 1.32 -2 2 C-0.68 2.66 0.64 3.32 2 4 C-3.445 5.485 -3.445 5.485 -9 7 C-9 6.01 -9 5.02 -9 4 C-11.64 4.33 -14.28 4.66 -17 5 C-13.97546033 2.98364022 -11.36924652 1.96753498 -7.9375 0.8125 C-6.87402344 0.44769531 -5.81054688 0.08289063 -4.71484375 -0.29296875 C-2 -1 -2 -1 0 0 Z " fill="#373435" transform="translate(218,339)"/>
<path d="M0 0 C2.97 0 5.94 0 9 0 C7.71034824 1.37562854 6.37310707 2.70766393 5 4 C4.34 4 3.68 4 3 4 C3.66 7.3 4.32 10.6 5 14 C4.01 13.67 3.02 13.34 2 13 C2 12.34 2 11.68 2 11 C1.01 10.67 0.02 10.34 -1 10 C-0.34 8.68 0.32 7.36 1 6 C0.34 5.01 -0.32 4.02 -1 3 C-0.67 2.01 -0.34 1.02 0 0 Z " fill="#252424" transform="translate(182,350)"/>
<path d="M0 0 C-1.44604317 6.38669065 -1.44604317 6.38669065 -3.75 8.9375 C-6.62066111 10.29308997 -8.86433782 10.21379515 -12 10 C-9.84337987 5.55989973 -5.4001839 0 0 0 Z " fill="#252122" transform="translate(541,167)"/>
<path d="M0 0 C-0.5625 2.3125 -0.5625 2.3125 -2 5 C-5.51611868 6.85395348 -8.00926247 8 -12 8 C-11.875 6.25 -11.875 6.25 -11 4 C-7.31618907 0.98597288 -4.80562023 -0.56536709 0 0 Z " fill="#211E1F" transform="translate(101,390)"/>
<path d="M0 0 C0.33 0.99 0.66 1.98 1 3 C1.28875 3.61875 1.5775 4.2375 1.875 4.875 C2 7 2 7 -0.4375 9.75 C-1.7059375 10.86375 -1.7059375 10.86375 -3 12 C-3 11.34 -3 10.68 -3 10 C-4.98 10.66 -6.96 11.32 -9 12 C-8.34 10.68 -7.68 9.36 -7 8 C-6.34 8 -5.68 8 -5 8 C-4.731875 7.4225 -4.46375 6.845 -4.1875 6.25 C-2.98280141 3.9674132 -1.59201885 2.0262058 0 0 Z " fill="#353334" transform="translate(213,382)"/>
<path d="M0 0 C1.65 0.99 3.3 1.98 5 3 C4.34 5.97 3.68 8.94 3 12 C1 10.75 1 10.75 -1 9 C-1 7.68 -1 6.36 -1 5 C-1.66 4.34 -2.32 3.68 -3 3 C-2.01 2.01 -1.02 1.02 0 0 Z " fill="#EDECED" transform="translate(399,266)"/>
<path d="M0 0 C0.33 0 0.66 0 1 0 C1 6.27 1 12.54 1 19 C-0.65 18.67 -2.3 18.34 -4 18 C-4 12.72 -4 7.44 -4 2 C-3.67 2 -3.34 2 -3 2 C-3 5.96 -3 9.92 -3 14 C-2.01 14 -1.02 14 0 14 C0 9.38 0 4.76 0 0 Z " fill="#414040" transform="translate(354,403)"/>
<path d="M0 0 C0.66 0.33 1.32 0.66 2 1 C2.33 2.32 2.66 3.64 3 5 C-2.445 7.475 -2.445 7.475 -8 10 C-8 9.01 -8 8.02 -8 7 C-7.01 6.67 -6.02 6.34 -5 6 C-5.99 5.34 -6.98 4.68 -8 4 C-6.71349294 3.30289269 -5.42059335 2.61757124 -4.125 1.9375 C-3.40570313 1.55464844 -2.68640625 1.17179687 -1.9453125 0.77734375 C-1.30335938 0.52082031 -0.66140625 0.26429688 0 0 Z " fill="#2E2C2D" transform="translate(152,363)"/>
<path d="M0 0 C-0.66 1.32 -1.32 2.64 -2 4 C-2.556875 3.649375 -3.11375 3.29875 -3.6875 2.9375 C-6.55836767 1.77363473 -8.02453858 2.38964894 -11 3 C-11.99 2.34 -12.98 1.68 -14 1 C-14 0.34 -14 -0.32 -14 -1 C-12.5437328 -1.36256858 -11.08488815 -1.71479793 -9.625 -2.0625 C-8.40683594 -2.35833984 -8.40683594 -2.35833984 -7.1640625 -2.66015625 C-3.898138 -3.17303609 -2.78190476 -1.85460317 0 0 Z " fill="#2A2829" transform="translate(468,100)"/>
<path d="M0 0 C3.93548431 3.06093224 6.68116787 5.49115974 9 10 C8.34 10.66 7.68 11.32 7 12 C5.0625 11.9375 5.0625 11.9375 3 11 C1.25 8.4375 1.25 8.4375 0 6 C0.99 6 1.98 6 3 6 C2.01 5.67 1.02 5.34 0 5 C0 3.35 0 1.7 0 0 Z " fill="#212021" transform="translate(322,208)"/>
<path d="M0 0 C2.64 0 5.28 0 8 0 C8 0.99 8 1.98 8 3 C9.32 3.66 10.64 4.32 12 5 C6.06 5.495 6.06 5.495 0 6 C0 4.02 0 2.04 0 0 Z " fill="#6C6A6B" transform="translate(480,96)"/>
<path d="M0 0 C2.97 0 5.94 0 9 0 C8.175 0.66 7.35 1.32 6.5 2 C3.14694485 6.02366618 3.56839023 7.90700467 4 13 C2.35 12.01 0.7 11.02 -1 10 C-0.67 9.01 -0.34 8.02 0 7 C0.95851663 3.93274678 1.06586582 3.19759745 0 0 Z " fill="#373536" transform="translate(540,90)"/>
<path d="M0 0 C0.99 1.32 1.98 2.64 3 4 C-2.445 6.475 -2.445 6.475 -8 9 C-8 6 -8 6 -6 4 C-6.66 3.67 -7.32 3.34 -8 3 C-2.25 0 -2.25 0 0 0 Z " fill="#312F30" transform="translate(79,399)"/>
<path d="M0 0 C1.32 0.66 2.64 1.32 4 2 C4 1.34 4 0.68 4 0 C4.66 0.33 5.32 0.66 6 1 C5.05016642 2.50539661 4.08988109 4.00420347 3.125 5.5 C2.59132813 6.3353125 2.05765625 7.170625 1.5078125 8.03125 C1.01023437 8.6809375 0.51265625 9.330625 0 10 C-0.66 10 -1.32 10 -2 10 C-3.06351675 6.61608307 -3.21442982 5.4195366 -1.5625 2.1875 C-1.046875 1.465625 -0.53125 0.74375 0 0 Z " fill="#2D2C2C" transform="translate(364,330)"/>
<path d="M0 0 C1.32 0.66 2.64 1.32 4 2 C3.25 8.625 3.25 8.625 1 12 C0.01 11.34 -0.98 10.68 -2 10 C-1.34 6.7 -0.68 3.4 0 0 Z " fill="#EDECEC" transform="translate(249,327)"/>
<path d="M0 0 C1.65 0 3.3 0 5 0 C5 1.32 5 2.64 5 4 C5.66 4 6.32 4 7 4 C7 4.66 7 5.32 7 6 C7.99 6.33 8.98 6.66 10 7 C9.071875 7.45375 8.14375 7.9075 7.1875 8.375 C3.96078611 9.9421633 3.96078611 9.9421633 1 12 C1.66 8.7 2.32 5.4 3 2 C2.01 1.67 1.02 1.34 0 1 C0 0.67 0 0.34 0 0 Z " fill="#333132" transform="translate(543,161)"/>
<path d="M0 0 C0.928125 0.0825 1.85625 0.165 2.8125 0.25 C1.966875 1.095625 1.12125 1.94125 0.25 2.8125 C-2.18177116 5.67461268 -2.1964273 6.06550241 -2 10.125 C-1.731875 11.15625 -1.46375 12.1875 -1.1875 13.25 C-2.5075 12.59 -3.8275 11.93 -5.1875 11.25 C-5.166875 10.46625 -5.14625 9.6825 -5.125 8.875 C-5.00065937 6.26885039 -5.00065937 6.26885039 -6.1875 4.25 C-4.36434338 1.00883268 -3.82500054 0.30000004 0 0 Z " fill="#2E2D2D" transform="translate(181.1875,434.75)"/>
<path d="M0 0 C0.99 0 1.98 0 3 0 C3.517487 2.84617849 3.34894002 4.49283192 1.69921875 6.890625 C0.18720079 8.6660733 -1.31852091 10.38373063 -3 12 C-3.33 12 -3.66 12 -4 12 C-4.61528766 6.92387682 -2.61658349 4.17017994 0 0 Z " fill="#1E1C1D" transform="translate(195,405)"/>
<path d="M0 0 C1 2 1 2 0.3125 4.9375 C-1.06192878 8.14450048 -2.06205603 9.23723362 -5 11 C-5.99 9.68 -6.98 8.36 -8 7 C-6.71034824 5.62437146 -5.37310707 4.29233607 -4 3 C-3.34 3 -2.68 3 -2 3 C-2 2.34 -2 1.68 -2 1 C-1.34 0.67 -0.68 0.34 0 0 Z " fill="#373737" transform="translate(458,224)"/>
<path d="M0 0 C0.66 0.33 1.32 0.66 2 1 C2.625 3.0625 2.625 3.0625 3 5 C-0.08559304 7.26881841 -1.42209376 8.05451946 -5.3125 7.6875 C-6.199375 7.460625 -7.08625 7.23375 -8 7 C-5.42215154 4.35247996 -3.08351902 2.05567935 0 0 Z " fill="#202020" transform="translate(488,202)"/>
<path d="M0 0 C2.64 0 5.28 0 8 0 C2 6 2 6 -0.5625 6.0625 C-1.7690625 6.0315625 -1.7690625 6.0315625 -3 6 C-3.33 6.66 -3.66 7.32 -4 8 C-4 7.01 -4 6.02 -4 5 C-2.68 4.34 -1.36 3.68 0 3 C0 2.01 0 1.02 0 0 Z " fill="#1E1C1D" transform="translate(514,184)"/>
<path d="M0 0 C3.125 -0.1875 3.125 -0.1875 6 0 C6 0.99 6 1.98 6 3 C5.34 3 4.68 3 4 3 C3.67 3.99 3.34 4.98 3 6 C0.66682784 6.77772405 -1.61435923 7.42415568 -4 8 C-2.87548273 5.0280615 -1.77706209 2.66559313 0 0 Z " fill="#3C3A3B" transform="translate(397,282)"/>
<path d="M0 0 C0.66 0.33 1.32 0.66 2 1 C1.01 2.32 0.02 3.64 -1 5 C-0.01 5.66 0.98 6.32 2 7 C1.401875 7.268125 0.80375 7.53625 0.1875 7.8125 C-1.97224808 8.98493467 -3.35790256 10.19369282 -5 12 C-5.33 9.36 -5.66 6.72 -6 4 C-4.02 2.68 -2.04 1.36 0 0 Z " fill="#E7E6E7" transform="translate(361,237)"/>
<path d="M0 0 C0.99 0 1.98 0 3 0 C5.29013653 3.4352048 5.17842973 4.985331 5 9 C4.01 9.495 4.01 9.495 3 10 C2.01 9.67 1.02 9.34 0 9 C0 6.03 0 3.06 0 0 Z " fill="#262425" transform="translate(542,119)"/>
<path d="M0 0 C-0.47202486 4.24822374 -2.96655518 6.19989709 -6 9 C-6.66 8.67 -7.32 8.34 -8 8 C-7.8125 5.6875 -7.8125 5.6875 -7 3 C-2.96551724 0 -2.96551724 0 0 0 Z " fill="#242323" transform="translate(210,392)"/>
<path d="M0 0 C1.46067199 0.45082469 2.91848032 0.91093537 4.375 1.375 C5.18710937 1.63023437 5.99921875 1.88546875 6.8359375 2.1484375 C9 3 9 3 11 5 C8.24075815 6.80411967 7.11027897 7.0127245 3.75 6.625 C2.8425 6.41875 1.935 6.2125 1 6 C1.33 5.01 1.66 4.02 2 3 C1.34 2.67 0.68 2.34 0 2 C0 1.34 0 0.68 0 0 Z " fill="#2F2D2D" transform="translate(387,254)"/>
<path d="M0 0 C3.3 0.33 6.6 0.66 10 1 C7.16569547 4.2542015 5.31392226 5.5206753 1 6 C0.67 5.01 0.34 4.02 0 3 C-0.66 2.67 -1.32 2.34 -2 2 C-1.34 2 -0.68 2 0 2 C0 1.34 0 0.68 0 0 Z " fill="#1F1B1C" transform="translate(357,344)"/>
<path d="M0 0 C2.5 2.3125 2.5 2.3125 5 5 C5 8 5 8 4 11 C-0.875 6.25 -0.875 6.25 -2 4 C-1.0625 1.875 -1.0625 1.875 0 0 Z " fill="#312F30" transform="translate(297,181)"/>
<path d="M0 0 C3.73487777 0.4979837 5.81237635 0.87491756 9 3 C9 3.66 9 4.32 9 5 C9.99 5.33 10.98 5.66 12 6 C10.02 6.99 10.02 6.99 8 8 C7.01 7.34 6.02 6.68 5 6 C5 5.01 5 4.02 5 3 C2.03 2.505 2.03 2.505 -1 2 C-0.67 1.34 -0.34 0.68 0 0 Z " fill="#1F1C1D" transform="translate(378,251)"/>
<path d="M0 0 C-0.75 1.9375 -0.75 1.9375 -2 4 C-4.125 4.75 -4.125 4.75 -6 5 C-6.66 4.01 -7.32 3.02 -8 2 C-8 2.66 -8 3.32 -8 4 C-9.32 3.67 -10.64 3.34 -12 3 C-4.71428571 -1.71428571 -4.71428571 -1.71428571 0 0 Z " fill="#2D2A2B" transform="translate(142,457)"/>
<path d="M0 0 C3 2 3 2 3.51171875 4.1640625 C3.59873047 5.38222656 3.59873047 5.38222656 3.6875 6.625 C3.78611328 7.85089844 3.78611328 7.85089844 3.88671875 9.1015625 C3.92410156 9.72804688 3.96148437 10.35453125 4 11 C3.34 11 2.68 11 2 11 C2 10.34 2 9.68 2 9 C0.68 8.67 -0.64 8.34 -2 8 C-2 7.34 -2 6.68 -2 6 C-2.99 6.33 -3.98 6.66 -5 7 C-5 6.34 -5 5.68 -5 5 C-4.01 5 -3.02 5 -2 5 C-1.67 4.34 -1.34 3.68 -1 3 C-0.67 3 -0.34 3 0 3 C0 2.01 0 1.02 0 0 Z " fill="#383637" transform="translate(355,437)"/>
<path d="M0 0 C0 1.65 0 3.3 0 5 C-3.09097736 5.99352844 -4.91625179 5.96367132 -8 5 C-9.33217297 4.66205906 -10.66536848 4.32809692 -12 4 C-10.56570999 3.32645501 -9.12742943 2.66140299 -7.6875 2 C-6.88699219 1.62875 -6.08648437 1.2575 -5.26171875 0.875 C-3 0 -3 0 0 0 Z " fill="#312E2F" transform="translate(382,276)"/>
<path d="M0 0 C1.24546405 2.49092811 0.7767578 3.41080733 0 6 C0.66 6.33 1.32 6.66 2 7 C0.75 8.5 0.75 8.5 -1 10 C-2.32 10 -3.64 10 -5 10 C-4.49701212 5.59885603 -2.91227269 3.28804981 0 0 Z " fill="#2D2C2D" transform="translate(225,367)"/>
<path d="M0 0 C0.66 0.33 1.32 0.66 2 1 C1.01 2.485 1.01 2.485 0 4 C0.99 4.33 1.98 4.66 3 5 C1.02 5.66 -0.96 6.32 -3 7 C-3 6.34 -3 5.68 -3 5 C-5.31 5 -7.62 5 -10 5 C-6.76527494 2.84351662 -3.62848922 1.38542316 0 0 Z " fill="#393537" transform="translate(317,301)"/>
<path d="M0 0 C0.33 0.66 0.66 1.32 1 2 C1.66 2 2.32 2 3 2 C3 2.66 3 3.32 3 4 C3.66 4 4.32 4 5 4 C5.33 5.98 5.66 7.96 6 10 C4.0625 9.1875 4.0625 9.1875 2 8 C1.67 7.01 1.34 6.02 1 5 C0.01 5 -0.98 5 -2 5 C-1.34 3.35 -0.68 1.7 0 0 Z " fill="#2C292A" transform="translate(552,162)"/>
<path d="M0 0 C1.32 0.66 2.64 1.32 4 2 C2.70700306 4.88437779 1.34058637 6.87219421 -1 9 C-1 8.01 -1 7.02 -1 6 C-2.32 6.33 -3.64 6.66 -5 7 C-3.35 4.69 -1.7 2.38 0 0 Z " fill="#312F30" transform="translate(246,341)"/>
<path d="M0 0 C2.2636564 1.40445835 4.0208685 3.1967913 6 5 C5.01 5.33 4.02 5.66 3 6 C2.67 6.66 2.34 7.32 2 8 C0.29115995 6.37660195 -1.37446717 4.70680947 -3 3 C-3 2.34 -3 1.68 -3 1 C-2.01 0.67 -1.02 0.34 0 0 Z " fill="#1C1A1B" transform="translate(310,196)"/>
<path d="M0 0 C1.98 0 3.96 0 6 0 C5.01 1.485 5.01 1.485 4 3 C3.01 3 2.02 3 1 3 C0.67 4.32 0.34 5.64 0 7 C-2 7 -2 7 -5 6 C-4.67 5.01 -4.34 4.02 -4 3 C-3.01 3 -2.02 3 -1 3 C-0.67 2.01 -0.34 1.02 0 0 Z " fill="#151314" transform="translate(355,435)"/>
<path d="M0 0 C1.67542976 0.28604898 3.34385343 0.61781233 5 1 C4.67 1.99 4.34 2.98 4 4 C2.35448038 4.71727778 0.68577711 5.38325228 -1 6 C-1.66 6.66 -2.32 7.32 -3 8 C-3.33 7.34 -3.66 6.68 -4 6 C-1.68421053 1.68421053 -1.68421053 1.68421053 0 0 Z " fill="#211F20" transform="translate(448,232)"/>
<path d="M0 0 C0.66 0 1.32 0 2 0 C2.66 2.97 3.32 5.94 4 9 C1.36 7.35 -1.28 5.7 -4 4 C-3.67 3.34 -3.34 2.68 -3 2 C-2.01 2 -1.02 2 0 2 C0 1.34 0 0.68 0 0 Z " fill="#313031" transform="translate(412,269)"/>
<path d="M0 0 C0.33 0.99 0.66 1.98 1 3 C0.34 3 -0.32 3 -1 3 C-1 3.99 -1 4.98 -1 6 C-4.33333333 9 -4.33333333 9 -7 9 C-6.7215625 7.824375 -6.7215625 7.824375 -6.4375 6.625 C-5.74037734 4.02910225 -5.74037734 4.02910225 -7 2 C-4.69 2 -2.38 2 0 2 C0 1.34 0 0.68 0 0 Z " fill="#DFDFDF" transform="translate(345,230)"/>
<path d="M0 0 C2.31 0.66 4.62 1.32 7 2 C6.67 3.32 6.34 4.64 6 6 C2.87819599 6.96661363 0.47916205 6.98988909 -2.75 6.5625 C-3.94882812 6.40974609 -3.94882812 6.40974609 -5.171875 6.25390625 C-5.77515625 6.17011719 -6.3784375 6.08632812 -7 6 C-7 5.67 -7 5.34 -7 5 C-4.03 5 -1.06 5 2 5 C2 4.34 2 3.68 2 3 C1.34 2.67 0.68 2.34 0 2 C0 1.34 0 0.68 0 0 Z " fill="#DCDCDC" transform="translate(479,208)"/>
<path d="M0 0 C0.99 0 1.98 0 3 0 C3.20086443 3.71599191 3.1519437 4.77208445 1 8 C0.01 8 -0.98 8 -2 8 C-1.125 1.125 -1.125 1.125 0 0 Z " fill="#1F1D1E" transform="translate(227,365)"/>
<path d="M0 0 C0.66 0.66 1.32 1.32 2 2 C1.67 2.33 1.34 2.66 1 3 C1.99 3.66 2.98 4.32 4 5 C-1.75 8.875 -1.75 8.875 -4 10 C-3.71872579 8.51882199 -3.42466268 7.04006751 -3.125 5.5625 C-2.96257812 4.73878906 -2.80015625 3.91507812 -2.6328125 3.06640625 C-2.42398438 2.38449219 -2.21515625 1.70257813 -2 1 C-1.34 0.67 -0.68 0.34 0 0 Z " fill="#332F30" transform="translate(255,329)"/>
<path d="M0 0 C0 0.99 0 1.98 0 3 C-2.31 3.66 -4.62 4.32 -7 5 C-7.66 4.34 -8.32 3.68 -9 3 C-7.01532024 -0.96935951 -3.9567243 -1.41311582 0 0 Z " fill="#1E1B1C" transform="translate(303,310)"/>
<path d="M0 0 C0.66 0 1.32 0 2 0 C0.6302836 3.99500618 -1.25722422 6.80009492 -4 10 C-4.6875 7.6875 -4.6875 7.6875 -5 5 C-3.6875 3.3125 -3.6875 3.3125 -2 2 C-1.34 1.34 -0.68 0.68 0 0 Z " fill="#1C1A1B" transform="translate(397,287)"/>
<path d="M0 0 C-1 3 -1 3 -4.3125 4.75 C-8.97563098 6.33072237 -8.97563098 6.33072237 -12 5 C-11.67 4.01 -11.34 3.02 -11 2 C-9.88625 1.855625 -8.7725 1.71125 -7.625 1.5625 C-4.88109566 1.13672174 -2.67649104 0 0 0 Z " fill="#1D1A1B" transform="translate(393,274)"/>
<path d="M0 0 C1.32 0.33 2.64 0.66 4 1 C4 2.65 4 4.3 4 6 C3.236875 5.979375 2.47375 5.95875 1.6875 5.9375 C-1.10185786 5.87057159 -1.10185786 5.87057159 -4 7 C-2.79618552 4.50638429 -1.54571278 2.31856917 0 0 Z " fill="#161314" transform="translate(349,239)"/>
<path d="M0 0 C0.33 0.99 0.66 1.98 1 3 C1.99 2.01 2.98 1.02 4 0 C4.99 0.33 5.98 0.66 7 1 C3.535 3.97 3.535 3.97 0 7 C-0.33 6.01 -0.66 5.02 -1 4 C-1.99 3.67 -2.98 3.34 -4 3 C-2.68 2.01 -1.36 1.02 0 0 Z " fill="#323132" transform="translate(444,236)"/>
<path d="M0 0 C4.6302521 1.46218487 4.6302521 1.46218487 6.375 4 C7 6 7 6 6 8 C6.99 7.67 7.98 7.34 9 7 C9 7.66 9 8.32 9 9 C6.625 8.75 6.625 8.75 4 8 C2.8125 6.1875 2.8125 6.1875 2 4 C1.62875 3.2575 1.2575 2.515 0.875 1.75 C0.58625 1.1725 0.2975 0.595 0 0 Z " fill="#171617" transform="translate(316,205)"/>
<path d="M0 0 C1.42944945 2.35438733 2.08661261 3.48032433 1.625 6.25 C1.41875 6.8275 1.2125 7.405 1 8 C0.34 8 -0.32 8 -1 8 C-1 6.68 -1 5.36 -1 4 C-1.99 4.33 -2.98 4.66 -4 5 C-4.99 4.67 -5.98 4.34 -7 4 C-7 3.34 -7 2.68 -7 2 C-4.69 2 -2.38 2 0 2 C0 1.34 0 0.68 0 0 Z " fill="#171516" transform="translate(549,157)"/>
<path d="M0 0 C0.66 0.33 1.32 0.66 2 1 C2.59355614 3.64860427 2.74209269 6.29197322 3 9 C0.36 7.68 -2.28 6.36 -5 5 C-3.35 3.35 -1.7 1.7 0 0 Z " fill="#343334" transform="translate(360,349)"/>
<path d="M0 0 C0 0.99 0 1.98 0 3 C-2.31 3.66 -4.62 4.32 -7 5 C-7 4.34 -7 3.68 -7 3 C-5.68 3 -4.36 3 -3 3 C-3 2.34 -3 1.68 -3 1 C-3.78375 1.20625 -4.5675 1.4125 -5.375 1.625 C-6.24125 1.74875 -7.1075 1.8725 -8 2 C-8.66 1.34 -9.32 0.68 -10 0 C-6.30581799 -1.231394 -3.7943739 -0.64432764 0 0 Z " fill="#484647" transform="translate(248,331)"/>
<path d="M0 0 C2.97 0 5.94 0 9 0 C8 3 8 3 7 5 C3.34683329 3.75023244 2.21934164 3.32901247 0 0 Z " fill="#414041" transform="translate(83,482)"/>
<path d="M0 0 C0.33 0.99 0.66 1.98 1 3 C-2.96 4.98 -2.96 4.98 -7 7 C-6.625 4.0625 -6.625 4.0625 -6 1 C-4 0 -4 0 0 0 Z " fill="#282526" transform="translate(174,441)"/>
<path d="M0 0 C1.32 0 2.64 0 4 0 C4.66 0.99 5.32 1.98 6 3 C5.67 3.99 5.34 4.98 5 6 C4.01 6.33 3.02 6.66 2 7 C1.34 6.34 0.68 5.68 0 5 C0 3.33333333 0 1.66666667 0 0 Z " fill="#F3F3F3" transform="translate(297,177)"/>
<path d="M0 0 C0.66 0 1.32 0 2 0 C4 2 4 2 4 5 C0.66666667 8 0.66666667 8 -2 8 C-1.47731534 5.23723823 -0.89130413 2.6739124 0 0 Z " fill="#2A2829" transform="translate(533,95)"/>
<path d="M0 0 C0.99 0.33 1.98 0.66 3 1 C2.67 1.33 2.34 1.66 2 2 C1.92851801 3.35243917 1.91600546 4.70834367 1.9375 6.0625 C1.958125 7.361875 1.97875 8.66125 2 10 C-2.875 8.25 -2.875 8.25 -4 6 C-2.68 5.67 -1.36 5.34 0 5 C0 4.01 0 3.02 0 2 C-0.66 1.67 -1.32 1.34 -2 1 C-1.34 0.67 -0.68 0.34 0 0 Z " fill="#373536" transform="translate(99,485)"/>
<path d="M0 0 C2.62386487 3.06117568 3 3.73173127 3 8 C1.35 8 -0.3 8 -2 8 C-1.125 2.25 -1.125 2.25 0 0 Z " fill="#343233" transform="translate(179,342)"/>
<path d="M0 0 C2 2 2 2 2 6 C1.01 6 0.02 6 -1 6 C-1 6.66 -1 7.32 -1 8 C-1.99 7.67 -2.98 7.34 -4 7 C-2.92598892 4.08482708 -2.22189824 2.22189824 0 0 Z " fill="#1D1B1C" transform="translate(369,324)"/>
<path d="M0 0 C0.33 0.66 0.66 1.32 1 2 C0.01 2.99 -0.98 3.98 -2 5 C-1.01 5.33 -0.02 5.66 1 6 C-1.475 7.485 -1.475 7.485 -4 9 C-4.99 8.01 -5.98 7.02 -7 6 C-2.25 1.125 -2.25 1.125 0 0 Z " fill="#363435" transform="translate(513,185)"/>
<path d="M0 0 C1.65 0.33 3.3 0.66 5 1 C2.47211993 3.79872437 0.79588866 5.45773019 -3 6 C-2.67 4.68 -2.34 3.36 -2 2 C-1.34 2 -0.68 2 0 2 C0 1.34 0 0.68 0 0 Z " fill="#1C1A1B" transform="translate(125,464)"/>
<path d="M0 0 C1.60875 0.5878125 1.60875 0.5878125 3.25 1.1875 C1.6875 2.8125 1.6875 2.8125 -0.75 4.1875 C-4.5 3.375 -4.5 3.375 -7.75 2.1875 C-4.89394414 -0.7827981 -4.16493458 -0.90240249 0 0 Z " fill="#353132" transform="translate(61.75,408.8125)"/>
<path d="M0 0 C0.66 0.33 1.32 0.66 2 1 C1.67 2.65 1.34 4.3 1 6 C-0.32 6.33 -1.64 6.66 -3 7 C-3.99 5.68 -4.98 4.36 -6 3 C-4.03533587 1.93224776 -2.03144641 0.93446535 0 0 Z " fill="#343031" transform="translate(89,393)"/>
<path d="M0 0 C0.66 0.99 1.32 1.98 2 3 C1.34 3 0.68 3 0 3 C0 3.66 0 4.32 0 5 C-0.66 5 -1.32 5 -2 5 C-2 5.99 -2 6.98 -2 8 C-4 9.6875 -4 9.6875 -6 11 C-6.66 10.67 -7.32 10.34 -8 10 C-5.36 6.7 -2.72 3.4 0 0 Z " fill="#DCDBDB" transform="translate(244,351)"/>
<path d="M0 0 C0.495 0.391875 0.99 0.78375 1.5 1.1875 C1.17 2.1775 0.84 3.1675 0.5 4.1875 C-0.49 4.5175 -1.48 4.8475 -2.5 5.1875 C-2.83 4.1975 -3.16 3.2075 -3.5 2.1875 C-6.5745356 2.9638932 -6.5745356 2.9638932 -8.5 5.1875 C-8.5 4.5275 -8.5 3.8675 -8.5 3.1875 C-9.16 2.8575 -9.82 2.5275 -10.5 2.1875 C-3.28774617 -1.06851751 -3.28774617 -1.06851751 0 0 Z " fill="#383536" transform="translate(344.5,291.8125)"/>
<path d="M0 0 C0.33 0.66 0.66 1.32 1 2 C3.64 2 6.28 2 9 2 C7.35 3.65 5.7 5.3 4 7 C3.01 6.67 2.02 6.34 1 6 C0.67 4.02 0.34 2.04 0 0 Z " fill="#302E2F" transform="translate(411,262)"/>
<path d="M0 0 C0.66 0.33 1.32 0.66 2 1 C2.40729228 3.32156597 2.74438677 5.6568787 3 8 C2.01 8.33 1.02 8.66 0 9 C-0.66 8.67 -1.32 8.34 -2 8 C-1.34 5.36 -0.68 2.72 0 0 Z " fill="#353434" transform="translate(537,82)"/>
<path d="M0 0 C2.125 0.9375 2.125 0.9375 4 2 C-1.75 7 -1.75 7 -4 7 C-3.39816251 4.97954558 -2.72693904 2.97888961 -2 1 C-1.34 0.67 -0.68 0.34 0 0 Z " fill="#414041" transform="translate(91,489)"/>
<path d="M0 0 C0 3 0 3 -1 5 C-3.0625 5.625 -3.0625 5.625 -5 6 C-5.66 4.35 -6.32 2.7 -7 1 C-3.375 -1.125 -3.375 -1.125 0 0 Z " fill="#373536" transform="translate(113,384)"/>
<path d="M0 0 C2.97 0 5.94 0 9 0 C8.67 1.65 8.34 3.3 8 5 C4.35446828 3.7191375 2.83328987 2.83328987 0 0 Z " fill="#333333" transform="translate(458,214)"/>
<path d="M0 0 C0.66 0.33 1.32 0.66 2 1 C2 1.99 2 2.98 2 4 C0.1875 5.75 0.1875 5.75 -2 7 C-2.99 6.67 -3.98 6.34 -5 6 C-4.67 5.01 -4.34 4.02 -4 3 C-3.34 3 -2.68 3 -2 3 C-1.34 2.01 -0.68 1.02 0 0 Z " fill="#1C1B1B" transform="translate(506,191)"/>
<path d="M0 0 C0.99 0.495 0.99 0.495 2 1 C2 2.32 2 3.64 2 5 C2.99 5 3.98 5 5 5 C4.25 9.75 4.25 9.75 2 12 C1.34 8.04 0.68 4.08 0 0 Z " fill="#272425" transform="translate(538,105)"/>
<path d="M0 0 C0.99 0 1.98 0 3 0 C3 1.65 3 3.3 3 5 C1.02 5.99 1.02 5.99 -1 7 C-1.04254356 5.00045254 -1.04080783 2.99958364 -1 1 C-0.67 0.67 -0.34 0.34 0 0 Z " fill="#1F1D1E" transform="translate(354,360)"/>
<path d="M0 0 C0.66 0.33 1.32 0.66 2 1 C2.59355614 3.64860427 2.74209269 6.29197322 3 9 C1.02 8.01 -0.96 7.02 -3 6 C-2.01 4.02 -1.02 2.04 0 0 Z " fill="#383637" transform="translate(262,329)"/>
<path d="M0 0 C0.66 0.33 1.32 0.66 2 1 C2.6328125 3.28515625 2.6328125 3.28515625 3.125 6.0625 C3.29257812 6.98160156 3.46015625 7.90070313 3.6328125 8.84765625 C3.75398438 9.55792969 3.87515625 10.26820313 4 11 C2.68 10.34 1.36 9.68 0 9 C0 6 0 3 0 0 Z " fill="#494647" transform="translate(473,217)"/>
<path d="M0 0 C-1.98 0.99 -1.98 0.99 -4 2 C-4 2.99 -4 3.98 -4 5 C-4.99 5.33 -5.98 5.66 -7 6 C-7.33 4.35 -7.66 2.7 -8 1 C-2.25 -1.125 -2.25 -1.125 0 0 Z " fill="#1F1B1D" transform="translate(75,403)"/>
<path d="M0 0 C1.9375 0.3125 1.9375 0.3125 4 1 C4.33 1.99 4.66 2.98 5 4 C3.02 4.33 1.04 4.66 -1 5 C-1 2 -1 2 0 0 Z " fill="#1F1D1D" transform="translate(113,382)"/>
<path d="M0 0 C2.12508244 3.18762365 2.5020163 5.26512223 3 9 C2.01 8.67 1.02 8.34 0 8 C0 7.34 0 6.68 0 6 C-0.99 5.67 -1.98 5.34 -3 5 C-2.01 3.35 -1.02 1.7 0 0 Z " fill="#5A5959" transform="translate(184,355)"/>
<path d="M0 0 C0.99 0.33 1.98 0.66 3 1 C3 1.66 3 2.32 3 3 C4.32 3.33 5.64 3.66 7 4 C6.67 4.66 6.34 5.32 6 6 C3.36 5.67 0.72 5.34 -2 5 C-1.125 1.125 -1.125 1.125 0 0 Z " fill="#D3D2D2" transform="translate(361,340)"/>
<path d="M0 0 C1.9451 2.91765 2.45276317 4.62537285 3 8 C1.35 7.67 -0.3 7.34 -2 7 C-1.34 4.69 -0.68 2.38 0 0 Z " fill="#434343" transform="translate(356,336)"/>
<path d="M0 0 C-0.33 1.32 -0.66 2.64 -1 4 C-2.98 4 -4.96 4 -7 4 C-7.33 3.34 -7.66 2.68 -8 2 C-4.77208445 -0.1519437 -3.71599191 -0.20086443 0 0 Z " fill="#181617" transform="translate(223,338)"/>
<path d="M0 0 C2 1 2 1 5 3 C4.34 4.32 3.68 5.64 3 7 C0.525 6.01 0.525 6.01 -2 5 C-1.34 3.35 -0.68 1.7 0 0 Z " fill="#121011" transform="translate(463,97)"/>
<path d="M0 0 C2.6855594 2.6855594 3.06049974 5.37621328 4 9 C0.125 8.125 0.125 8.125 -1 7 C-1.33 6.34 -1.66 5.68 -2 5 C-1.0625 2.375 -1.0625 2.375 0 0 Z " fill="#343333" transform="translate(173,427)"/>
<path d="M0 0 C0.99 0.99 1.98 1.98 3 3 C2.34 4.32 1.68 5.64 1 7 C-0.32 6.67 -1.64 6.34 -3 6 C-3.33 4.68 -3.66 3.36 -4 2 C-2.68 2 -1.36 2 0 2 C0 1.34 0 0.68 0 0 Z " fill="#E4E4E4" transform="translate(172,353)"/>
<path d="M0 0 C0.66 0.66 1.32 1.32 2 2 C2.66 1.67 3.32 1.34 4 1 C3.50168276 4.68754757 2.89932357 6.60490662 0 9 C-0.66 8.34 -1.32 7.68 -2 7 C-1.34 6.67 -0.68 6.34 0 6 C0.33 5.01 0.66 4.02 1 3 C0.34 2.67 -0.32 2.34 -1 2 C-0.67 1.34 -0.34 0.68 0 0 Z " fill="#312F30" transform="translate(377,311)"/>
<path d="M0 0 C0.66 0.33 1.32 0.66 2 1 C1.505 1.433125 1.01 1.86625 0.5 2.3125 C-1.33218192 3.99740483 -1.33218192 3.99740483 -1 7 C-3.46800047 5.84826645 -5.04783565 4.95216435 -7 3 C-4.69631264 1.93347808 -2.35981813 0.93578995 0 0 Z " fill="#424041" transform="translate(297,309)"/>
<path d="M0 0 C4.75 0.75 4.75 0.75 7 3 C7 3.99 7 4.98 7 6 C6.34 6 5.68 6 5 6 C4.34 5.34 3.68 4.68 3 4 C1.68252676 3.30251417 0.35085807 2.63040043 -1 2 C-0.67 1.34 -0.34 0.68 0 0 Z " fill="#1E1C1D" transform="translate(328,218)"/>
<path d="M0 0 C0.66 0.33 1.32 0.66 2 1 C2 2.65 2 4.3 2 6 C1.34 6 0.68 6 0 6 C0 6.66 0 7.32 0 8 C-0.66 8 -1.32 8 -2 8 C-2.6875 6.25 -2.6875 6.25 -3 4 C-1.5625 1.75 -1.5625 1.75 0 0 Z " fill="#131112" transform="translate(469,211)"/>
<path d="M0 0 C0.99 0.99 1.98 1.98 3 3 C1.68 2.67 0.36 2.34 -1 2 C-1 2.66 -1 3.32 -1 4 C-0.01 4.33 0.98 4.66 2 5 C-0.86177057 6.43088528 -2.93375773 5.59991697 -6 5 C-2.25 1.125 -2.25 1.125 0 0 Z " fill="#2D2C2C" transform="translate(522,179)"/>
<path d="M0 0 C1.64826111 2.96687001 2.44271087 5.65626525 3 9 C1.35 8.01 -0.3 7.02 -2 6 C-1.49396008 3.83125748 -1.00016187 2.00032373 0 0 Z " fill="#373637" transform="translate(289,172)"/>
<path d="M0 0 C0.33 1.65 0.66 3.3 1 5 C-1.95409701 3.62845496 -4.44008376 2.01136276 -7 0 C-4.3333581 -1.33332095 -2.83319697 -0.67102033 0 0 Z " fill="#3A3839" transform="translate(470,107)"/>
<path d="M0 0 C0.66 0 1.32 0 2 0 C2.66 2.31 3.32 4.62 4 7 C2.35 7 0.7 7 -1 7 C-0.67 4.69 -0.34 2.38 0 0 Z " fill="#4B4B4B" transform="translate(463,91)"/>
<path d="M0 0 C2.64 0 5.28 0 8 0 C7.67 1.65 7.34 3.3 7 5 C3.535 3.02 3.535 3.02 0 1 C0 0.67 0 0.34 0 0 Z " fill="#303030" transform="translate(162,435)"/>
<path d="M0 0 C0.99 0.33 1.98 0.66 3 1 C2.01 1.33 1.02 1.66 0 2 C-0.33 2.99 -0.66 3.98 -1 5 C-4.3 4.67 -7.6 4.34 -11 4 C-7.51852477 1.67901651 -6.05234873 2 -2 2 C-1.34 1.34 -0.68 0.68 0 0 Z " fill="#DEDDDE" transform="translate(193,346)"/>
<path d="M0 0 C0.33 0.99 0.66 1.98 1 3 C1.66 3 2.32 3 3 3 C2.67 4.32 2.34 5.64 2 7 C-0.475 6.01 -0.475 6.01 -3 5 C-2.01 3.35 -1.02 1.7 0 0 Z " fill="#323132" transform="translate(201,397)"/>
<path d="M0 0 C0 0.66 0 1.32 0 2 C-0.99 2.66 -1.98 3.32 -3 4 C-3 4.33 -3 4.66 -3 5 C-5.31 5 -7.62 5 -10 5 C-3.63636364 0 -3.63636364 0 0 0 Z " fill="#312E2F" transform="translate(125,377)"/>
<path d="M0 0 C0.66 0 1.32 0 2 0 C3.125 4.75 3.125 4.75 2 7 C1.01 7 0.02 7 -1 7 C-0.67 4.69 -0.34 2.38 0 0 Z " fill="#413F40" transform="translate(257,317)"/>
<path d="M0 0 C0.99 1.32 1.98 2.64 3 4 C2.34 4.66 1.68 5.32 1 6 C-0.9375 5.625 -0.9375 5.625 -3 5 C-3.99 5 -4.98 5 -6 5 C-4.02 3.35 -2.04 1.7 0 0 Z " fill="#3E3C3D" transform="translate(429,248)"/>
<path d="M0 0 C0.66 0.33 1.32 0.66 2 1 C2.625 3.0625 2.625 3.0625 3 5 C1.02 5.99 1.02 5.99 -1 7 C-1 6.34 -1 5.68 -1 5 C-1.99 4.34 -2.98 3.68 -4 3 C-2.68 2.01 -1.36 1.02 0 0 Z " fill="#2E2D2E" transform="translate(488,202)"/>
<path d="M0 0 C-0.66 1.98 -1.32 3.96 -2 6 C-3.32 5.67 -4.64 5.34 -6 5 C-4.87312259 1.61936778 -3.78825335 0 0 0 Z " fill="#353535" transform="translate(541,167)"/>
<path d="M0 0 C0.99 0 1.98 0 3 0 C2.60196439 2.88575819 2.20990931 3.82189513 -0.0625 5.75 C-0.701875 6.1625 -1.34125 6.575 -2 7 C-1.125 1.125 -1.125 1.125 0 0 Z " fill="#393939" transform="translate(546,166)"/>
<path d="M0 0 C1.32 0.33 2.64 0.66 4 1 C4 1.99 4 2.98 4 4 C2.125 4.625 2.125 4.625 0 5 C-0.66 4.34 -1.32 3.68 -2 3 C-1.34 2.01 -0.68 1.02 0 0 Z " fill="#161415" transform="translate(95,486)"/>
<path d="M0 0 C0 0.99 0 1.98 0 3 C-5.75 4.125 -5.75 4.125 -8 3 C-3.375 0 -3.375 0 0 0 Z " fill="#191718" transform="translate(153,450)"/>
<path d="M0 0 C1.1875 1.6875 1.1875 1.6875 2 4 C0.625 6.75 0.625 6.75 -1 9 C-1.66 8.67 -2.32 8.34 -3 8 C-2.01 5.36 -1.02 2.72 0 0 Z " fill="#3C3A3B" transform="translate(347,439)"/>
<path d="M0 0 C0.33 1.32 0.66 2.64 1 4 C-2.3125 4.6875 -2.3125 4.6875 -6 5 C-6.99 4.01 -7.98 3.02 -9 2 C-6.03 2 -3.06 2 0 2 C0 1.34 0 0.68 0 0 Z " fill="#474646" transform="translate(349,432)"/>
<path d="M0 0 C2.64 0 5.28 0 8 0 C7.67 0.99 7.34 1.98 7 3 C4.625 3.1875 4.625 3.1875 2 3 C1.34 2.01 0.68 1.02 0 0 Z " fill="#252223" transform="translate(33,416)"/>
<path d="M0 0 C0.33 0.66 0.66 1.32 1 2 C0.67 2.99 0.34 3.98 0 5 C0.66 5.33 1.32 5.66 2 6 C1.01 6.99 0.02 7.98 -1 9 C-1 7.68 -1 6.36 -1 5 C-1.66 5 -2.32 5 -3 5 C-1.125 1.125 -1.125 1.125 0 0 Z " fill="#343334" transform="translate(231,360)"/>
<path d="M0 0 C-0.75 4.75 -0.75 4.75 -3 7 C-3.66 5.35 -4.32 3.7 -5 2 C-2 0 -2 0 0 0 Z " fill="#201E1F" transform="translate(245,347)"/>
<path d="M0 0 C1 4 1 4 1 6 C-0.98 6.66 -2.96 7.32 -5 8 C-3.35 5.36 -1.7 2.72 0 0 Z " fill="#DEDCDD" transform="translate(399,288)"/>
<path d="M0 0 C0 1.32 0 2.64 0 4 C-1.98 4.33 -3.96 4.66 -6 5 C-5.34 4.34 -4.68 3.68 -4 3 C-4.33 2.34 -4.66 1.68 -5 1 C-3 0 -3 0 0 0 Z " fill="#171516" transform="translate(349,290)"/>
<path d="M0 0 C2.375 0.3125 2.375 0.3125 5 1 C5.66 1.99 6.32 2.98 7 4 C5.02 4 3.04 4 1 4 C0.67 2.68 0.34 1.36 0 0 Z " fill="#1C1A1B" transform="translate(337,228)"/>
<path d="M0 0 C2.04119788 1.61594832 4.04072937 3.2856382 6 5 C6 5.66 6 6.32 6 7 C5.01 7 4.02 7 3 7 C2.67 6.34 2.34 5.68 2 5 C1.34 5 0.68 5 0 5 C0 3.35 0 1.7 0 0 Z " fill="#403E3F" transform="translate(322,208)"/>
<path d="M0 0 C2.125 0.9375 2.125 0.9375 4 2 C2.02 3.32 0.04 4.64 -2 6 C-2 4.35 -2 2.7 -2 1 C-1.34 0.67 -0.68 0.34 0 0 Z " fill="#191819" transform="translate(496,198)"/>
<path d="M0 0 C0.66 0 1.32 0 2 0 C2 2.31 2 4.62 2 7 C0.02 7.99 0.02 7.99 -2 9 C-1.34 6.03 -0.68 3.06 0 0 Z " fill="#3E3C3D" transform="translate(459,103)"/>
<path d="M0 0 C-0.33 1.32 -0.66 2.64 -1 4 C-2.32 4 -3.64 4 -5 4 C-5.33 3.34 -5.66 2.68 -6 2 C-2.25 0 -2.25 0 0 0 Z " fill="#1C1A1B" transform="translate(210,392)"/>
<path d="M0 0 C1.32 0.33 2.64 0.66 4 1 C3.67 1.99 3.34 2.98 3 4 C1.35 4 -0.3 4 -2 4 C-1.34 2.68 -0.68 1.36 0 0 Z " fill="#181617" transform="translate(319,301)"/>
<path d="M0 0 C0.33 1.32 0.66 2.64 1 4 C-0.65 4.33 -2.3 4.66 -4 5 C-3.6875 3.0625 -3.6875 3.0625 -3 1 C-2.01 0.67 -1.02 0.34 0 0 Z " fill="#1A1718" transform="translate(341,293)"/>
<path d="M0 0 C0.66 0.33 1.32 0.66 2 1 C2.625 3.5625 2.625 3.5625 3 6 C1.35 6.33 -0.3 6.66 -2 7 C-1.34 4.69 -0.68 2.38 0 0 Z " fill="#555354" transform="translate(349,229)"/>
<path d="M0 0 C1.65 0 3.3 0 5 0 C4.34 1.32 3.68 2.64 3 4 C1.35 4 -0.3 4 -2 4 C-2 3.34 -2 2.68 -2 2 C-1.01 2 -0.02 2 1 2 C0.67 1.34 0.34 0.68 0 0 Z " fill="#1B191A" transform="translate(523,179)"/>
<path d="M0 0 C2.00720923 0.28674418 4.0085944 0.61866701 6 1 C3.94766315 3.2477975 2.99332739 4.0022242 0 5 C-0.5625 3.0625 -0.5625 3.0625 -1 1 C-0.67 0.67 -0.34 0.34 0 0 Z " fill="#1A1919" transform="translate(133,373)"/>
<path d="M0 0 C0.33 0.66 0.66 1.32 1 2 C1.99 2.33 2.98 2.66 4 3 C2.68 4.32 1.36 5.64 0 7 C-1.04449911 3.86650268 -0.93423645 3.01031744 0 0 Z " fill="#393838" transform="translate(174,356)"/>
<path d="M0 0 C0 0.99 0 1.98 0 3 C-2.64 2.67 -5.28 2.34 -8 2 C-4.91190305 0.23537317 -3.76687864 0 0 0 Z " fill="#171214" transform="translate(209,343)"/>
<path d="M0 0 C0.33 1.65 0.66 3.3 1 5 C-0.32 5.33 -1.64 5.66 -3 6 C-3 5.01 -3 4.02 -3 3 C-3.66 3 -4.32 3 -5 3 C-5 2.34 -5 1.68 -5 1 C-2 0 -2 0 0 0 Z " fill="#383536" transform="translate(225,336)"/>
<path d="M0 0 C2.97 0.495 2.97 0.495 6 1 C5.01 1.495 5.01 1.495 4 2 C4 2.66 4 3.32 4 4 C1.525 3.01 1.525 3.01 -1 2 C-0.67 1.34 -0.34 0.68 0 0 Z " fill="#1A1819" transform="translate(325,298)"/>
<path d="M0 0 C2.1875 0.3125 2.1875 0.3125 4 1 C2.75 2.5625 2.75 2.5625 1 4 C-1.1875 3.6875 -1.1875 3.6875 -3 3 C-1.75 1.4375 -1.75 1.4375 0 0 Z " fill="#1D191A" transform="translate(374,280)"/>
<path d="M0 0 C1.32 0.33 2.64 0.66 4 1 C3.67 2.32 3.34 3.64 3 5 C1.35 5.33 -0.3 5.66 -2 6 C-2 5.34 -2 4.68 -2 4 C-0.68 4 0.64 4 2 4 C1.34 3.67 0.68 3.34 0 3 C0 2.01 0 1.02 0 0 Z " fill="#313031" transform="translate(395,270)"/>
<path d="M0 0 C2.64 0 5.28 0 8 0 C6.8125 1.5625 6.8125 1.5625 5 3 C2.3125 2.6875 2.3125 2.6875 0 2 C0 1.34 0 0.68 0 0 Z " fill="#1A1A1A" transform="translate(554,159)"/>
<path d="M0 0 C0.99 0.33 1.98 0.66 3 1 C4.1875 4.0625 4.1875 4.0625 5 7 C3.68 6.67 2.36 6.34 1 6 C1 5.01 1 4.02 1 3 C0.34 2.34 -0.32 1.68 -1 1 C-0.67 0.67 -0.34 0.34 0 0 Z " fill="#D1D0D1" transform="translate(462,108)"/>
<path d="M0 0 C1.98 0 3.96 0 6 0 C6 0.66 6 1.32 6 2 C5.360625 2.12375 4.72125 2.2475 4.0625 2.375 C3.381875 2.58125 2.70125 2.7875 2 3 C1.67 3.66 1.34 4.32 1 5 C0.67 3.35 0.34 1.7 0 0 Z " fill="#DDDCDD" transform="translate(539,102)"/>
<path d="M0 0 C1.32 0 2.64 0 4 0 C4.33 1.32 4.66 2.64 5 4 C3.35 4 1.7 4 0 4 C0 2.68 0 1.36 0 0 Z " fill="#191718" transform="translate(481,97)"/>
</svg>
