<?xml version="1.0" encoding="UTF-8"?>
<svg version="1.1" xmlns="http://www.w3.org/2000/svg" width="500" height="500">
<path d="M0 0 C165 0 330 0 500 0 C500 165 500 330 500 500 C335 500 170 500 0 500 C0 335 0 170 0 0 Z " fill="#FEFEFE" transform="translate(0,0)"/>
<path d="M0 0 C2 2 2 2 2 6 C4.31 6 6.62 6 9 6 C8.319375 6.556875 7.63875 7.11375 6.9375 7.6875 C4.68866663 9.8414382 4.68866663 9.8414382 5.125 12.6875 C5.76330851 15.16427096 5.76330851 15.16427096 8 16 C8 16.66 8 17.32 8 18 C6.865625 18.268125 5.73125 18.53625 4.5625 18.8125 C2.7990625 19.4003125 2.7990625 19.4003125 1 20 C0.505 21.485 0.505 21.485 0 23 C-1.65 23.33 -3.3 23.66 -5 24 C-5 24.66 -5 25.32 -5 26 C-5.66 26 -6.32 26 -7 26 C-7 26.99 -7 27.98 -7 29 C-8.64583333 30.33723958 -10.29166667 31.67447917 -11.9375 33.01171875 C-16.1012752 37.02566113 -18.90166075 42.15309305 -22 47 C-23.17673998 48.71576282 -24.36364756 50.42461421 -25.5625 52.125 C-26.12195313 52.9190625 -26.68140625 53.713125 -27.2578125 54.53125 C-27.83273437 55.3459375 -28.40765625 56.160625 -29 57 C-30.31319115 58.874516 -31.62570724 60.74950513 -32.9375 62.625 C-33.95833333 64.08333333 -34.97916667 65.54166667 -36 67 C-37.485 66.505 -37.485 66.505 -39 66 C-38.3627377 62.15821871 -36.55283707 59.56187355 -34.375 56.375 C-33.28251953 54.77011719 -33.28251953 54.77011719 -32.16796875 53.1328125 C-29.79152287 49.69874115 -27.40587743 46.27172939 -25.00390625 42.85546875 C-22.36719722 39.09828688 -19.74062161 35.33439076 -17.125 31.5625 C-16.63604248 30.86350586 -16.14708496 30.16451172 -15.64331055 29.44433594 C-15.18609619 28.78336914 -14.72888184 28.12240234 -14.2578125 27.44140625 C-13.8467627 26.85045166 -13.43571289 26.25949707 -13.01220703 25.65063477 C-11.82653183 23.85685554 -11.82653183 23.85685554 -11 21 C-11.66 20.67 -12.32 20.34 -13 20 C-12.67 18.68 -12.34 17.36 -12 16 C-21.61221586 19.67614525 -31.19439985 23.4005554 -40.6875 27.375 C-51.06724595 31.71320151 -61.52783875 35.83136777 -72.03125 39.859375 C-77.69489255 42.03540609 -83.32948581 44.23441542 -88.859375 46.734375 C-102.75401663 53.00055402 -102.75401663 53.00055402 -110 54 C-110.66 53.67 -111.32 53.34 -112 53 C-112 52.34 -112 51.68 -112 51 C-103.97189437 47.44957639 -95.97051932 44.17379997 -87.64453125 41.37109375 C-84.75052619 40.2823523 -82.01126965 39.11004521 -79.2109375 37.8125 C-71.98510025 34.48417217 -64.61597169 31.52211144 -57.2409668 28.54370117 C-54.83312551 27.57083356 -52.42721509 26.59330758 -50.02148438 25.61523438 C-41.23616359 22.05341712 -32.41968751 18.6117451 -23.5222168 15.33959961 C-19.96460117 13.98653682 -16.4873881 12.52302458 -13 11 C-13.495 10.01 -13.495 10.01 -14 9 C-12.68 8.67 -11.36 8.34 -10 8 C-10 7.01 -10 6.02 -10 5 C-7.36 5 -4.72 5 -2 5 C-1.34 3.35 -0.68 1.7 0 0 Z " fill="#ECECEC" transform="translate(334,210)"/>
<path d="M0 0 C0.66 0 1.32 0 2 0 C2.495 2.475 2.495 2.475 3 5 C5.31 5.33 7.62 5.66 10 6 C10 6.66 10 7.32 10 8 C8.68 8.66 7.36 9.32 6 10 C6 12.31 6 14.62 6 17 C4.02 16.34 2.04 15.68 0 15 C-3.52940944 17.99173232 -3.52940944 17.99173232 -5.5 22 C-6.28495122 25.13980487 -8.73232485 26.73873977 -11 29 C-12.59411305 30.99599028 -14.15524009 33.01864257 -15.6875 35.0625 C-19.0216727 39.46962452 -22.43603208 43.77375143 -26 48 C-29.80892457 52.52568953 -33.45253004 57.1461932 -37.0324707 61.85449219 C-41.03453098 67.09519284 -45.19051511 72.20540848 -49.37182617 77.30371094 C-52.92382535 81.64156005 -56.35535875 86.04267433 -59.6328125 90.59375 C-60.30957031 91.28984375 -60.30957031 91.28984375 -61 92 C-61.99 92 -62.98 92 -64 92 C-63.5275845 87.20585754 -61.50252722 84.82161718 -58.375 81.25 C-57.4533095 80.18064975 -56.53274104 79.11033139 -55.61328125 78.0390625 C-54.93773193 77.25837402 -54.93773193 77.25837402 -54.24853516 76.46191406 C-52.62557606 74.56158573 -51.08660617 72.60522554 -49.5625 70.625 C-43.30953928 62.50350749 -37.01376127 54.41457014 -30.5 46.5 C-29.43652344 45.19095703 -29.43652344 45.19095703 -28.3515625 43.85546875 C-26.58065361 41.70507938 -24.78431542 39.59318509 -22.9609375 37.48828125 C-21.93168249 36.26353252 -20.90302937 35.03827769 -19.875 33.8125 C-19.37677734 33.25433594 -18.87855469 32.69617188 -18.36523438 32.12109375 C-16.44175834 29.7899393 -15.03056906 27.87392697 -14.92285156 24.79443359 C-15.18780399 22.33185985 -15.18780399 22.33185985 -16 19 C-23.10313035 18.34211238 -29.14985506 20.7396643 -35.8125 23 C-38.0682331 23.75233465 -40.32470694 24.50245321 -42.58203125 25.25 C-43.57436768 25.58515625 -44.5667041 25.9203125 -45.58911133 26.265625 C-48 27 -48 27 -50 27 C-50.33 25.68 -50.66 24.36 -51 23 C-47.04216459 21.72761246 -43.08364103 20.45737867 -39.125 19.1875 C-37.46210938 18.65286133 -37.46210938 18.65286133 -35.765625 18.10742188 C-34.66992188 17.75615234 -33.57421875 17.40488281 -32.4453125 17.04296875 C-31.36282227 16.69540527 -30.28033203 16.3478418 -29.16503906 15.98974609 C-25.40630924 14.8143457 -21.62330889 13.73958315 -17.82373047 12.7043457 C-15.79806733 12.15717002 -15.79806733 12.15717002 -15 10 C-12.9375 9.375 -12.9375 9.375 -11 9 C-11.495 8.01 -11.495 8.01 -12 7 C-9.24921116 6.08307039 -7.64051087 5.89113917 -4.8125 5.9375 C-2.9253125 5.9684375 -2.9253125 5.9684375 -1 6 C-0.67 4.02 -0.34 2.04 0 0 Z " fill="#EBEBEB" transform="translate(210,259)"/>
<path d="M0 0 C0 0.99 0 1.98 0 3 C-16.5810508 9.84785857 -16.5810508 9.84785857 -24.6328125 13.046875 C-27.3281245 14.13211613 -30.00773905 15.25191716 -32.6875 16.375 C-43.06724595 20.71320151 -53.52783875 24.83136777 -64.03125 28.859375 C-69.69489255 31.03540609 -75.32948581 33.23441542 -80.859375 35.734375 C-94.75401663 42.00055402 -94.75401663 42.00055402 -102 43 C-102.66 42.67 -103.32 42.34 -104 42 C-104 41.34 -104 40.68 -104 40 C-95.97189437 36.44957639 -87.97051932 33.17379997 -79.64453125 30.37109375 C-76.75052619 29.2823523 -74.01126965 28.11004521 -71.2109375 26.8125 C-63.98510025 23.48417217 -56.61597169 20.52211144 -49.2409668 17.54370117 C-46.83312551 16.57083356 -44.42721509 15.59330758 -42.02148438 14.61523438 C-33.23616359 11.05341712 -24.41968751 7.6117451 -15.5222168 4.33959961 C-13.04399455 3.39706093 -10.64781854 2.41599318 -8.22973633 1.34204102 C-5.14407345 0.05986634 -3.28367453 -0.29851587 0 0 Z " fill="#272727" transform="translate(326,221)"/>
<path d="M0 0 C0 1.32 0 2.64 0 4 C-16.7945709 12.534496 -33.71792124 20.66353018 -50.83251953 28.53808594 C-55.35793622 30.6267398 -59.86948597 32.74380712 -64.375 34.875 C-65.12724854 35.22900879 -65.87949707 35.58301758 -66.65454102 35.94775391 C-70.17177351 37.61321272 -73.65217015 39.32349741 -77.09375 41.140625 C-77.73521973 41.47594238 -78.37668945 41.81125977 -79.03759766 42.15673828 C-80.73761602 43.05260233 -82.42787514 43.96692026 -84.1171875 44.8828125 C-87.30596165 46.1185705 -88.78936186 46.03072147 -92 45 C-88.3295254 40.54445167 -83.62549456 38.67161337 -78.5 36.3125 C-77.51894287 35.85190186 -76.53788574 35.39130371 -75.52709961 34.91674805 C-73.29555505 33.86944727 -71.06227673 32.82583585 -68.82763672 31.78515625 C-62.17905202 28.68834592 -55.54880206 25.55242478 -48.91601562 22.42196655 C-46.6261114 21.34248693 -44.33470702 20.26625325 -42.04296875 19.19067383 C-34.09591894 15.4541614 -26.19378968 11.64514092 -18.35536194 7.68513489 C-3.1378235 0 -3.1378235 0 0 0 Z " fill="#212121" transform="translate(138,291)"/>
<path d="M0 0 C1.32 0.33 2.64 0.66 4 1 C4 4 4 4 1.79296875 6.30859375 C0.87128906 7.19675781 -0.05039063 8.08492188 -1 9 C-2.59411305 10.99599028 -4.15524009 13.01864257 -5.6875 15.0625 C-9.0216727 19.46962452 -12.43603208 23.77375143 -16 28 C-19.80892457 32.52568953 -23.45253004 37.1461932 -27.0324707 41.85449219 C-31.03453098 47.09519284 -35.19051511 52.20540848 -39.37182617 57.30371094 C-42.92382535 61.64156005 -46.35535875 66.04267433 -49.6328125 70.59375 C-50.30957031 71.28984375 -50.30957031 71.28984375 -51 72 C-51.99 72 -52.98 72 -54 72 C-53.5275845 67.20585754 -51.50252722 64.82161718 -48.375 61.25 C-47.4533095 60.18064975 -46.53274104 59.11033139 -45.61328125 58.0390625 C-45.16291504 57.51860352 -44.71254883 56.99814453 -44.24853516 56.46191406 C-42.62557606 54.56158573 -41.08660617 52.60522554 -39.5625 50.625 C-33.30953928 42.50350749 -27.01376127 34.41457014 -20.5 26.5 C-17.03495088 22.28709855 -13.6257862 18.03447697 -10.25 13.75 C-9.80205078 13.18345703 -9.35410156 12.61691406 -8.89257812 12.03320312 C-5.80658621 8.10349277 -2.88068283 4.08269437 0 0 Z " fill="#262626" transform="translate(200,279)"/>
<path d="M0 0 C1.32 0.33 2.64 0.66 4 1 C6.38776806 50.96531679 6.38776806 50.96531679 6 71 C4.02 71.495 4.02 71.495 2 72 C1.70902093 65.12158465 1.42505629 58.24290294 1.14550781 51.36401367 C1.0500404 49.03387203 0.9530855 46.70379076 0.85449219 44.3737793 C0.22940129 29.57251982 -0.14264936 14.81473022 0 0 Z " fill="#262324" transform="translate(378,93)"/>
<path d="M0 0 C0.2890625 2.2890625 0.2890625 2.2890625 0 5 C-1.8515625 6.7109375 -1.8515625 6.7109375 -4.625 8.375 C-5.7078125 9.05175781 -6.790625 9.72851562 -7.90625 10.42578125 C-8.53917969 10.81846191 -9.17210937 11.21114258 -9.82421875 11.61572266 C-14.33304154 14.48432962 -18.71715486 17.54207624 -23.125 20.5625 C-24.0423291 21.18753418 -24.9596582 21.81256836 -25.90478516 22.45654297 C-26.80503418 23.07029785 -27.7052832 23.68405273 -28.6328125 24.31640625 C-29.52129883 24.91855957 -30.40978516 25.52071289 -31.32519531 26.14111328 C-33.15216997 27.41079063 -34.95305748 28.71862921 -36.72949219 30.05810547 C-38.03515137 31.03287842 -38.03515137 31.03287842 -39.3671875 32.02734375 C-40.1391748 32.621521 -40.91116211 33.21569824 -41.70654297 33.82788086 C-44.57589391 35.29432261 -45.98173853 34.93641445 -49 34 C-45.77728034 30.62049938 -42.61344388 27.89604458 -38.6875 25.375 C-37.635625 24.68921875 -36.58375 24.0034375 -35.5 23.296875 C-34.93539063 22.92884766 -34.37078125 22.56082031 -33.7890625 22.18164062 C-30.55476844 20.04545295 -27.37484354 17.83034516 -24.1875 15.625 C-18.66897186 11.81941765 -13.13187172 8.04334044 -7.5625 4.3125 C-6.91756592 3.87824707 -6.27263184 3.44399414 -5.6081543 2.99658203 C-1.11817563 0 -1.11817563 0 0 0 Z " fill="#252525" transform="translate(441,137)"/>
<path d="M0 0 C0.76135254 0.07847168 1.52270508 0.15694336 2.30712891 0.23779297 C0.82098636 3.39738021 -0.95115525 6.21019319 -2.92333984 9.08935547 C-3.56207031 10.02392578 -4.20080078 10.95849609 -4.85888672 11.92138672 C-5.52597656 12.89205078 -6.19306641 13.86271484 -6.88037109 14.86279297 C-7.528125 15.81025391 -8.17587891 16.75771484 -8.84326172 17.73388672 C-13.08594309 23.93049027 -17.3763139 30.09248897 -21.69287109 36.23779297 C-22.42376953 37.28193359 -23.15466797 38.32607422 -23.90771484 39.40185547 C-26.30029297 42.81982422 -26.30029297 42.81982422 -28.69287109 46.23779297 C-29.68287109 45.90779297 -30.67287109 45.57779297 -31.69287109 45.23779297 C-31.05560879 41.39601168 -29.24570816 38.79966652 -27.06787109 35.61279297 C-26.33697266 34.53900391 -25.60607422 33.46521484 -24.85302734 32.35888672 C-22.52439283 28.99436778 -20.19018941 25.63530386 -17.81396484 22.30419922 C-16.00732332 19.69238781 -14.26758771 17.05461357 -12.54052734 14.39013672 C-11.68527466 13.09088257 -11.68527466 13.09088257 -10.81274414 11.76538086 C-9.66101379 10.01449933 -8.52280313 8.25463989 -7.39916992 6.4855957 C-6.86445068 5.67936768 -6.32973145 4.87313965 -5.77880859 4.04248047 C-5.30491699 3.31013184 -4.83102539 2.5777832 -4.34277344 1.82324219 C-2.69287109 0.23779297 -2.69287109 0.23779297 0 0 Z " fill="#282828" transform="translate(326.69287109375,230.76220703125)"/>
<path d="M0 0 C6.85494883 3.07651298 11.43873369 9.44674446 16.25 15.03125 C17.93798286 16.93023071 19.68769734 18.72005988 21.5 20.5 C24.58522286 23.5301296 27.4079452 26.72717423 30.22265625 30.0078125 C32.59053318 32.66191631 35.13074482 35.11257203 37.71484375 37.5546875 C39 39 39 39 39 41 C36.83203125 41.33984375 36.83203125 41.33984375 34 41 C31.99624801 39.23559358 30.39533681 37.58304347 28.6875 35.5625 C27.63690188 34.37108452 26.58473303 33.18105283 25.53125 31.9921875 C24.96792969 31.34991211 24.40460938 30.70763672 23.82421875 30.04589844 C20.52809437 26.34922789 17.09890195 22.77746783 13.6875 19.1875 C11.10952614 16.47236289 8.54811807 13.74316409 6 11 C5.31631348 10.27893066 4.63262695 9.55786133 3.92822266 8.81494141 C2.95248291 7.75605713 2.95248291 7.75605713 1.95703125 6.67578125 C1.36510986 6.04196533 0.77318848 5.40814941 0.16333008 4.75512695 C-0.22056885 4.17593506 -0.60446777 3.59674316 -1 3 C-0.67 2.01 -0.34 1.02 0 0 Z " fill="#232323" transform="translate(242,149)"/>
<path d="M0 0 C-0.30461539 3.05809323 -0.48601446 4.55800745 -2.86328125 6.60229492 C-3.67152344 7.05709229 -4.47976562 7.51188965 -5.3125 7.98046875 C-6.66758667 8.76019043 -6.66758667 8.76019043 -8.05004883 9.55566406 C-9.02353271 10.09416992 -9.9970166 10.63267578 -11 11.1875 C-13.00390776 12.3320286 -15.00781399 13.47655988 -17.01171875 14.62109375 C-18.51871338 15.46969971 -18.51871338 15.46969971 -20.05615234 16.33544922 C-24.33814427 18.75663192 -28.57567656 21.25092172 -32.8125 23.75 C-33.52857422 24.16789795 -34.24464844 24.5857959 -34.98242188 25.01635742 C-38.17479314 26.75757371 -38.17479314 26.75757371 -41 29 C-43.33297433 29.04092937 -45.66705225 29.04241723 -48 29 C-45.03053815 25.78201431 -42.00621854 23.62887654 -38.23046875 21.42578125 C-36.53555298 20.42998047 -36.53555298 20.42998047 -34.80639648 19.4140625 C-33.60019633 18.71337178 -32.39389579 18.01285384 -31.1875 17.3125 C-29.96196934 16.59565289 -28.73679102 15.87820308 -27.51196289 15.16015625 C-25.69205539 14.09331236 -23.87193217 13.02686665 -22.05039978 11.96279907 C-16.70557289 8.83866614 -11.4046617 5.64432064 -6.1394043 2.38793945 C-2.21810009 0 -2.21810009 0 0 0 Z " fill="#292929" transform="translate(133,361)"/>
<path d="M0 0 C0.41782661 16.7130642 -0.84648691 33.33848519 -2 50 C-3.32 50 -4.64 50 -6 50 C-6.11129743 39.55482415 -5.88845402 29.17581981 -5.25537109 18.7487793 C-5.12199016 16.51202594 -5.0042726 14.27474444 -4.88671875 12.03710938 C-4.80302173 10.60931968 -4.71842308 9.18158248 -4.6328125 7.75390625 C-4.55949707 6.47845947 -4.48618164 5.2030127 -4.41064453 3.88891602 C-4.20737549 2.45890259 -4.20737549 2.45890259 -4 1 C-2 0 -2 0 0 0 Z " fill="#282728" transform="translate(292,294)"/>
<path d="M0 0 C0.495 1.485 0.495 1.485 1 3 C-3.21238342 4.37255707 -7.42588462 5.74161423 -11.64038086 7.10766602 C-13.06906586 7.57126201 -14.49746014 8.03575506 -15.92553711 8.5012207 C-24.23082882 11.20750481 -32.53800759 13.81731199 -41 16 C-41.33 14.68 -41.66 13.36 -42 12 C-41.30551758 11.77860352 -40.61103516 11.55720703 -39.89550781 11.32910156 C-36.68008176 10.30353753 -33.46503994 9.2767738 -30.25 8.25 C-29.15816406 7.90195312 -28.06632813 7.55390625 -26.94140625 7.1953125 C-25.85214844 6.84726562 -24.76289063 6.49921875 -23.640625 6.140625 C-22.54298828 5.79064453 -21.44535156 5.44066406 -20.31445312 5.08007812 C-18.09232885 4.35595631 -15.87735358 3.60954292 -13.66992188 2.84179688 C-12.61869141 2.47634766 -11.56746094 2.11089844 -10.484375 1.734375 C-9.08010254 1.23502441 -9.08010254 1.23502441 -7.64746094 0.72558594 C-4.96952593 -0.00835199 -2.76149571 -0.13876235 0 0 Z " fill="#202020" transform="translate(201,270)"/>
<path d="M0 0 C0.42578125 2.109375 0.42578125 2.109375 0 5 C-1.9916181 7.40861561 -4.3871276 9.29178376 -6.8125 11.25 C-7.82787842 12.09836426 -7.82787842 12.09836426 -8.86376953 12.96386719 C-10.89746462 14.6574137 -12.94668615 16.33032766 -15 18 C-16.13737752 18.93670067 -17.27415148 19.87413497 -18.41015625 20.8125 C-20.27525551 22.34586224 -22.14562179 23.87286245 -24.0234375 25.390625 C-25.88238638 26.84843176 -25.88238638 26.84843176 -27 28 C-28.99958364 28.04080783 -31.00045254 28.04254356 -33 28 C-33 27.34 -33 26.68 -33 26 C-31.453125 24.625 -31.453125 24.625 -29.25 23 C-25.45628999 20.13390561 -21.76925845 17.17932627 -18.125 14.125 C-17.12082031 13.28453125 -16.11664063 12.4440625 -15.08203125 11.578125 C-14.3233374 10.94293945 -14.3233374 10.94293945 -13.54931641 10.29492188 C-10.97788223 8.14571184 -8.39776032 6.00758828 -5.8125 3.875 C-4.91144531 3.12992188 -4.01039063 2.38484375 -3.08203125 1.6171875 C-1 0 -1 0 0 0 Z " fill="#222222" transform="translate(374,184)"/>
<path d="M0 0 C0.66 0.99 1.32 1.98 2 3 C-2.30436972 3.57462915 -6.60937981 4.14411877 -10.91503906 4.70898438 C-12.37778793 4.90160442 -13.84035705 5.0955948 -15.30273438 5.29101562 C-17.41229511 5.5726736 -19.52246643 5.84929557 -21.6328125 6.125 C-23.53377686 6.37636719 -23.53377686 6.37636719 -25.47314453 6.6328125 C-28.68307056 6.96700388 -31.77637247 7.06941863 -35 7 C-35 5.68 -35 4.36 -35 3 C-24.59345457 0.23831297 -10.71131891 -1.61713094 0 0 Z " fill="#262626" transform="translate(427,76)"/>
<path d="M0 0 C0.66 0 1.32 0 2 0 C2.33 1.98 2.66 3.96 3 6 C5.31 6 7.62 6 10 6 C10 6.66 10 7.32 10 8 C8.35 8.66 6.7 9.32 5 10 C5.350625 10.763125 5.70125 11.52625 6.0625 12.3125 C7 15 7 15 6 18 C5.46375 17.46375 4.9275 16.9275 4.375 16.375 C1.96052929 14.60932055 1.96052929 14.60932055 -1.25 15.8125 C-2.1575 16.204375 -3.065 16.59625 -4 17 C-3.67 14.69 -3.34 12.38 -3 10 C-5.475 9.01 -5.475 9.01 -8 8 C-8 7.34 -8 6.68 -8 6 C-5.69 6 -3.38 6 -1 6 C-0.67 4.02 -0.34 2.04 0 0 Z " fill="#2C282A" transform="translate(290,275)"/>
<path d="M0 0 C-3.57848985 4.01662824 -8.2599875 5.50860698 -13.125 7.5625 C-14.03765625 7.96146484 -14.9503125 8.36042969 -15.890625 8.77148438 C-21.40099362 11.122418 -26.99127279 13.38002582 -33 14 C-33.66 13.67 -34.32 13.34 -35 13 C-35 12.34 -35 11.68 -35 11 C-27.91946509 7.86863881 -20.81261278 4.84281886 -13.5625 2.125 C-11.92474609 1.51011719 -11.92474609 1.51011719 -10.25390625 0.8828125 C-6.70804854 -0.07920892 -3.65731424 -0.1572044 0 0 Z " fill="#222222" transform="translate(257,250)"/>
<path d="M0 0 C1.8671875 0.56640625 1.8671875 0.56640625 4 2 C5.1953125 5.08984375 5.1953125 5.08984375 6.125 8.9375 C6.28967773 9.6075708 6.45435547 10.2776416 6.62402344 10.96801758 C10 24.98500541 10 24.98500541 10 32 C8.02 32.495 8.02 32.495 6 33 C5.14038491 28.94426283 4.28604533 24.88745351 3.43652344 20.82958984 C3.14694746 19.45005509 2.8559459 18.07081877 2.56347656 16.69189453 C2.14270539 14.7068278 1.7271167 12.72073512 1.3125 10.734375 C1.06113281 9.54038086 0.80976563 8.34638672 0.55078125 7.11621094 C0 4 0 4 0 0 Z " fill="#2B2B2B" transform="translate(440,87)"/>
<path d="M0 0 C0.66 0.33 1.32 0.66 2 1 C2.625 3.5625 2.625 3.5625 3 6 C5.31 6 7.62 6 10 6 C9.01 6.7734375 9.01 6.7734375 8 7.5625 C5.34362457 10.79995755 5.68657868 12.92552281 6 17 C5.13375 16.4740625 5.13375 16.4740625 4.25 15.9375 C1.58613224 14.8275551 0.66571663 15.05410055 -2 16 C-2.99 16.33 -3.98 16.66 -5 17 C-4.34 14.69 -3.68 12.38 -3 10 C-5.475 9.01 -5.475 9.01 -8 8 C-8 7.34 -8 6.68 -8 6 C-5.69 6 -3.38 6 -1 6 C-0.67 4.02 -0.34 2.04 0 0 Z " fill="#212121" transform="translate(141,349)"/>
<path d="M0 0 C0.66 0 1.32 0 2 0 C2.33 1.65 2.66 3.3 3 5 C5.31 5.33 7.62 5.66 10 6 C10 6.66 10 7.32 10 8 C8.02 8.99 8.02 8.99 6 10 C6 12.31 6 14.62 6 17 C5.113125 16.62875 4.22625 16.2575 3.3125 15.875 C-0.40826005 14.89215772 -1.67438135 15.23937836 -5 17 C-4.34 14.69 -3.68 12.38 -3 10 C-3.804375 9.71125 -4.60875 9.4225 -5.4375 9.125 C-8 8 -8 8 -9 6 C-6.36 6 -3.72 6 -1 6 C-0.67 4.02 -0.34 2.04 0 0 Z " fill="#1F1F1F" transform="translate(210,259)"/>
<path d="M0 0 C0.66 0 1.32 0 2 0 C2.33 1.98 2.66 3.96 3 6 C5.31 6 7.62 6 10 6 C9.319375 6.515625 8.63875 7.03125 7.9375 7.5625 C5.57571378 9.97254504 5.57571378 9.97254504 6.25 13.75 C6.4975 14.8225 6.745 15.895 7 17 C6.4225 16.67 5.845 16.34 5.25 16 C2.80116138 14.72924102 2.80116138 14.72924102 -1 15 C-1.99 15.66 -2.98 16.32 -4 17 C-3.9175 15.9275 -3.835 14.855 -3.75 13.75 C-3.63762783 9.95990735 -3.63762783 9.95990735 -6 7.5625 C-6.66 7.046875 -7.32 6.53125 -8 6 C-5.69 6 -3.38 6 -1 6 C-0.67 4.02 -0.34 2.04 0 0 Z " fill="#2C2C2C" transform="translate(76,388)"/>
<path d="M0 0 C4.72550528 0.69629253 8.82469194 2.46022347 13.1875 4.3125 C14.7003631 4.94568951 16.21338348 5.57850334 17.7265625 6.2109375 C18.45649414 6.51741211 19.18642578 6.82388672 19.93847656 7.13964844 C23.93904646 8.8092373 27.96906668 10.4054539 32 12 C29.61812976 13.5573767 28.26022375 14.01402403 25.390625 13.859375 C20.69526204 12.66930605 16.25595946 11.01602446 11.75 9.25 C10.83992188 8.91484375 9.92984375 8.5796875 8.9921875 8.234375 C2.37353939 5.64190749 2.37353939 5.64190749 0.390625 2.234375 C0.26171875 1.49703125 0.1328125 0.7596875 0 0 Z " fill="#2F2E2F" transform="translate(294,199)"/>
<path d="M0 0 C1.5 1.3125 1.5 1.3125 3 3 C3 3.99 3 4.98 3 6 C4.98 6 6.96 6 9 6 C8.484375 6.33 7.96875 6.66 7.4375 7 C5.66772487 9.46229584 5.92841118 10.25492998 6.3125 13.1875 C6.6528125 15.0746875 6.6528125 15.0746875 7 17 C6.4225 16.67 5.845 16.34 5.25 16 C2.80116138 14.72924102 2.80116138 14.72924102 -1 15 C-3.20067421 15.93283296 -3.20067421 15.93283296 -5 17 C-4.7525 15.9275 -4.505 14.855 -4.25 13.75 C-3.57571378 9.97254504 -3.57571378 9.97254504 -5.9375 7.5625 C-6.618125 7.046875 -7.29875 6.53125 -8 6 C-5.69 6 -3.38 6 -1 6 C-0.67 4.02 -0.34 2.04 0 0 Z " fill="#282526" transform="translate(35,334)"/>
<path d="M0 0 C0.33 0 0.66 0 1 0 C1.99058919 14.0097614 2.1162069 27.95863074 2 42 C0.02 42.495 0.02 42.495 -2 43 C-2.30655129 28.55802822 -1.38768858 14.37327967 0 0 Z " fill="#2C2B2B" transform="translate(382,122)"/>
<path d="M0 0 C2 2 2 2 2 6 C4.31 6 6.62 6 9 6 C8.505 6.33 8.01 6.66 7.5 7 C5.11820439 10.17572747 5.80831774 13.10246066 6 17 C5.2575 16.46375 4.515 15.9275 3.75 15.375 C2.8425 14.92125 1.935 14.4675 1 14 C-1.15017528 14.74172877 -1.15017528 14.74172877 -3 16 C-3.99 16 -4.98 16 -6 16 C-5.34 13.69 -4.68 11.38 -4 9 C-5.32 8.34 -6.64 7.68 -8 7 C-8 6.67 -8 6.34 -8 6 C-6.576875 5.9071875 -6.576875 5.9071875 -5.125 5.8125 C-4.09375 5.544375 -3.0625 5.27625 -2 5 C-0.54708727 2.53744315 -0.54708727 2.53744315 0 0 Z " fill="#303030" transform="translate(287,349)"/>
<path d="M0 0 C0 1.32 0 2.64 0 4 C-3.95509495 6.00645249 -7.91459021 8.00406136 -11.875 10 C-13.00292969 10.57234375 -14.13085938 11.1446875 -15.29296875 11.734375 C-16.36933594 12.27578125 -17.44570312 12.8171875 -18.5546875 13.375 C-19.54968262 13.87773437 -20.54467773 14.38046875 -21.56982422 14.8984375 C-24 16 -24 16 -26 16 C-26 15.34 -26 14.68 -26 14 C-26.99 13.67 -27.98 13.34 -29 13 C-3.29032258 0 -3.29032258 0 0 0 Z " fill="#252525" transform="translate(138,291)"/>
<path d="M0 0 C2 2 2 2 2 6 C4.31 6 6.62 6 9 6 C8.319375 6.515625 7.63875 7.03125 6.9375 7.5625 C4.57571378 9.97254504 4.57571378 9.97254504 5.25 13.75 C5.4975 14.8225 5.745 15.895 6 17 C5.2575 16.46375 4.515 15.9275 3.75 15.375 C2.8425 14.92125 1.935 14.4675 1 14 C-1.16666667 14.66666667 -1.16666667 14.66666667 -3 16 C-3.99 16.33 -4.98 16.66 -6 17 C-5.34 14.36 -4.68 11.72 -4 9 C-5.32 8.34 -6.64 7.68 -8 7 C-8 6.67 -8 6.34 -8 6 C-6.02 6 -4.04 6 -2 6 C-1.855625 5.195625 -1.71125 4.39125 -1.5625 3.5625 C-1 1 -1 1 0 0 Z " fill="#202020" transform="translate(334,210)"/>
<path d="M0 0 C1.5 1.3125 1.5 1.3125 3 3 C3 3.99 3 4.98 3 6 C4.98 6 6.96 6 9 6 C8.484375 6.33 7.96875 6.66 7.4375 7 C5.66772487 9.46229584 5.92841118 10.25492998 6.3125 13.1875 C6.6528125 15.0746875 6.6528125 15.0746875 7 17 C4.33333333 15.66666667 1.66666667 14.33333333 -1 13 C-1 13.66 -1 14.32 -1 15 C-2.98 15.99 -2.98 15.99 -5 17 C-4.67 14.69 -4.34 12.38 -4 10 C-4.99 9.34 -5.98 8.68 -7 8 C-7 7.34 -7 6.68 -7 6 C-5.02 6 -3.04 6 -1 6 C-0.67 4.02 -0.34 2.04 0 0 Z " fill="#262324" transform="translate(232,131)"/>
<path d="M0 0 C0.66 0.33 1.32 0.66 2 1 C2.625 3.0625 2.625 3.0625 3 5 C5.97 5.495 5.97 5.495 9 6 C8.01 7.485 8.01 7.485 7 9 C6.34 9 5.68 9 5 9 C5.33 11.31 5.66 13.62 6 16 C5.113125 15.608125 4.22625 15.21625 3.3125 14.8125 C-0.00303974 13.62820892 -0.00303974 13.62820892 -2.875 15.375 C-3.57625 15.91125 -4.2775 16.4475 -5 17 C-4.7525 15.9275 -4.505 14.855 -4.25 13.75 C-3.57571378 9.97254504 -3.57571378 9.97254504 -5.9375 7.5625 C-6.618125 7.046875 -7.29875 6.53125 -8 6 C-5.69 6 -3.38 6 -1 6 C-0.67 4.02 -0.34 2.04 0 0 Z " fill="#232323" transform="translate(383,169)"/>
<path d="M0 0 C0.66 0.33 1.32 0.66 2 1 C2.625 3.0625 2.625 3.0625 3 5 C5.31 5.33 7.62 5.66 10 6 C8.625 7.5 8.625 7.5 7 9 C6.34 9 5.68 9 5 9 C5.33 11.31 5.66 13.62 6 16 C5.113125 15.608125 4.22625 15.21625 3.3125 14.8125 C-0.00303974 13.62820892 -0.00303974 13.62820892 -2.875 15.375 C-3.57625 15.91125 -4.2775 16.4475 -5 17 C-4.7525 15.9275 -4.505 14.855 -4.25 13.75 C-3.57571378 9.97254504 -3.57571378 9.97254504 -5.9375 7.5625 C-6.618125 7.046875 -7.29875 6.53125 -8 6 C-5.69 6 -3.38 6 -1 6 C-0.67 4.02 -0.34 2.04 0 0 Z " fill="#232222" transform="translate(146,280)"/>
<path d="M0 0 C2 3 2 3 3 5 C5.52733235 5.65555119 5.52733235 5.65555119 8 6 C7.505 6.721875 7.01 7.44375 6.5 8.1875 C4.92080715 11.14848659 4.71821688 12.71253029 5 16 C4.071875 15.649375 3.14375 15.29875 2.1875 14.9375 C-0.9802953 13.67617372 -0.9802953 13.67617372 -4 15 C-4 15.66 -4 16.32 -4 17 C-4.66 17 -5.32 17 -6 17 C-5.773125 15.741875 -5.54625 14.48375 -5.3125 13.1875 C-4.79806803 9.85861291 -4.79806803 9.85861291 -6.4375 7 C-6.953125 6.67 -7.46875 6.34 -8 6 C-6.02 6 -4.04 6 -2 6 C-1.855625 5.195625 -1.71125 4.39125 -1.5625 3.5625 C-1 1 -1 1 0 0 Z " fill="#252425" transform="translate(379,75)"/>
<path d="M0 0 C0.66 0.33 1.32 0.66 2 1 C2.625 3.0625 2.625 3.0625 3 5 C5.97 5.495 5.97 5.495 9 6 C8.01 7.485 8.01 7.485 7 9 C6.34 9 5.68 9 5 9 C5.33 11.31 5.66 13.62 6 16 C5.113125 15.608125 4.22625 15.21625 3.3125 14.8125 C-0.00303974 13.62820892 -0.00303974 13.62820892 -2.875 15.375 C-3.57625 15.91125 -4.2775 16.4475 -5 17 C-4.7525 15.9275 -4.505 14.855 -4.25 13.75 C-3.57571378 9.97254504 -3.57571378 9.97254504 -5.9375 7.5625 C-6.618125 7.046875 -7.29875 6.53125 -8 6 C-5.69 6 -3.38 6 -1 6 C-0.67 4.02 -0.34 2.04 0 0 Z " fill="#292929" transform="translate(285,188)"/>
<path d="M0 0 C2 2 2 2 2 6 C4.31 6 6.62 6 9 6 C8.319375 6.515625 7.63875 7.03125 6.9375 7.5625 C4.57571378 9.97254504 4.57571378 9.97254504 5.25 13.75 C5.4975 14.8225 5.745 15.895 6 17 C5.29875 16.46375 4.5975 15.9275 3.875 15.375 C1.00303974 13.62820892 1.00303974 13.62820892 -2.3125 14.8125 C-3.199375 15.204375 -4.08625 15.59625 -5 16 C-4.67 13.69 -4.34 11.38 -4 9 C-5.32 8.34 -6.64 7.68 -8 7 C-8 6.67 -8 6.34 -8 6 C-6.02 6 -4.04 6 -2 6 C-1.34 4.02 -0.68 2.04 0 0 Z " fill="#131313" transform="translate(439,68)"/>
<path d="M0 0 C0.66 0 1.32 0 2 0 C2.33 1.98 2.66 3.96 3 6 C5.31 6 7.62 6 10 6 C9.319375 6.515625 8.63875 7.03125 7.9375 7.5625 C5.57571378 9.97254504 5.57571378 9.97254504 6.25 13.75 C6.4975 14.8225 6.745 15.895 7 17 C6.46375 16.484375 5.9275 15.96875 5.375 15.4375 C2.99503501 13.67394455 2.99503501 13.67394455 -0.25 14.3125 C-1.61125 14.6528125 -1.61125 14.6528125 -3 15 C-3.103125 14.071875 -3.20625 13.14375 -3.3125 12.1875 C-4.0070192 8.96745642 -4.47740939 7.97420135 -7 6 C-5.02 6 -3.04 6 -1 6 C-0.67 4.02 -0.34 2.04 0 0 Z " fill="#242424" transform="translate(449,124)"/>
<path d="M0 0 C0.11858127 11.38380184 -0.13387208 22.64753762 -1 34 C-1.33 34 -1.66 34 -2 34 C-2.33968421 30.18803848 -2.67057595 26.3753608 -3 22.5625 C-3.09539062 21.49322266 -3.19078125 20.42394531 -3.2890625 19.32226562 C-3.81440872 13.18697229 -4.10359579 7.15747494 -4 1 C-2 0 -2 0 0 0 Z " fill="#353435" transform="translate(292,294)"/>
<path d="M0 0 C0.66 0.33 1.32 0.66 2 1 C0.62056295 4.40802096 -0.57303374 5.64464197 -3.9140625 7.140625 C-5.05488281 7.66269531 -5.05488281 7.66269531 -6.21875 8.1953125 C-7.0128125 8.54335938 -7.806875 8.89140625 -8.625 9.25 C-9.42679688 9.61351562 -10.22859375 9.97703125 -11.0546875 10.3515625 C-13.03134523 11.24576481 -15.01503054 12.12440319 -17 13 C-17 12.01 -17 11.02 -17 10 C-17.66 9.67 -18.32 9.34 -19 9 C-15.88112823 7.46635461 -12.75402378 5.95031107 -9.625 4.4375 C-8.73554687 3.99986328 -7.84609375 3.56222656 -6.9296875 3.11132812 C-6.07890625 2.70205078 -5.228125 2.29277344 -4.3515625 1.87109375 C-3.56604004 1.48880615 -2.78051758 1.10651855 -1.97119141 0.71264648 C-1.32069824 0.47747314 -0.67020508 0.2422998 0 0 Z " fill="#282828" transform="translate(86,315)"/>
<path d="M0 0 C0 0.99 0 1.98 0 3 C-2.76825188 4.17314026 -5.53928486 5.33870215 -8.3125 6.5 C-9.09818359 6.83386719 -9.88386719 7.16773438 -10.69335938 7.51171875 C-11.45068359 7.82753906 -12.20800781 8.14335937 -12.98828125 8.46875 C-13.68477783 8.76201172 -14.38127441 9.05527344 -15.09887695 9.35742188 C-17 10 -17 10 -20 10 C-20 8.68 -20 7.36 -20 6 C-17.60824639 4.98914564 -15.21238415 3.99120797 -12.8125 3 C-11.80219727 2.57074219 -11.80219727 2.57074219 -10.77148438 2.1328125 C-7.05006206 0.60793701 -4.03528592 -0.37610432 0 0 Z " fill="#212121" transform="translate(326,221)"/>
<path d="M0 0 C2.31 0 4.62 0 7 0 C7 0.99 7 1.98 7 3 C7.99 3.33 8.98 3.66 10 4 C8.02 4.99 8.02 4.99 6 6 C6.37125 6.7425 6.7425 7.485 7.125 8.25 C8 11 8 11 7.125 13.3125 C6.568125 14.1478125 6.568125 14.1478125 6 15 C5.34 14.34 4.68 13.68 4 13 C3.34 13 2.68 13 2 13 C1.67 13.66 1.34 14.32 1 15 C0.67 14.34 0.34 13.68 0 13 C-0.99 12.67 -1.98 12.34 -3 12 C-3 11.34 -3 10.68 -3 10 C-3.66 9.67 -4.32 9.34 -5 9 C-3.25 8.3125 -3.25 8.3125 -1 8 C1.25 9.4375 1.25 9.4375 3 11 C2.67 8.69 2.34 6.38 2 4 C2.99 3.34 3.98 2.68 5 2 C3.35 1.67 1.7 1.34 0 1 C0 0.67 0 0.34 0 0 Z M-4 12 C-3.34 12.66 -2.68 13.32 -2 14 C-2.99 14.33 -3.98 14.66 -5 15 C-4.67 14.01 -4.34 13.02 -4 12 Z " fill="#E1E0E1" transform="translate(288,193)"/>
<path d="M0 0 C0 2.6506582 -0.36825703 4.47302813 -1 7 C-1 7.99 -1 8.98 -1 10 C-1.66 10.66 -2.32 11.32 -3 12 C-4.32 12 -5.64 12 -7 12 C-7 12.99 -7 13.98 -7 15 C-8.98 15 -10.96 15 -13 15 C-13.99 12.69 -14.98 10.38 -16 8 C-14.68 7.34 -13.36 6.68 -12 6 C-11.67 7.65 -11.34 9.3 -11 11 C-7.32943063 9.52202738 -5.58914217 7.52384523 -3.25 4.375 C-2.63640625 3.55773437 -2.0228125 2.74046875 -1.390625 1.8984375 C-0.93171875 1.27195312 -0.4728125 0.64546875 0 0 Z " fill="#F6F6F6" transform="translate(157,340)"/>
<path d="M0 0 C-0.825 0.45375 -1.65 0.9075 -2.5 1.375 C-3.325 1.91125 -4.15 2.4475 -5 3 C-5 3.66 -5 4.32 -5 5 C-7.45714547 5.83698386 -9.91558857 6.66972424 -12.375 7.5 C-13.07367188 7.73847656 -13.77234375 7.97695313 -14.4921875 8.22265625 C-19.7734375 10 -19.7734375 10 -22 10 C-22.33 8.68 -22.66 7.36 -23 6 C-19.54574482 4.8003958 -16.08603135 3.61739705 -12.625 2.4375 C-11.64015625 2.09525391 -10.6553125 1.75300781 -9.640625 1.40039062 C-8.22910156 0.92182617 -8.22910156 0.92182617 -6.7890625 0.43359375 C-5.91975098 0.13509521 -5.05043945 -0.16340332 -4.15478516 -0.47094727 C-2 -1 -2 -1 0 0 Z " fill="#303030" transform="translate(182,276)"/>
<path d="M0 0 C-0.09765625 2.23046875 -0.09765625 2.23046875 -1 5 C-3.15642362 6.68113025 -5.08432705 7.98616615 -7.4375 9.3125 C-8.03626953 9.67150391 -8.63503906 10.03050781 -9.25195312 10.40039062 C-13.67376488 13 -13.67376488 13 -16 13 C-16.33 11.68 -16.66 10.36 -17 9 C-14.54481265 7.49462965 -12.0861548 5.99555574 -9.625 4.5 C-8.92632812 4.07074219 -8.22765625 3.64148438 -7.5078125 3.19921875 C-2.2265625 0 -2.2265625 0 0 0 Z " fill="#2E2E2E" transform="translate(133,361)"/>
<path d="M0 0 C1.32 0.33 2.64 0.66 4 1 C4 4 4 4 1.875 6.1875 C1.42511719 6.60773438 0.97523438 7.02796875 0.51171875 7.4609375 C-2.3335091 10.35762941 -4.62734668 13.71416052 -7 17 C-7.99 16.01 -8.98 15.02 -10 14 C-9.61328125 13.49210937 -9.2265625 12.98421875 -8.828125 12.4609375 C-5.74572807 8.38668017 -2.78428845 4.28352069 0 0 Z " fill="#2C2C2C" transform="translate(200,279)"/>
<path d="M0 0 C1.65 0.99 3.3 1.98 5 3 C4.67 4.98 4.34 6.96 4 9 C4.598125 8.484375 5.19625 7.96875 5.8125 7.4375 C6.8953125 6.7259375 6.8953125 6.7259375 8 6 C8.99 6.33 9.98 6.66 11 7 C5 11 5 11 2 11 C2 11.66 2 12.32 2 13 C0 14.625 0 14.625 -2 16 C-2 13 -2 10 -2 7 C-0.68 7 0.64 7 2 7 C2 6.34 2 5.68 2 5 C1.34 5 0.68 5 0 5 C0 3.35 0 1.7 0 0 Z " fill="#E1E1E1" transform="translate(375,176)"/>
<path d="M0 0 C2.97927461 3.33678756 2.97927461 3.33678756 3.0625 6 C1.44650257 9.04187752 -1.09791363 10.27109748 -4 12 C-3.9175 10.9275 -3.835 9.855 -3.75 8.75 C-3.63762783 4.95990735 -3.63762783 4.95990735 -6 2.5625 C-6.66 2.046875 -7.32 1.53125 -8 1 C-5.36 0.67 -2.72 0.34 0 0 Z " fill="#1C1C1C" transform="translate(76,393)"/>
<path d="M0 0 C1.32 0.66 2.64 1.32 4 2 C3.625 4.4375 3.625 4.4375 3 7 C2.01 7.495 2.01 7.495 1 8 C0.67 8.99 0.34 9.98 0 11 C-0.66 11 -1.32 11 -2 11 C-2 11.66 -2 12.32 -2 13 C-2.66 12.67 -3.32 12.34 -4 12 C-4.59355614 9.35139573 -4.74209269 6.70802678 -5 4 C-3.35 3.34 -1.7 2.68 0 2 C0 1.34 0 0.68 0 0 Z " fill="#F3F3F3" transform="translate(300,281)"/>
<path d="M0 0 C0.66 0.33 1.32 0.66 2 1 C1.34 1.66 0.68 2.32 0 3 C0.33 3.66 0.66 4.32 1 5 C-0.4096347 5.70180531 -1.82807641 6.38593958 -3.25 7.0625 C-4.03890625 7.44535156 -4.8278125 7.82820312 -5.640625 8.22265625 C-8.32533517 9.10718824 -9.40242918 9.02507443 -12 8 C-12.99 7.34 -13.98 6.68 -15 6 C-12.54524486 4.96971956 -10.08685649 3.95054496 -7.625 2.9375 C-6.57699219 2.49567383 -6.57699219 2.49567383 -5.5078125 2.04492188 C-3.69495092 1.30408902 -1.84876857 0.64603036 0 0 Z " fill="#373737" transform="translate(286,235)"/>
<path d="M0 0 C0.66 0.33 1.32 0.66 2 1 C2.33 1.99 2.66 2.98 3 4 C-3.89715536 10.86214442 -3.89715536 10.86214442 -8.5 11.4375 C-9.325 11.293125 -10.15 11.14875 -11 11 C-11 10.34 -11 9.68 -11 9 C-9.1015625 7.34375 -9.1015625 7.34375 -6.625 5.5 C-4.27095638 3.73633557 -2.0808095 2.0808095 0 0 Z " fill="#2C2C2C" transform="translate(352,201)"/>
<path d="M0 0 C0 0.66 0 1.32 0 2 C-0.99 2.33 -1.98 2.66 -3 3 C-2.34 3.66 -1.68 4.32 -1 5 C-2.5552912 5.70365602 -4.11964827 6.38729378 -5.6875 7.0625 C-6.55761719 7.44535156 -7.42773438 7.82820313 -8.32421875 8.22265625 C-11.32213864 9.0935848 -13.03280153 8.85006226 -16 8 C-16 7.34 -16 6.68 -16 6 C-13.7101766 4.9955866 -11.4183401 3.99632388 -9.125 3 C-8.14853516 2.57074219 -8.14853516 2.57074219 -7.15234375 2.1328125 C-2.2265625 0 -2.2265625 0 0 0 Z " fill="#333333" transform="translate(238,255)"/>
<path d="M0 0 C0.66 0.33 1.32 0.66 2 1 C2.625 3.0625 2.625 3.0625 3 5 C5.97 5.495 5.97 5.495 9 6 C7.35 7.98 5.7 9.96 4 12 C3.01 11.67 2.02 11.34 1 11 C1 10.34 1 9.68 1 9 C0.01 9 -0.98 9 -2 9 C-2 8.34 -2 7.68 -2 7 C-2.66 6.67 -3.32 6.34 -4 6 C-3.01 6 -2.02 6 -1 6 C-0.67 4.02 -0.34 2.04 0 0 Z " fill="#1F1E1F" transform="translate(285,188)"/>
<path d="M0 0 C1.5 1.3125 1.5 1.3125 3 3 C3 3.99 3 4.98 3 6 C4.98 6 6.96 6 9 6 C8.484375 6.33 7.96875 6.66 7.4375 7 C5.66772487 9.46229584 5.92841118 10.25492998 6.3125 13.1875 C6.539375 14.445625 6.76625 15.70375 7 17 C3.2047869 15.50902342 1.38957269 13.24299151 -1 10 C-0.01 10 0.98 10 2 10 C2 8.02 2 6.04 2 4 C1.01 4.33 0.02 4.66 -1 5 C-0.67 3.35 -0.34 1.7 0 0 Z " fill="#322F30" transform="translate(232,131)"/>
<path d="M0 0 C0.66 -0.03738281 1.32 -0.07476562 2 -0.11328125 C4 0.3125 4 0.3125 8 4.3125 C0.08 4.8075 0.08 4.8075 -8 5.3125 C-8 3.9925 -8 2.6725 -8 1.3125 C-5.35718479 0.4315616 -2.76689789 0.13937732 0 0 Z " fill="#3D3D3D" transform="translate(400,77.6875)"/>
<path d="M0 0 C1.5 1.3125 1.5 1.3125 3 3 C3 3.99 3 4.98 3 6 C4.98 6 6.96 6 9 6 C8.484375 6.33 7.96875 6.66 7.4375 7 C5.66772487 9.46229584 5.92841118 10.25492998 6.3125 13.1875 C6.539375 14.445625 6.76625 15.70375 7 17 C5.046875 16.2890625 5.046875 16.2890625 3 15 C2.390625 12.8359375 2.390625 12.8359375 2.25 10.375 C2.19328125 9.55773437 2.1365625 8.74046875 2.078125 7.8984375 C2.05234375 7.27195312 2.0265625 6.64546875 2 6 C1.01 6 0.02 6 -1 6 C-0.67 4.02 -0.34 2.04 0 0 Z " fill="#2F2D2E" transform="translate(35,334)"/>
<path d="M0 0 C2.64 0 5.28 0 8 0 C8 0.33 8 0.66 8 1 C6.35 1.33 4.7 1.66 3 2 C3.99 2.66 4.98 3.32 6 4 C5.125 9.75 5.125 9.75 4 12 C3.01 11.67 2.02 11.34 1 11 C1.33 9.35 1.66 7.7 2 6 C-0.97 5.505 -0.97 5.505 -4 5 C-2.68 4.34 -1.36 3.68 0 3 C0 2.01 0 1.02 0 0 Z " fill="#F3F3F3" transform="translate(324,215)"/>
<path d="M0 0 C2.31 0.33 4.62 0.66 7 1 C6.505 1.721875 6.01 2.44375 5.5 3.1875 C3.92080715 6.14848659 3.71821688 7.71253029 4 11 C-1.875 7.375 -1.875 7.375 -3 4 C-1.5625 1.8125 -1.5625 1.8125 0 0 Z " fill="#1C1B1C" transform="translate(380,80)"/>
<path d="M0 0 C0.66 0 1.32 0 2 0 C2.33 1.65 2.66 3.3 3 5 C5.31 5.33 7.62 5.66 10 6 C9.67 6.66 9.34 7.32 9 8 C5 8 1 8 -3 8 C-3 8.66 -3 9.32 -3 10 C-7.875 8.25 -7.875 8.25 -9 6 C-6.36 6 -3.72 6 -1 6 C-0.67 4.02 -0.34 2.04 0 0 Z " fill="#454545" transform="translate(210,259)"/>
<path d="M0 0 C0.3125 2.29296875 0.3125 2.29296875 0 5 C-2.1875 6.80078125 -2.1875 6.80078125 -5 8.3125 C-5.928125 8.82425781 -6.85625 9.33601562 -7.8125 9.86328125 C-8.534375 10.23839844 -9.25625 10.61351562 -10 11 C-10 10.34 -10 9.68 -10 9 C-10.99 8.67 -11.98 8.34 -13 8 C-11.0226631 6.66388095 -9.04327287 5.33100742 -7.0625 4 C-6.49853516 3.6184375 -5.93457031 3.236875 -5.35351562 2.84375 C-1.11328125 0 -1.11328125 0 0 0 Z " fill="#262626" transform="translate(441,137)"/>
<path d="M0 0 C1.175625 0.5259375 1.175625 0.5259375 2.375 1.0625 C3.674375 1.5265625 3.674375 1.5265625 5 2 C5.66 1.67 6.32 1.34 7 1 C7 1.99 7 2.98 7 4 C6.34 4 5.68 4 5 4 C5 4.66 5 5.32 5 6 C3.35 5.67 1.7 5.34 0 5 C0 7.31 0 9.62 0 12 C-0.33 10.68 -0.66 9.36 -1 8 C-1.66 8 -2.32 8 -3 8 C-3.75 6.25 -3.75 6.25 -4 4 C-2.0625 1.75 -2.0625 1.75 0 0 Z " fill="#DFDDDE" transform="translate(378,88)"/>
<path d="M0 0 C1.65 0.33 3.3 0.66 5 1 C3.515 2.485 3.515 2.485 2 4 C3.65 4.33 5.3 4.66 7 5 C7 5.33 7 5.66 7 6 C6.28972656 6.06058594 5.57945313 6.12117188 4.84765625 6.18359375 C3.92855469 6.26738281 3.00945312 6.35117187 2.0625 6.4375 C1.14597656 6.51871094 0.22945313 6.59992188 -0.71484375 6.68359375 C-2.96159732 6.76044976 -2.96159732 6.76044976 -4 8 C-1.69 8 0.62 8 3 8 C3 8.99 3 9.98 3 11 C0.36 10.34 -2.28 9.68 -5 9 C-5.33 7.35 -5.66 5.7 -6 4 C-4.35 3.67 -2.7 3.34 -1 3 C-0.67 2.01 -0.34 1.02 0 0 Z " fill="#E4E4E4" transform="translate(84,385)"/>
<path d="M0 0 C6.45512034 -0.56131481 11.15439723 1.36536213 17 4 C13.16731938 6.11741242 11.29570498 6.17921313 7 5 C4.56377882 3.78924219 2.31761525 2.43692145 0 1 C0 0.67 0 0.34 0 0 Z " fill="#2B2B2B" transform="translate(309,207)"/>
<path d="M0 0 C0.33 1.32 0.66 2.64 1 4 C-0.28913487 4.67154933 -1.58140204 5.33708859 -2.875 6 C-3.59429687 6.37125 -4.31359375 6.7425 -5.0546875 7.125 C-7 8 -7 8 -9 8 C-9 7.34 -9 6.68 -9 6 C-9.99 5.67 -10.98 5.34 -12 5 C-10.37750059 4.16180842 -8.75191503 3.3295884 -7.125 2.5 C-6.22007813 2.0359375 -5.31515625 1.571875 -4.3828125 1.09375 C-2 0 -2 0 0 0 Z " fill="#303030" transform="translate(121,299)"/>
<path d="M0 0 C0.33 0.66 0.66 1.32 1 2 C1.66 2 2.32 2 3 2 C1.44499019 5.81684226 -1.03595495 8.19195732 -4 11 C-4 10.34 -4 9.68 -4 9 C-4.66 9 -5.32 9 -6 9 C-6 9.66 -6 10.32 -6 11 C-6.66 10.67 -7.32 10.34 -8 10 C-5.36 6.7 -2.72 3.4 0 0 Z " fill="#2C2C2C" transform="translate(168,320)"/>
<path d="M0 0 C2.31 0 4.62 0 7 0 C6.95875 1.093125 6.9175 2.18625 6.875 3.3125 C6.67925334 7.08892229 6.67925334 7.08892229 9 10 C8.34 10 7.68 10 7 10 C6.67 10.66 6.34 11.32 6 12 C4.66666667 10.66666667 3.33333333 9.33333333 2 8 C2.25 5.4375 2.25 5.4375 3 3 C3.66 2.67 4.32 2.34 5 2 C3.35 1.67 1.7 1.34 0 1 C0 0.67 0 0.34 0 0 Z " fill="#F4F3F3" transform="translate(38,339)"/>
<path d="M0 0 C0.99 0.66 1.98 1.32 3 2 C2.34 5.3 1.68 8.6 1 12 C0.34 12 -0.32 12 -1 12 C-1.66 11.34 -2.32 10.68 -3 10 C-5.58354218 9.83312552 -5.58354218 9.83312552 -8 10 C-4.25 7 -4.25 7 -2 7 C-1.855625 6.401875 -1.71125 5.80375 -1.5625 5.1875 C-1.1127561 3.43849596 -0.57107659 1.71322977 0 0 Z M-1 8 C0 10 0 10 0 10 Z " fill="#E0E0E0" transform="translate(140,288)"/>
<path d="M0 0 C1.40980321 4.22940963 -0.07526585 6.08179119 -2 10 C-3.6875 12.4375 -3.6875 12.4375 -5 14 C-5.66 13.67 -6.32 13.34 -7 13 C-5.74875245 7.31251115 -3.95897432 4.27152492 0 0 Z " fill="#202020" transform="translate(311,251)"/>
<path d="M0 0 C3.73487777 0.4979837 5.81237635 0.87491756 9 3 C8.67 4.98 8.34 6.96 8 9 C4.125 7.25 4.125 7.25 3 5 C1.02 5 -0.96 5 -3 5 C-3 4.34 -3 3.68 -3 3 C-1.68 2.67 -0.36 2.34 1 2 C0.67 1.34 0.34 0.68 0 0 Z " fill="#DDDDDD" transform="translate(198,266)"/>
<path d="M0 0 C0.66 0.33 1.32 0.66 2 1 C1.875 2.8125 1.875 2.8125 1 5 C-2.18976724 7.10234659 -4.03465831 8.10492845 -7.875 7.6875 C-8.57625 7.460625 -9.2775 7.23375 -10 7 C-7.01767477 3.67356033 -4.13629913 1.70847138 0 0 Z " fill="#222222" transform="translate(56,329)"/>
<path d="M0 0 C0.33 0.66 0.66 1.32 1 2 C2.64363134 2.72159424 4.31050386 3.39351421 6 4 C6 6.64 6 9.28 6 12 C5.34 12 4.68 12 4 12 C3.67 11.01 3.34 10.02 3 9 C1.68 9 0.36 9 -1 9 C-0.67 6.03 -0.34 3.06 0 0 Z " fill="#F3F3F3" transform="translate(281,281)"/>
<path d="M0 0 C0 0.66 0 1.32 0 2 C0.66 2.33 1.32 2.66 2 3 C-2.96073422 4.32286246 -7.91111512 4.08893197 -13 4 C-12.67 3.01 -12.34 2.02 -12 1 C-7.9472484 0.01751476 -4.16138263 -0.08159574 0 0 Z " fill="#191919" transform="translate(416,77)"/>
<path d="M0 0 C0.66 0.33 1.32 0.66 2 1 C2.625 3.5625 2.625 3.5625 3 6 C5.31 6 7.62 6 10 6 C8 8 8 8 4.3046875 8.1953125 C2.82799892 8.182009 1.35137642 8.15814835 -0.125 8.125 C-0.87910156 8.11597656 -1.63320312 8.10695313 -2.41015625 8.09765625 C-4.27357254 8.0740687 -6.13682593 8.03819719 -8 8 C-8 7.34 -8 6.68 -8 6 C-5.69 6 -3.38 6 -1 6 C-0.67 4.02 -0.34 2.04 0 0 Z " fill="#484848" transform="translate(141,349)"/>
<path d="M0 0 C0.33 2.64 0.66 5.28 1 8 C0.113125 7.608125 -0.77375 7.21625 -1.6875 6.8125 C-5.00303974 5.62820892 -5.00303974 5.62820892 -7.875 7.375 C-8.57625 7.91125 -9.2775 8.4475 -10 9 C-9.25 4.25 -9.25 4.25 -7 2 C-6.34 2 -5.68 2 -5 2 C-5 2.66 -5 3.32 -5 4 C-3.68 3.34 -2.36 2.68 -1 2 C-1.66 1.67 -2.32 1.34 -3 1 C-1 0 -1 0 0 0 Z " fill="#322D2F" transform="translate(151,288)"/>
<path d="M0 0 C1.32 0.66 2.64 1.32 4 2 C4 3.98 4 5.96 4 8 C4.99 7.34 5.98 6.68 7 6 C7.99 6.33 8.98 6.66 10 7 C9.34 7 8.68 7 8 7 C8 7.66 8 8.32 8 9 C6.0085944 9.38133299 4.00720923 9.71325582 2 10 C1.67 9.67 1.34 9.34 1 9 C0.34 9 -0.32 9 -1 9 C-1.33 7.68 -1.66 6.36 -2 5 C-1.01 4.34 -0.02 3.68 1 3 C0.67 2.01 0.34 1.02 0 0 Z " fill="#C9C9C9" transform="translate(442,131)"/>
<path d="M0 0 C0.66 0 1.32 0 2 0 C2.33 1.98 2.66 3.96 3 6 C5.31 6 7.62 6 10 6 C9.67 6.66 9.34 7.32 9 8 C3.39 8 -2.22 8 -8 8 C-8 7.34 -8 6.68 -8 6 C-5.69 6 -3.38 6 -1 6 C-0.67 4.02 -0.34 2.04 0 0 Z " fill="#626061" transform="translate(290,275)"/>
<path d="M0 0 C2.97 0.495 2.97 0.495 6 1 C5.67 1.66 5.34 2.32 5 3 C4.32650839 4.66392045 3.6590841 6.33032028 3 8 C0.36 8.33 -2.28 8.66 -5 9 C-5 8.34 -5 7.68 -5 7 C-2.69 7 -0.38 7 2 7 C-0.46278801 5.768606 -2.2795055 5.92840804 -5 6 C-5 5.34 -5 4.68 -5 4 C-3.35 3.67 -1.7 3.34 0 3 C0 2.01 0 1.02 0 0 Z " fill="#D9D9D9" transform="translate(281,186)"/>
<path d="M0 0 C1.65 0.99 3.3 1.98 5 3 C4.34 5.31 3.68 7.62 3 10 C2.67 9.34 2.34 8.68 2 8 C1.34 7.67 0.68 7.34 0 7 C-0.72159424 5.35636866 -1.39351421 3.68949614 -2 2 C-1.34 1.34 -0.68 0.68 0 0 Z " fill="#EEEEEE" transform="translate(27,341)"/>
<path d="M0 0 C0.5775 0.37125 1.155 0.7425 1.75 1.125 C-1.3184847 4.10050031 -2.71236331 5.08974513 -7.0625 5.375 C-8.114375 5.2925 -9.16625 5.21 -10.25 5.125 C-4.01086957 -1.55978261 -4.01086957 -1.55978261 0 0 Z " fill="#1E1E1E" transform="translate(95.25,384.875)"/>
<path d="M0 0 C0.33 0 0.66 0 1 0 C1 16 1 16 0 18 C-0.99 18 -1.98 18 -3 18 C-3 17.34 -3 16.68 -3 16 C-3.66 16 -4.32 16 -5 16 C-4.67 15.01 -4.34 14.02 -4 13 C-2.68 12.67 -1.36 12.34 0 12 C0 8.04 0 4.08 0 0 Z " fill="#DEDEDE" transform="translate(384,152)"/>
<path d="M0 0 C5.28 0 10.56 0 16 0 C15.01 1.485 15.01 1.485 14 3 C8.76314488 3.43640459 4.93055579 2.97222232 0 1 C0 0.67 0 0.34 0 0 Z " fill="#1B1718" transform="translate(283,282)"/>
<path d="M0 0 C1.32 0 2.64 0 4 0 C4 0.66 4 1.32 4 2 C4.66 2 5.32 2 6 2 C5 5 5 5 3.125 6.125 C1.44294273 6.81761182 -0.27427551 7.4247585 -2 8 C-1.34 5.36 -0.68 2.72 0 0 Z " fill="#363636" transform="translate(330,219)"/>
<path d="M0 0 C0.66 0.33 1.32 0.66 2 1 C2.33 1.99 2.66 2.98 3 4 C2.01 5.485 2.01 5.485 1 7 C1.99 7.33 2.98 7.66 4 8 C3.34 8 2.68 8 2 8 C2 8.66 2 9.32 2 10 C0.68 9.67 -0.64 9.34 -2 9 C-2.125 5.625 -2.125 5.625 -2 2 C-1.34 1.34 -0.68 0.68 0 0 Z " fill="#E9E9E9" transform="translate(148,357)"/>
<path d="M0 0 C0.99 0.33 1.98 0.66 3 1 C1.92598892 3.91517292 1.22189824 5.77810176 -1 8 C-1.99 8 -2.98 8 -4 8 C-3.50168276 4.31245243 -2.89932357 2.39509338 0 0 Z " fill="#1F1F1F" transform="translate(173,314)"/>
<path d="M0 0 C1.67422986 0.29299023 3.34178227 0.62690101 5 1 C6.36893239 1.05270463 6.36893239 1.05270463 9 0 C9.33 0.99 9.66 1.98 10 3 C7.08291076 4.98362069 5.87619096 4.9876191 2.25 4.625 C1.1775 4.41875 0.105 4.2125 -1 4 C-1 1 -1 1 0 0 Z " fill="#E5E5E5" transform="translate(150,282)"/>
<path d="M0 0 C2 2 2 2 2 5 C0.68 5.33 -0.64 5.66 -2 6 C-1.34 4.02 -0.68 2.04 0 0 Z M-8 6 C-6.02 6 -4.04 6 -2 6 C-2.33 7.98 -2.66 9.96 -3 12 C-3.33 11.01 -3.66 10.02 -4 9 C-6.00016466 7.79117904 -6.00016466 7.79117904 -8 7 C-8 6.67 -8 6.34 -8 6 Z " fill="#292929" transform="translate(439,68)"/>
<path d="M0 0 C0 0.66 0 1.32 0 2 C-1.62171239 2.38897161 -3.24754925 2.76078298 -4.875 3.125 C-5.77992188 3.33382813 -6.68484375 3.54265625 -7.6171875 3.7578125 C-8.40351563 3.83773438 -9.18984375 3.91765625 -10 4 C-10.66 3.34 -11.32 2.68 -12 2 C-4.71428571 -1.57142857 -4.71428571 -1.57142857 0 0 Z " fill="#1C1C1C" transform="translate(187,276)"/>
<path d="M0 0 C0.66 0.33 1.32 0.66 2 1 C2.33 1.99 2.66 2.98 3 4 C1.03533587 5.06775224 -0.96855359 6.06553465 -3 7 C-3.66 6.67 -4.32 6.34 -5 6 C-5 4.68 -5 3.36 -5 2 C-2.625 0.9375 -2.625 0.9375 0 0 Z " fill="#313131" transform="translate(311,225)"/>
<path d="M0 0 C-1.32 0.99 -2.64 1.98 -4 3 C-3.67 5.31 -3.34 7.62 -3 10 C-4.65 9.01 -6.3 8.02 -8 7 C-7.40138258 4.64828869 -6.73075648 2.3140622 -6 0 C-3.50907189 -1.24546405 -2.58919267 -0.7767578 0 0 Z " fill="#333333" transform="translate(448,75)"/>
<path d="M0 0 C-1 3 -1 3 -3.375 4.1875 C-6 5 -6 5 -9 5 C-8 2 -8 2 -5.625 0.25 C-3 -1 -3 -1 0 0 Z " fill="#1A1A1A" transform="translate(307,229)"/>
<path d="M0 0 C0.36625971 4.51720311 0.36625971 4.51720311 -1.375 6.8125 C-3 8 -3 8 -5 8 C-5 7.34 -5 6.68 -5 6 C-5.66 5.67 -6.32 5.34 -7 5 C-1.125 0 -1.125 0 0 0 Z " fill="#2A2A2A" transform="translate(374,184)"/>
<path d="M0 0 C1.32 0.33 2.64 0.66 4 1 C4 1.99 4 2.98 4 4 C1.5 5.6875 1.5 5.6875 -1 7 C-1.66 5.68 -2.32 4.36 -3 3 C-2.01 2.67 -1.02 2.34 0 2 C0 1.34 0 0.68 0 0 Z " fill="#E9E9E9" transform="translate(231,144)"/>
<path d="M0 0 C2.625 0.75 2.625 0.75 5 2 C5.33 2.66 5.66 3.32 6 4 C5.34 4 4.68 4 4 4 C4 4.66 4 5.32 4 6 C3.01 6.33 2.02 6.66 1 7 C1 6.01 1 5.02 1 4 C-0.32 3.34 -1.64 2.68 -3 2 C-2.01 1.34 -1.02 0.68 0 0 Z " fill="#DEDEDE" transform="translate(438,81)"/>
<path d="M0 0 C0.5625 1.9375 0.5625 1.9375 1 4 C0.67 4.33 0.34 4.66 0 5 C0.99 5.66 1.98 6.32 3 7 C0.625 8.5625 0.625 8.5625 -2 10 C-2.66 9.67 -3.32 9.34 -4 9 C-3.71848913 7.68528432 -3.42446661 6.37324233 -3.125 5.0625 C-2.96257812 4.33160156 -2.80015625 3.60070312 -2.6328125 2.84765625 C-2 1 -2 1 0 0 Z " fill="#282828" transform="translate(209,266)"/>
<path d="M0 0 C3.69418201 1.231394 5.35109746 3.20791354 8 6 C7.67 6.99 7.34 7.98 7 9 C5.82460004 8.07347299 4.65989423 7.13336613 3.5 6.1875 C2.52546875 5.40439453 2.52546875 5.40439453 1.53125 4.60546875 C0 3 0 3 0 0 Z " fill="#E7E7E7" transform="translate(270,175)"/>
<path d="M0 0 C0.66 0.33 1.32 0.66 2 1 C2.625 3.0625 2.625 3.0625 3 5 C5.97 5.495 5.97 5.495 9 6 C8.34 6.66 7.68 7.32 7 8 C3.375 7.625 3.375 7.625 0 7 C-1.125 2.25 -1.125 2.25 0 0 Z " fill="#2B2B2B" transform="translate(383,169)"/>
<path d="M0 0 C2.6875 0.875 2.6875 0.875 5 2 C4.01 2.495 4.01 2.495 3 3 C3 4.98 3 6.96 3 9 C2.67 7.68 2.34 6.36 2 5 C0.68 5.33 -0.64 5.66 -2 6 C-2 5.34 -2 4.68 -2 4 C-1.01 4 -0.02 4 1 4 C-0.32 3.34 -1.64 2.68 -3 2 C-2.01 1.34 -1.02 0.68 0 0 Z " fill="#DFDFDF" transform="translate(290,289)"/>
<path d="M0 0 C-1.5 3 -1.5 3 -3 6 C-3.99 6 -4.98 6 -6 6 C-6 5.34 -6 4.68 -6 4 C-7.32 3.67 -8.64 3.34 -10 3 C-3.375 0 -3.375 0 0 0 Z " fill="#3C3C3C" transform="translate(301,230)"/>
<path d="M0 0 C2.64 0 5.28 0 8 0 C8 0.33 8 0.66 8 1 C6.35 1.33 4.7 1.66 3 2 C2.67 3.32 2.34 4.64 2 6 C-0.97 5.505 -0.97 5.505 -4 5 C-2.68 4.34 -1.36 3.68 0 3 C0 2.01 0 1.02 0 0 Z " fill="#D4D4D4" transform="translate(324,215)"/>
<path d="M0 0 C0.33 0.99 0.66 1.98 1 3 C-1.97 4.32 -4.94 5.64 -8 7 C-7.67 5.35 -7.34 3.7 -7 2 C-4.69 2 -2.38 2 0 2 C0 1.34 0 0.68 0 0 Z " fill="#1A1A1A" transform="translate(95,312)"/>
<path d="M0 0 C0.66 1.32 1.32 2.64 2 4 C0.68 5.32 -0.64 6.64 -2 8 C-2.99 7.67 -3.98 7.34 -5 7 C-1.125 1.125 -1.125 1.125 0 0 Z " fill="#E7E7E7" transform="translate(181,310)"/>
<path d="M0 0 C2.625 0.9375 2.625 0.9375 5 2 C3.4375 3.5625 3.4375 3.5625 1 5 C-2.75 4.6875 -2.75 4.6875 -6 4 C-4.03617993 2.49440461 -2.21736634 1.10868317 0 0 Z " fill="#2F2F2F" transform="translate(96,310)"/>
<path d="M0 0 C0.99 0 1.98 0 3 0 C3 0.66 3 1.32 3 2 C4.32 2.33 5.64 2.66 7 3 C7 3.99 7 4.98 7 6 C4 6 4 6 1.8125 4.125 C0 2 0 2 0 0 Z " fill="#202020" transform="translate(261,172)"/>
<path d="M0 0 C1.32 0 2.64 0 4 0 C4.33 2.31 4.66 4.62 5 7 C3.02 7.99 3.02 7.99 1 9 C1.66 6.69 2.32 4.38 3 2 C2.01 1.67 1.02 1.34 0 1 C0 0.67 0 0.34 0 0 Z " fill="#2F2F2F" transform="translate(135,357)"/>
<path d="M0 0 C-0.33 0.99 -0.66 1.98 -1 3 C-7.0546875 3.9765625 -7.0546875 3.9765625 -9 4 C-9.66 3.34 -10.32 2.68 -11 2 C-9.54494642 1.47007308 -8.08581873 0.9513211 -6.625 0.4375 C-5.81289062 0.14746094 -5.00078125 -0.14257812 -4.1640625 -0.44140625 C-2 -1 -2 -1 0 0 Z " fill="#D3D3D3" transform="translate(182,280)"/>
<path d="M0 0 C7.42857143 -0.28571429 7.42857143 -0.28571429 11 2 C8.3125 3.1875 8.3125 3.1875 5 4 C2.125 2.6875 2.125 2.6875 0 1 C0 0.67 0 0.34 0 0 Z " fill="#202020" transform="translate(309,207)"/>
<path d="M0 0 C2.64 0 5.28 0 8 0 C8 0.33 8 0.66 8 1 C6.35 1.33 4.7 1.66 3 2 C3.99 2.99 4.98 3.98 6 5 C3.69 4.67 1.38 4.34 -1 4 C-0.67 2.68 -0.34 1.36 0 0 Z " fill="#D0CECF" transform="translate(369,80)"/>
<path d="M0 0 C0.66 0.33 1.32 0.66 2 1 C1.67 2.65 1.34 4.3 1 6 C-0.65 6.33 -2.3 6.66 -4 7 C-4.33 5.35 -4.66 3.7 -5 2 C-4.01 2 -3.02 2 -2 2 C-1.34 1.34 -0.68 0.68 0 0 Z " fill="#DADADA" transform="translate(76,401)"/>
<path d="M0 0 C2.31 0 4.62 0 7 0 C5.02579865 2.52259061 4.03254358 2.9929808 0.8125 3.6875 C-0.5796875 3.8421875 -0.5796875 3.8421875 -2 4 C-1.34 2.68 -0.68 1.36 0 0 Z " fill="#161616" transform="translate(250,250)"/>
<path d="M0 0 C0 0.99 0 1.98 0 3 C-1.65 3.66 -3.3 4.32 -5 5 C-5.99 3.68 -6.98 2.36 -8 1 C-5.07175348 0.02391783 -3.04386724 -0.08226668 0 0 Z " fill="#373737" transform="translate(326,221)"/>
<path d="M0 0 C0.66 0.33 1.32 0.66 2 1 C1.4375 2.9375 1.4375 2.9375 0 5 C-3.85909105 5.91214879 -6.21603308 6.26132231 -10 5 C-9.67 4.34 -9.34 3.68 -9 3 C-7.6078125 3.0928125 -7.6078125 3.0928125 -6.1875 3.1875 C-3.01604897 3.30894264 -3.01604897 3.30894264 -1.125 1.5 C-0.75375 1.005 -0.3825 0.51 0 0 Z " fill="#E4E4E4" transform="translate(350,208)"/>
<path d="M0 0 C0.66 0 1.32 0 2 0 C2.66 1.65 3.32 3.3 4 5 C2.02 5.99 0.04 6.98 -2 8 C-1.34 5.36 -0.68 2.72 0 0 Z " fill="#1D1D1D" transform="translate(436,76)"/>
<path d="M0 0 C3.63 0 7.26 0 11 0 C11 0.33 11 0.66 11 1 C9.081875 1.4640625 9.081875 1.4640625 7.125 1.9375 C4.89898325 2.47605244 3.05260001 2.9737 1 4 C-1.00800456 3.71887936 -3.01014051 3.38932033 -5 3 C-5 2.67 -5 2.34 -5 2 C-3.35 1.67 -1.7 1.34 0 1 C0 0.67 0 0.34 0 0 Z " fill="#BFBFBF" transform="translate(426,73)"/>
<path d="M0 0 C0.763125 0.20625 1.52625 0.4125 2.3125 0.625 C2.3125 1.285 2.3125 1.945 2.3125 2.625 C0.6625 3.285 -0.9875 3.945 -2.6875 4.625 C-3.6775 3.635 -4.6675 2.645 -5.6875 1.625 C-2.6875 -0.375 -2.6875 -0.375 0 0 Z " fill="#2A2A2A" transform="translate(99.6875,381.375)"/>
<path d="M0 0 C0.99 0.66 1.98 1.32 3 2 C-1.75 6.875 -1.75 6.875 -4 8 C-4 8.66 -4 9.32 -4 10 C-4.99 9.67 -5.98 9.34 -7 9 C-4.69 6.03 -2.38 3.06 0 0 Z " fill="#D9D9D9" transform="translate(202,283)"/>
<path d="M0 0 C0.78375 0.04125 1.5675 0.0825 2.375 0.125 C2.705 1.115 3.035 2.105 3.375 3.125 C0.76917629 4.05565133 -0.26698224 4.27417407 -2.875 3.1875 C-3.4525 2.836875 -4.03 2.48625 -4.625 2.125 C-2.625 0.125 -2.625 0.125 0 0 Z " fill="#272727" transform="translate(198.625,269.875)"/>
<path d="M0 0 C1.11375 0.4640625 1.11375 0.4640625 2.25 0.9375 C4.50692176 1.8094925 6.6450153 2.47667007 9 3 C9 3.66 9 4.32 9 5 C7.02 5.33 5.04 5.66 3 6 C2.01 4.02 1.02 2.04 0 0 Z " fill="#E5E5E5" transform="translate(333,223)"/>
<path d="M0 0 C4 0 4 0 5.75 1.5 C6.1625 1.995 6.575 2.49 7 3 C6.01 3.99 5.02 4.98 4 6 C2.62437146 4.71034824 1.29233607 3.37310707 0 2 C0 1.34 0 0.68 0 0 Z " fill="#323232" transform="translate(246,156)"/>
<path d="M0 0 C0.66 0.33 1.32 0.66 2 1 C0.47793991 3.62901288 -0.84365964 5.84365964 -3 8 C-3.66 7.34 -4.32 6.68 -5 6 C-5.66 5.67 -6.32 5.34 -7 5 C-4.69 3.35 -2.38 1.7 0 0 Z " fill="#E3E3E3" transform="translate(439,142)"/>
<path d="M0 0 C0.928125 0.2784375 0.928125 0.2784375 1.875 0.5625 C4.04160178 1.23686176 4.04160178 1.23686176 6 0 C6 0.99 6 1.98 6 3 C5.34 3 4.68 3 4 3 C4 3.66 4 4.32 4 5 C2.35 4.67 0.7 4.34 -1 4 C-0.67 2.68 -0.34 1.36 0 0 Z " fill="#D7D6D7" transform="translate(379,89)"/>
<path d="M0 0 C1.65 0.33 3.3 0.66 5 1 C3.515 2.485 3.515 2.485 2 4 C3.65 4.33 5.3 4.66 7 5 C7 5.33 7 5.66 7 6 C4.69 6 2.38 6 0 6 C-1.125 2.25 -1.125 2.25 0 0 Z " fill="#C2C2C2" transform="translate(84,385)"/>
<path d="M0 0 C2.31 0 4.62 0 7 0 C6.67 1.98 6.34 3.96 6 6 C3.97945196 4.35830472 1.97956942 2.69088222 0 1 C0 0.67 0 0.34 0 0 Z " fill="#1C1C1C" transform="translate(279,355)"/>
<path d="M0 0 C0.66 0.33 1.32 0.66 2 1 C-2.625 5.875 -2.625 5.875 -6 7 C-6 5.68 -6 4.36 -6 3 C-4.03533587 1.93224776 -2.03144641 0.93446535 0 0 Z " fill="#E0E0E0" transform="translate(67,328)"/>
<path d="M0 0 C0.66 1.32 1.32 2.64 2 4 C1.01 4.495 1.01 4.495 0 5 C-0.66 4.67 -1.32 4.34 -2 4 C-2.33 4.99 -2.66 5.98 -3 7 C-4.32 5.68 -5.64 4.36 -7 3 C-4.69 3 -2.38 3 0 3 C0 2.01 0 1.02 0 0 Z " fill="#262626" transform="translate(145,283)"/>
<path d="M0 0 C1.65 1.65 3.3 3.3 5 5 C3.02 5.99 3.02 5.99 1 7 C0.34 5.02 -0.32 3.04 -1 1 C-0.67 0.67 -0.34 0.34 0 0 Z " fill="#E8E8E8" transform="translate(249,161)"/>
<path d="M0 0 C2.31 0 4.62 0 7 0 C6.67 1.98 6.34 3.96 6 6 C3.97945196 4.35830472 1.97956942 2.69088222 0 1 C0 0.67 0 0.34 0 0 Z " fill="#393939" transform="translate(68,394)"/>
<path d="M0 0 C0.33 0.99 0.66 1.98 1 3 C-0.8125 4.0625 -0.8125 4.0625 -3 5 C-3.99 4.67 -4.98 4.34 -6 4 C-6 3.34 -6 2.68 -6 2 C-2.25 0 -2.25 0 0 0 Z " fill="#1F1F1F" transform="translate(105,378)"/>
<path d="M0 0 C0 3.23861295 -0.6250851 5.09740189 -2 8 C-2.99 8.495 -2.99 8.495 -4 9 C-4.66 8.34 -5.32 7.68 -6 7 C-4.02 4.69 -2.04 2.38 0 0 Z " fill="#E1E1E1" transform="translate(157,340)"/>
<path d="M0 0 C4 0 4 0 5.75 1.5 C6.1625 1.995 6.575 2.49 7 3 C6.67 3.66 6.34 4.32 6 5 C4.35 4.67 2.7 4.34 1 4 C0.67 2.68 0.34 1.36 0 0 Z " fill="#171012" transform="translate(143,287)"/>
<path d="M0 0 C0 0.66 0 1.32 0 2 C-2.5 3.625 -2.5 3.625 -5 5 C-5.33 3.35 -5.66 1.7 -6 0 C-2.25 -1.125 -2.25 -1.125 0 0 Z " fill="#ECEBEC" transform="translate(301,285)"/>
<path d="M0 0 C0.66 0.66 1.32 1.32 2 2 C1.625 4.125 1.625 4.125 1 6 C0.34 5.67 -0.32 5.34 -1 5 C-1 5.99 -1 6.98 -1 8 C-1.99 7.67 -2.98 7.34 -4 7 C-3.34 7 -2.68 7 -2 7 C-1.855625 6.030625 -1.71125 5.06125 -1.5625 4.0625 C-1 1 -1 1 0 0 Z " fill="#323232" transform="translate(334,210)"/>
<path d="M0 0 C2.475 0.495 2.475 0.495 5 1 C5 2.32 5 3.64 5 5 C3.35 4.67 1.7 4.34 0 4 C0 2.68 0 1.36 0 0 Z " fill="#232223" transform="translate(301,202)"/>
<path d="M0 0 C4 0 4 0 6.75 2.5 C7.86375 3.7375 7.86375 3.7375 9 5 C8.01 5 7.02 5 6 5 C6 4.34 6 3.68 6 3 C4.68 3.33 3.36 3.66 2 4 C1.34 2.68 0.68 1.36 0 0 Z " fill="#383838" transform="translate(258,169)"/>
<path d="M0 0 C0.66 0 1.32 0 2 0 C2.33 0.99 2.66 1.98 3 3 C1.02 3.99 1.02 3.99 -1 5 C-1 5.66 -1 6.32 -1 7 C-1.66 7 -2.32 7 -3 7 C-2.67 5.35 -2.34 3.7 -2 2 C-1.34 2 -0.68 2 0 2 C0 1.34 0 0.68 0 0 Z " fill="#403E3F" transform="translate(376,85)"/>
<path d="M0 0 C2.475 0.99 2.475 0.99 5 2 C5 2.99 5 3.98 5 5 C4.34 5 3.68 5 3 5 C3 4.34 3 3.68 3 3 C1.68 3.33 0.36 3.66 -1 4 C-1 1 -1 1 0 0 Z " fill="#E1E1E1" transform="translate(286,362)"/>
<path d="M0 0 C2.31 0 4.62 0 7 0 C7 1.65 7 3.3 7 5 C6.01 5.33 5.02 5.66 4 6 C3.34 5.34 2.68 4.68 2 4 C2.99 3.34 3.98 2.68 5 2 C3.35 1.67 1.7 1.34 0 1 C0 0.67 0 0.34 0 0 Z " fill="#C8C7C8" transform="translate(38,339)"/>
<path d="M0 0 C0.99 0 1.98 0 3 0 C2.67 1.32 2.34 2.64 2 4 C0.35 4.33 -1.3 4.66 -3 5 C-1.6875 2.5 -1.6875 2.5 0 0 Z " fill="#1A1A1A" transform="translate(59,328)"/>
<path d="M0 0 C0.99 0 1.98 0 3 0 C2.6875 1.875 2.6875 1.875 2 4 C1.01 4.66 0.02 5.32 -1 6 C-1.625 4.125 -1.625 4.125 -2 2 C-1.34 1.34 -0.68 0.68 0 0 Z " fill="#1A1A1A" transform="translate(185,299)"/>
<path d="M0 0 C0.66 0.33 1.32 0.66 2 1 C2.33 1.99 2.66 2.98 3 4 C2.01 4.66 1.02 5.32 0 6 C-0.99 5.01 -1.98 4.02 -3 3 C-2.01 2.01 -1.02 1.02 0 0 Z " fill="#343434" transform="translate(352,201)"/>
<path d="M0 0 C1.9375 0.75 1.9375 0.75 4 2 C4.75 4.125 4.75 4.125 5 6 C3.02 5.01 1.04 4.02 -1 3 C-0.67 2.01 -0.34 1.02 0 0 Z " fill="#1F1F1F" transform="translate(257,165)"/>
<path d="M0 0 C1.98 0.99 1.98 0.99 4 2 C4 3.32 4 4.64 4 6 C3.01 6 2.02 6 1 6 C0.67 4.02 0.34 2.04 0 0 Z " fill="#212121" transform="translate(440,87)"/>
<path d="M0 0 C0.66 0 1.32 0 2 0 C2.33 1.98 2.66 3.96 3 6 C2.01 6 1.02 6 0 6 C-1.24546405 3.50907189 -0.7767578 2.58919267 0 0 Z " fill="#3F3F3F" transform="translate(76,388)"/>
<path d="M0 0 C0.33 0.66 0.66 1.32 1 2 C3.31 2 5.62 2 8 2 C6.75 3.5625 6.75 3.5625 5 5 C2.8125 4.6875 2.8125 4.6875 1 4 C0.67 2.68 0.34 1.36 0 0 Z " fill="#1F1F1F" transform="translate(288,353)"/>
<path d="M0 0 C0.66 0.33 1.32 0.66 2 1 C2 2.32 2 3.64 2 5 C2.99 5.33 3.98 5.66 5 6 C1.31245243 5.50168276 -0.60490662 4.89932357 -3 2 C-2.01 1.34 -1.02 0.68 0 0 Z " fill="#E5E5E5" transform="translate(144,346)"/>
<path d="M0 0 C0.99 0 1.98 0 3 0 C3 2.64 3 5.28 3 8 C2.34 8 1.68 8 1 8 C0.67 5.36 0.34 2.72 0 0 Z " fill="#DADADA" transform="translate(284,285)"/>
<path d="M0 0 C0.66 0.33 1.32 0.66 2 1 C0.75 3.9375 0.75 3.9375 -1 7 C-2.32 7.33 -3.64 7.66 -5 8 C-3.35 5.36 -1.7 2.72 0 0 Z " fill="#363636" transform="translate(304,260)"/>
<path d="M0 0 C0 0.99 0 1.98 0 3 C-2.64 2.67 -5.28 2.34 -8 2 C-4.77208445 -0.1519437 -3.71599191 -0.20086443 0 0 Z " fill="#242424" transform="translate(274,242)"/>
<path d="M0 0 C1.65 0 3.3 0 5 0 C4.34 1.32 3.68 2.64 3 4 C1.35 4 -0.3 4 -2 4 C-1.34 2.68 -0.68 1.36 0 0 Z " fill="#323232" transform="translate(324,231)"/>
<path d="M0 0 C2.33333333 0 4.66666667 0 7 0 C7.66 0.99 8.32 1.98 9 3 C5.625 3.1875 5.625 3.1875 2 3 C1.34 2.01 0.68 1.02 0 0 Z " fill="#161616" transform="translate(326,216)"/>
<path d="M0 0 C0 0.99 0 1.98 0 3 C-0.928125 3.185625 -0.928125 3.185625 -1.875 3.375 C-4.19120832 3.87197356 -4.19120832 3.87197356 -6 6 C-6 5.34 -6 4.68 -6 4 C-6.66 3.67 -7.32 3.34 -8 3 C-4.93882432 0.37613513 -4.26826873 0 0 0 Z " fill="#D5D5D5" transform="translate(328,210)"/>
<path d="M0 0 C0.33 0.66 0.66 1.32 1 2 C1.66 2.33 2.32 2.66 3 3 C1.02 3.99 1.02 3.99 -1 5 C-1.99 4.34 -2.98 3.68 -4 3 C-2.68 2.01 -1.36 1.02 0 0 Z " fill="#2E2E2E" transform="translate(396,167)"/>
<path d="M0 0 C0 1.65 0 3.3 0 5 C-0.99 5.33 -1.98 5.66 -3 6 C-3 5.34 -3 4.68 -3 4 C-3.99 3.67 -4.98 3.34 -6 3 C-1.125 0 -1.125 0 0 0 Z " fill="#333333" transform="translate(441,137)"/>
<path d="M0 0 C1.32 0.66 2.64 1.32 4 2 C3.01 2.99 2.02 3.98 1 5 C0.01 4.01 -0.98 3.02 -2 2 C-1.34 1.34 -0.68 0.68 0 0 Z " fill="#2C2C2C" transform="translate(106,376)"/>
<path d="M0 0 C0 0.66 0 1.32 0 2 C-3 4 -3 4 -5.1875 3.625 C-5.785625 3.41875 -6.38375 3.2125 -7 3 C-7 2.34 -7 1.68 -7 1 C-2.25 0 -2.25 0 0 0 Z " fill="#1D1D1D" transform="translate(115,374)"/>
<path d="M0 0 C0.66 0.33 1.32 0.66 2 1 C1.67 2.32 1.34 3.64 1 5 C-1.31 4.67 -3.62 4.34 -6 4 C-4 2.66666667 -2 1.33333333 0 0 Z " fill="#2E2E2E" transform="translate(56,329)"/>
<path d="M0 0 C2.625 0.9375 2.625 0.9375 5 2 C3.68 2.99 2.36 3.98 1 5 C0.67 4.01 0.34 3.02 0 2 C-0.66 1.67 -1.32 1.34 -2 1 C-1.34 0.67 -0.68 0.34 0 0 Z " fill="#2D2D2D" transform="translate(69,323)"/>
<path d="M0 0 C-0.3125 1.875 -0.3125 1.875 -1 4 C-1.99 4.66 -2.98 5.32 -4 6 C-4.33 4.68 -4.66 3.36 -5 2 C-2 0 -2 0 0 0 Z " fill="#1B1B1B" transform="translate(326,234)"/>
<path d="M0 0 C1.7074998 1.28062485 3.37373596 2.61767557 5 4 C5 4.66 5 5.32 5 6 C3.35 6 1.7 6 0 6 C0 4.02 0 2.04 0 0 Z " fill="#414141" transform="translate(276,184)"/>
<path d="M0 0 C0.66 0.33 1.32 0.66 2 1 C2 2.32 2 3.64 2 5 C0 6.75 0 6.75 -2 8 C-2 4.79604584 -1.25664978 2.90600261 0 0 Z " fill="#EEEEEE" transform="translate(375,184)"/>
<path d="M0 0 C2 1 2 1 3 3 C2.01 3 1.02 3 0 3 C-0.66 4.32 -1.32 5.64 -2 7 C-2.6875 5.1875 -2.6875 5.1875 -3 3 C-1.5625 1.25 -1.5625 1.25 0 0 Z " fill="#DCDCDC" transform="translate(457,131)"/>
<path d="M0 0 C0.99 0.99 1.98 1.98 3 3 C3.66 2.67 4.32 2.34 5 2 C5 3.65 5 5.3 5 7 C2.5 5.75 2.5 5.75 0 4 C0 2.68 0 1.36 0 0 Z " fill="#2E2C2D" transform="translate(379,84)"/>
</svg>
