<?xml version="1.0" encoding="UTF-8"?>
<svg version="1.1" viewBox="0 0 120 120" xmlns="http://www.w3.org/2000/svg">
<title>Artboard1</title>
<desc>Created with Sketch.</desc>
<g fill="none" fill-rule="evenodd">
<g transform="translate(13 12.5)" stroke="#6B6B6B">
<ellipse cx="47.088" cy="46.693" rx="9.2416" ry="9.0933" stroke-linecap="round" stroke-width="2"/>
<path d="m5.941 69.282c-3.7406-6.7117-5.7943-14.434-5.7943-22.733 0-7.5056 1.8336-14.506 4.9875-20.713l1.907-3.3198c8.2147-13.496 23.324-22.084 38.213-22.084" stroke-linecap="round" stroke-width="2"/>
<path d="m86.328 72.819c-8.2881 13.207-22.15 21.434-39.167 21.434-17.09 0-33.006-9.3098-39.607-21.29" stroke-linecap="round" stroke-width="2"/>
<path d="m87.648 68.849c3.4473-6.3509 5.6476-14.434 5.6476-22.156 0-16.599-13.496-46.333-44.961-46.333" stroke-linecap="round" stroke-width="2"/>
<rect transform="translate(46.976 46.399) rotate(-15.337) translate(-46.976 -46.399)" x="18.957" y="18.83" width="56.037" height="55.138" stroke-linecap="round" stroke-width="2"/>
<path d="m41.88 65.818l-0.51342 0.14434-2.0537-6.4231 0.51342-0.14434c0.14669-0.072169 0.22004-0.21651 0.14669-0.36085-0.073346-0.14434-0.22004-0.21651-0.36673-0.14434l-7.4079 2.3094c-0.14669 0.072169-0.22004 0.21651-0.14669 0.36085 0.073346 0.14434 0.22004 0.21651 0.36673 0.14434l0.51342-0.14434 2.0537 6.4231-0.51342 0.14434c-0.14669 0.072169-0.22004 0.21651-0.14669 0.36085 0.073346 0.14434 0.22004 0.21651 0.36673 0.14434l7.4079-2.3094c0.14669-0.072169 0.22004-0.21651 0.14669-0.36085-0.073346-0.14434-0.22004-0.21651-0.36673-0.14434zm-2.127 0.64952l-3.2272 1.0104-2.0537-6.4231 3.2272-1.0104 2.0537 6.4231z" fill="#6B6B6B" fill-rule="nonzero" stroke-width=".4"/>
<path d="m69.458 57.591c0.073346-0.28868 0.073346-0.57735 0.073346-0.9382 0.073346-0.57735 0-1.3712-0.22004-2.0929-0.36673-1.0825-1.0268-2.0929-1.7603-2.3094l-0.073346-0.072169c-1.1002-0.79386-2.3471-0.21651-3.0805 0.43302-1.0268-0.36085-1.9803 0.14434-2.4938 0.72169-0.22004-0.072169-0.36673-0.072169-0.51342-0.072169-0.73346 0.072169-1.1735 0.79386-1.3202 0.86603-0.14669 0.21651-0.073346 0.57735 0.14669 0.72169 0.22004 0.14434 0.58677 0.072169 0.73346-0.14434 0.073346-0.14434 0.36673-0.36085 0.44007-0.43302 0 0 0.073346 0 0.073346 0.072169v0.072169l1.6136 4.9797c0.073346 0.28868 0.36673 0.43302 0.66011 0.36085s0.44007-0.36085 0.36673-0.64952l-1.6136-4.9075c0.29338-0.28868 0.8068-0.72169 1.4669-0.50518l1.6136 4.9797c0.073346 0.28868 0.36673 0.43302 0.66011 0.36085s0.44007-0.36085 0.36673-0.64952l-1.5403-4.9075c0.29338-0.21651 0.8068-0.50518 1.2469-0.50518-0.29338 0.64952-0.14669 1.6599 0.073346 2.5259 0.22004 0.79386 0.66011 1.5156 1.1735 1.9486 0.22004 0.21651 0.44007 0.43302 0.58677 0.64952-0.14669 0.64952-0.22004 1.0104-0.22004 1.0825-0.073346 0.28868 0.073346 0.57735 0.36673 0.64952h0.29338c0.14669-0.072169 0.29338-0.21651 0.36673-0.36085 0 0 0.073346-0.21651 0.14669-0.57735 0.29338 0.21651 0.51342 0.36085 0.58677 0.36085 0.14669 0.072169 0.29338 0.072169 0.44007 0.072169 0.14669-0.072169 0.22004-0.14434 0.29338-0.21651 0.14669-0.21651 0.073346-0.57735-0.14669-0.72169 0.073346-0.14434-0.29338-0.43302-0.8068-0.79386zm-1.0268-1.8764v0.79386 0.072169c-0.22004-0.21651-0.36673-0.43302-0.51342-0.64952-0.14669-0.21651-0.22004-0.50518-0.36673-0.86603-0.29338-0.86603-0.22004-1.5156-0.14669-1.7321 0.22004 0.14434 0.58677 0.64952 0.88015 1.5156 0.073346 0.36085 0.14669 0.64952 0.14669 0.86603z" fill="#6B6B6B" fill-rule="nonzero" stroke-width=".4"/>
<path d="m58.383 25.259l-0.073346-0.072169c-0.14669-0.072169-0.36673-0.072169-0.51342 0l-0.88015 0.57735c-0.14669 0.072169-0.29338 0.28868-0.22004 0.50518 0 0.21651 0.14669 0.36085 0.29338 0.43302l-2.4938 4.3302-0.8068-0.43302c-0.073346-0.14434-0.22004-0.21651-0.36673-0.14434l-0.14669 0.072169c-0.14669 0.072169-0.22004 0.21651-0.14669 0.36085l0.073346 0.14434c0.073346 0.14434 0.22004 0.21651 0.36673 0.14434h0.073346l0.73346 0.43302-1.4669 2.6703c-0.14669 0.28868-0.073346 0.57735 0.22004 0.72169 0.14669 0.072169 0.29338 0.072169 0.44007 0.072169 0.14669-0.072169 0.22004-0.14434 0.29338-0.21651l1.4669-2.6703 0.8068 0.43302c0.073346 0.14434 0.22004 0.21651 0.36673 0.14434l0.14669-0.072169c0.14669-0.072169 0.22004-0.21651 0.14669-0.36085l-0.073346-0.14434c-0.073346-0.14434-0.22004-0.21651-0.36673-0.14434h-0.073346l-0.73346-0.43302 2.4938-4.4023c0.14669 0.072169 0.29338 0.072169 0.44007 0 0.073346 0 0.073346 0 0.14669-0.072169 0.14669-0.072169 0.29338-0.28868 0.22004-0.50518l-0.073346-0.86603c-0.073346-0.14434-0.14669-0.36085-0.29338-0.50518z" fill="#6B6B6B" fill-rule="nonzero" stroke-width=".4"/>
<path d="m32.272 37.384c-0.66011-0.072169-1.2469-0.072169-1.8336 0-0.14669-0.9382 0.073346-2.0207 0.73346-3.1754 0.14669-0.28868 0-0.57735-0.22004-0.72169-0.14669-0.072169-0.29338-0.072169-0.44007 0-0.14669 0.072169-0.22004 0.14434-0.29338 0.21651-0.36673 0.50518-0.8068 1.5877-0.88015 2.5981 0 0.36085 0 0.79386 0.073346 1.2269-0.73346 0.14434-1.4669 0.43302-2.127 0.64952-0.22004-0.43302-0.44007-0.79386-0.66011-1.0825-0.66011-0.79386-1.6136-1.4434-2.2737-1.5877-0.14669-0.072169-0.22004-0.072169-0.36673-0.072169-0.14669 0.072169-0.22004 0.14434-0.29338 0.28868-0.14669 0.28868-0.073346 0.57735 0.22004 0.72169 1.2469 0.64952 2.0537 1.3712 2.4938 2.2372-1.0268 0.50518-1.6136 1.0104-1.687 1.0104-0.22004 0.14434-0.29338 0.50518-0.073346 0.72169 0.14669 0.21651 0.36673 0.28868 0.58677 0.21651 0.073346 0 0.14669-0.072169 0.14669-0.072169s0.51342-0.36085 1.3202-0.79386c0.073346 0.86603-0.22004 1.8042-0.73346 2.8868-0.14669 0.28868 0 0.57735 0.22004 0.72169 0.14669 0.072169 0.29338 0.072169 0.44007 0 0.14669-0.072169 0.22004-0.14434 0.29338-0.21651 0.36673-0.50518 0.8068-1.5877 0.88015-2.5981 0-0.36085 0-0.79386-0.073346-1.2269 0.58677-0.28868 1.3202-0.50518 2.127-0.64952 0.22004 0.43302 0.44007 0.79386 0.66011 1.0825 0.66011 0.79386 1.6136 1.4434 2.2737 1.5877 0.14669 0.072169 0.22004 0.072169 0.36673 0.072169 0.14669-0.072169 0.22004-0.14434 0.29338-0.28868 0.14669-0.28868 0.073346-0.57735-0.22004-0.72169-1.1002-0.57735-1.8336-1.2269-2.2737-1.9486 0.44007-0.072169 0.88015-0.072169 1.3202 0 0.29338 0 0.58677-0.21651 0.58677-0.50518-0.073346-0.28868-0.29338-0.50518-0.58677-0.57735z" fill="#6B6B6B" fill-rule="nonzero" stroke-width=".4"/>
<path d="m37.626 12.99l6.8285 24.68m5.0585 18.283l6.7429 24.371" stroke-linecap="round" stroke-width="2"/>
<path d="m12.762 55.859l25.135-6.733m18.349-4.9153l24.947-6.6827" stroke-linecap="round" stroke-width="2"/>
</g>
</g>
</svg>
