<?xml version="1.0" standalone="no"?>
<!DOCTYPE svg PUBLIC "-//W3C//DTD SVG 20010904//EN"
 "http://www.w3.org/TR/2001/REC-SVG-20010904/DTD/svg10.dtd">
<svg version="1.0" xmlns="http://www.w3.org/2000/svg"
 width="300.000000pt" height="210.000000pt" viewBox="0 0 300.000000 210.000000"
 preserveAspectRatio="xMidYMid meet">

<g transform="translate(0.000000,210.000000) scale(0.100000,-0.100000)"
fill="#000000" stroke="none">
<path d="M1370 1719 c-180 -22 -302 -82 -428 -211 -113 -115 -184 -235 -218
-368 -22 -85 -21 -242 1 -340 52 -228 212 -430 420 -530 163 -79 294 -97 477
-65 84 15 110 24 223 75 201 91 348 290 391 529 22 117 19 267 -5 362 -52 203
-207 398 -381 481 -131 62 -315 88 -480 67z"/>
</g>
</svg>
