<?xml version="1.0" standalone="no"?>
<!DOCTYPE svg PUBLIC "-//W3C//DTD SVG 20010904//EN"
 "http://www.w3.org/TR/2001/REC-SVG-20010904/DTD/svg10.dtd">
<svg version="1.0" xmlns="http://www.w3.org/2000/svg"
 width="300.000000pt" height="210.000000pt" viewBox="0 0 300.000000 210.000000"
 preserveAspectRatio="xMidYMid meet">

<g transform="translate(0.000000,210.000000) scale(0.100000,-0.100000)"
fill="#000000" stroke="none">
<path d="M1892 1310 c1 -13 9 -25 16 -28 17 -5 15 23 -4 39 -14 11 -15 10 -12
-11z"/>
<path d="M1738 1296 c-23 -17 -23 -26 -1 -26 14 0 12 -4 -7 -25 -13 -14 -30
-23 -37 -21 -16 7 -28 -13 -15 -26 13 -13 52 -1 52 16 0 8 7 20 17 27 15 13
16 11 9 -14 -4 -18 -2 -34 5 -43 9 -11 9 -18 -1 -29 -11 -13 -9 -15 13 -15 33
0 37 22 18 103 -16 69 -23 76 -53 53z"/>
<path d="M1680 1269 c0 -5 5 -7 10 -4 6 3 10 8 10 11 0 2 -4 4 -10 4 -5 0 -10
-5 -10 -11z"/>
<path d="M1840 1155 c0 -8 9 -15 20 -15 25 0 36 -25 20 -45 -13 -16 -40 -9
-40 11 0 8 -4 14 -10 14 -5 0 -2 -16 7 -35 16 -33 33 -46 33 -26 0 5 6 16 13
23 13 15 37 55 37 63 0 3 -9 5 -19 5 -11 0 -23 5 -26 10 -10 15 -35 12 -35 -5z"/>
<path d="M1603 1115 c-10 -11 -7 -14 17 -13 24 1 28 4 19 15 -14 16 -21 16
-36 -2z"/>
<path d="M1235 1049 c-10 -15 1 -23 20 -15 9 3 13 10 10 16 -8 13 -22 13 -30
-1z"/>
<path d="M1870 999 c-11 -6 -12 -9 -2 -9 7 0 11 -4 8 -8 -3 -5 1 -9 9 -9 16 0
21 22 7 31 -4 2 -14 1 -22 -5z"/>
<path d="M1726 964 c-9 -22 -8 -23 14 -21 23 2 25 10 6 26 -11 9 -15 8 -20 -5z"/>
<path d="M2066 965 c-24 -18 -86 -20 -86 -2 -2 36 -31 -51 -33 -97 -2 -48 -5
-56 -29 -71 -27 -16 -28 -15 -29 7 -1 13 -1 26 0 31 0 4 -6 7 -14 7 -9 0 -21
11 -27 25 l-11 25 -24 -26 c-16 -17 -31 -24 -43 -21 -26 7 -27 -28 -2 -56 16
-19 16 -19 -7 -12 -23 7 -24 6 -18 -29 5 -32 3 -38 -19 -48 -19 -9 -28 -8 -43
6 -32 29 -23 53 17 50 32 -2 33 -1 27 24 -8 33 -15 41 -43 47 -16 3 -27 -5
-42 -30 -12 -19 -29 -36 -39 -40 -14 -4 -17 -15 -15 -58 3 -69 2 -67 15 -67 6
0 9 9 6 19 -7 28 26 55 56 47 37 -9 77 -55 77 -87 0 -35 30 -41 31 -6 0 12 3
17 5 10 3 -7 12 -9 20 -6 17 6 19 -23 2 -30 -10 -4 -9 -8 2 -16 12 -8 12 -11
1 -11 -11 0 -11 -3 -1 -15 8 -10 20 -13 29 -9 9 4 45 12 79 18 l64 11 -27 29
c-20 21 -24 31 -15 40 8 8 14 6 21 -6 14 -25 32 -23 19 2 -9 17 -8 20 14 18
21 -2 24 -6 20 -25 -4 -14 -2 -23 5 -23 6 0 11 4 11 9 0 5 8 7 19 4 15 -4 19
2 23 34 3 21 2 40 -2 43 -4 3 -10 22 -13 42 -6 40 11 65 38 55 8 -4 17 -1 21
4 4 8 -11 10 -46 8 -59 -4 -68 5 -41 40 16 21 26 24 78 22 50 -2 62 2 80 21
12 13 19 28 15 33 -9 13 -76 37 -92 33 -7 -2 -15 3 -17 10 -3 6 0 12 6 12 6 0
11 5 11 10 0 14 -11 12 -34 -5z m-242 -144 c3 -5 -10 -11 -29 -13 -36 -4 -49
7 -17 15 29 8 41 7 46 -2z m141 -102 c8 -25 5 -28 -29 -35 -22 -4 -26 -1 -26
20 0 38 44 50 55 15z m-105 6 c0 -12 -25 -55 -32 -55 -4 0 -8 13 -8 28 0 21 5
28 20 29 11 1 20 0 20 -2z m-51 -76 c-16 -10 -23 -4 -14 10 3 6 11 8 17 5 6
-4 5 -9 -3 -15z"/>
<path d="M1697 963 c-3 -5 -1 -17 4 -28 7 -17 8 -17 8 8 1 27 -4 34 -12 20z"/>
<path d="M1800 948 c0 -7 6 -20 13 -30 12 -15 15 -15 37 2 22 16 23 20 8 25
-9 4 -22 4 -28 0 -5 -3 -10 -1 -10 4 0 6 -4 11 -10 11 -5 0 -10 -6 -10 -12z"/>
<path d="M1329 753 c-1 -4 -1 -11 0 -15 0 -4 -15 -4 -33 -1 -20 3 -36 1 -40
-6 -4 -6 -3 -11 3 -11 5 0 12 -13 16 -28 5 -25 10 -28 35 -24 18 2 30 10 30
19 0 8 7 13 18 11 10 -2 16 -12 15 -25 -2 -15 4 -22 23 -26 13 -2 27 0 30 5 3
5 12 7 20 4 9 -3 14 1 14 12 0 10 5 23 12 30 9 9 2 12 -35 12 -26 0 -47 5 -47
11 0 5 -4 8 -8 5 -5 -3 -19 4 -30 15 -12 11 -23 16 -23 12z"/>
<path d="M1155 603 c4 -48 -7 -68 -41 -71 -15 -1 -29 -4 -31 -6 -6 -6 61 -42
77 -40 8 0 23 2 33 2 10 1 16 6 13 11 -3 5 1 11 9 15 23 8 18 23 -10 30 -14 4
-23 11 -20 16 4 6 11 8 16 5 5 -4 18 -4 28 0 16 5 17 9 7 30 -7 16 -19 25 -33
25 -13 0 -23 5 -23 10 0 6 -6 10 -14 10 -11 0 -14 -10 -11 -37z"/>
<path d="M1530 580 c-11 -11 -20 -29 -20 -40 0 -11 -7 -20 -15 -20 -28 0 -15
-19 19 -28 44 -13 81 -8 108 15 34 27 24 70 -15 64 -4 -1 -10 6 -13 14 -8 21
-40 19 -64 -5z"/>
<path d="M1664 569 c-6 -10 19 -32 36 -34 3 0 11 -4 17 -8 16 -10 13 34 -2 45
-15 11 -43 9 -51 -3z"/>
<path d="M1400 550 c-14 -10 -23 -21 -20 -23 3 -3 16 3 29 14 31 25 23 33 -9
9z"/>
<path d="M1406 461 c-3 -5 5 -8 19 -8 14 0 22 3 19 8 -3 5 -11 9 -19 9 -8 0
-16 -4 -19 -9z"/>
</g>
</svg>
