<?xml version="1.0" standalone="no"?>
<!DOCTYPE svg PUBLIC "-//W3C//DTD SVG 20010904//EN"
 "http://www.w3.org/TR/2001/REC-SVG-20010904/DTD/svg10.dtd">
<svg version="1.0" xmlns="http://www.w3.org/2000/svg"
 width="300.000000pt" height="210.000000pt" viewBox="0 0 300.000000 210.000000"
 preserveAspectRatio="xMidYMid meet">

<g transform="translate(0.000000,210.000000) scale(0.100000,-0.100000)"
fill="#000000" stroke="none">
<path d="M1436 1569 c-104 -15 -177 -38 -257 -81 -99 -53 -206 -132 -224 -167
-7 -15 -26 -41 -42 -58 -15 -17 -33 -39 -39 -49 -9 -14 -22 -18 -49 -17 -32 2
-36 0 -33 -20 2 -14 10 -22 23 -22 27 0 29 -20 10 -99 -16 -71 -20 -144 -7
-161 10 -14 78 -39 267 -98 88 -27 167 -53 176 -57 9 -5 77 -25 150 -44 74
-20 157 -43 184 -51 83 -23 313 -55 425 -59 l105 -3 22 66 c12 36 22 80 23 98
0 17 5 35 11 39 16 9 5 180 -16 259 -50 187 -221 386 -401 466 -51 23 -222 69
-249 68 -11 -1 -47 -5 -79 -10z m-286 -273 c0 -3 -4 -8 -10 -11 -5 -3 -10 -1
-10 4 0 6 5 11 10 11 6 0 10 -2 10 -4z m35 -26 c3 -5 1 -10 -4 -10 -6 0 -11 5
-11 10 0 6 2 10 4 10 3 0 8 -4 11 -10z m42 -37 c-3 -3 -16 -2 -28 2 l-22 7 24
14 c20 11 25 10 27 -2 2 -9 1 -18 -1 -21z m-67 1 c0 -8 -4 -12 -10 -9 -5 3
-10 10 -10 16 0 5 5 9 10 9 6 0 10 -7 10 -16z"/>
<path d="M126 1275 c-88 -18 -116 -36 -116 -75 0 -38 80 -121 155 -162 28 -15
61 -35 75 -44 32 -21 -27 33 -64 59 -34 23 -36 62 -3 53 12 -3 30 -6 40 -6 11
0 17 -8 17 -22 1 -20 2 -21 13 -8 16 20 36 23 53 9 10 -8 19 -5 38 16 16 17
30 24 38 19 26 -16 54 -11 90 17 20 16 44 29 53 29 20 0 30 26 16 44 -6 7 -8
16 -4 19 3 4 -6 7 -20 7 -15 0 -27 5 -27 11 0 7 12 9 34 5 24 -5 35 -3 39 8 9
23 -19 28 -193 32 -117 2 -185 -1 -234 -11z m304 -16 c0 -5 4 -8 9 -5 5 3 14
-1 21 -9 7 -8 9 -15 6 -15 -4 0 -2 -10 5 -21 7 -14 7 -19 0 -15 -5 4 -20 -3
-31 -14 -20 -20 -23 -20 -39 -6 -22 20 -75 21 -90 2 -10 -12 -16 -10 -38 10
-14 13 -33 24 -41 24 -17 0 -9 12 11 16 7 2 25 6 41 9 16 3 34 9 40 13 6 3 26
7 45 9 19 1 36 5 39 8 9 9 22 5 22 -6z"/>
<path d="M375 1210 c-3 -5 -1 -10 4 -10 6 0 11 5 11 10 0 6 -2 10 -4 10 -3 0
-8 -4 -11 -10z"/>
<path d="M290 1015 c7 -8 17 -12 22 -9 6 4 5 10 -3 15 -22 14 -33 10 -19 -6z"/>
<path d="M2375 860 c17 -11 38 -20 47 -20 9 0 32 -13 50 -30 20 -19 43 -30 62
-30 16 0 36 -8 45 -19 16 -18 50 -25 96 -21 24 2 -67 45 -213 101 -116 44
-130 47 -87 19z"/>
<path d="M2710 725 c7 -8 18 -15 24 -15 7 0 28 -14 47 -31 19 -17 46 -36 62
-41 15 -6 27 -14 27 -18 0 -5 11 -7 25 -4 18 3 25 0 25 -11 0 -10 5 -13 12 -9
17 10 -31 46 -134 99 -93 48 -107 53 -88 30z"/>
<path d="M830 708 c0 -76 85 -220 194 -328 138 -139 402 -212 608 -169 128 27
266 102 362 196 l48 48 -33 7 c-19 5 -106 22 -194 38 -209 39 -427 86 -540
117 -49 13 -133 35 -185 48 -52 13 -113 30 -135 38 -22 8 -59 18 -83 22 -40 6
-42 5 -42 -17z"/>
<path d="M2896 493 c-6 -14 -5 -15 5 -6 7 7 10 15 7 18 -3 3 -9 -2 -12 -12z"/>
</g>
</svg>
