<?xml version="1.0" standalone="no"?>
<!DOCTYPE svg PUBLIC "-//W3C//DTD SVG 20010904//EN"
 "http://www.w3.org/TR/2001/REC-SVG-20010904/DTD/svg10.dtd">
<svg version="1.0" xmlns="http://www.w3.org/2000/svg"
 width="300.000000pt" height="210.000000pt" viewBox="0 0 300.000000 210.000000"
 preserveAspectRatio="xMidYMid meet">

<g transform="translate(0.000000,210.000000) scale(0.100000,-0.100000)"
fill="#000000" stroke="none">
<path d="M1373 1743 c9 -2 23 -2 30 0 6 3 -1 5 -18 5 -16 0 -22 -2 -12 -5z"/>
<path d="M1250 1720 c-18 -12 -2 -12 25 0 13 6 15 9 5 9 -8 0 -22 -4 -30 -9z"/>
<path d="M1144 1658 l-19 -23 23 19 c21 18 27 26 19 26 -2 0 -12 -10 -23 -22z"/>
<path d="M1063 1618 c-23 -30 -24 -41 -2 -21 12 12 20 25 17 28 -3 3 -10 0
-15 -7z"/>
<path d="M1001 1558 c-14 -23 -14 -23 8 -4 22 20 25 26 13 26 -4 0 -13 -10
-21 -22z"/>
<path d="M1204 878 c-3 -4 -13 -8 -22 -8 -9 0 -41 -23 -70 -50 -34 -31 -59
-47 -69 -43 -12 5 -14 1 -8 -18 10 -32 23 -39 51 -29 18 7 22 6 18 -5 -4 -10
3 -13 30 -12 26 1 36 6 34 17 -2 8 9 27 25 43 26 26 44 36 33 19 -7 -12 17
-37 49 -50 33 -13 115 -14 115 0 0 4 8 8 19 8 10 0 24 7 31 15 21 25 -14 67
-78 93 -58 24 -149 36 -158 20z"/>
<path d="M1608 793 c6 -2 18 -2 25 0 6 3 1 5 -13 5 -14 0 -19 -2 -12 -5z"/>
</g>
</svg>
