<?xml version="1.0" standalone="no"?>
<!DOCTYPE svg PUBLIC "-//W3C//DTD SVG 20010904//EN"
 "http://www.w3.org/TR/2001/REC-SVG-20010904/DTD/svg10.dtd">
<svg version="1.0" xmlns="http://www.w3.org/2000/svg"
 width="300.000000pt" height="210.000000pt" viewBox="0 0 300.000000 210.000000"
 preserveAspectRatio="xMidYMid meet">

<g transform="translate(0.000000,210.000000) scale(0.100000,-0.100000)"
fill="#000000" stroke="none">
<path d="M1335 1746 c-145 -34 -280 -109 -383 -213 -40 -40 -70 -78 -67 -83 3
-5 0 -12 -6 -16 -8 -5 -9 -3 -4 7 8 12 6 12 -9 0 -9 -8 -15 -20 -12 -27 3 -7
-3 -18 -12 -26 -16 -12 -16 -11 -2 6 9 12 10 17 3 12 -7 -4 -18 -16 -24 -28
-9 -16 -8 -19 1 -13 7 5 5 -6 -5 -23 -10 -17 -22 -29 -27 -26 -4 3 -5 -3 -1
-13 3 -10 2 -15 -2 -10 -22 20 -65 -156 -65 -265 0 -64 13 -150 42 -281 5 -26
32 -84 59 -128 117 -195 245 -296 472 -370 81 -26 107 -30 217 -31 174 -1 279
30 420 125 152 102 268 267 317 447 12 47 17 102 17 195 0 115 -4 140 -28 215
-57 172 -135 284 -280 399 -78 62 -143 94 -253 127 -109 32 -276 41 -368 20z
m299 -117 c8 -12 19 -18 26 -14 6 4 22 -1 35 -9 14 -9 25 -12 25 -6 0 5 -4 10
-10 10 -5 0 -10 5 -10 10 0 6 9 10 20 10 11 0 20 4 20 10 0 5 7 7 15 4 8 -4
15 -10 15 -15 0 -4 -7 -6 -15 -3 -8 4 -15 1 -15 -6 0 -8 9 -10 25 -6 14 4 25
2 25 -4 0 -5 -7 -10 -15 -10 -8 0 -15 -4 -15 -10 0 -5 6 -10 13 -10 9 0 9 -2
0 -8 -15 -10 -5 -62 12 -56 7 3 25 -6 41 -21 16 -15 21 -23 10 -19 -11 4 -24
-1 -37 -15 -22 -23 -34 -28 -23 -8 6 9 5 9 -8 0 -8 -7 -17 -10 -20 -8 -3 3
-18 1 -33 -5 -25 -9 -27 -9 -15 5 7 8 10 18 6 22 -3 3 -6 1 -6 -5 0 -7 -4 -12
-10 -12 -5 0 -10 9 -10 20 0 15 -7 20 -27 20 -21 0 -24 3 -15 12 16 16 15 41
0 36 -12 -4 -14 -8 -17 -44 0 -8 -5 -12 -11 -9 -5 3 -10 1 -10 -5 0 -6 -5 -8
-12 -4 -7 5 -5 11 8 21 10 8 18 19 16 25 -1 5 2 16 9 24 14 17 2 37 -18 30 -8
-4 -11 -1 -8 5 4 6 13 8 21 5 8 -3 14 -1 14 4 0 5 -9 12 -20 15 -22 7 -27 25
-7 25 8 0 7 4 -3 10 -13 8 -13 10 2 10 9 0 24 -9 32 -21z m176 -66 c0 -13 3
-13 15 -3 9 7 15 8 15 2 0 -19 -30 -21 -40 -2 -13 24 -13 33 0 25 6 -3 10 -13
10 -22z m-670 -79 c0 -8 -5 -12 -10 -9 -6 4 -8 11 -5 16 9 14 15 11 15 -7z
m417 10 c-3 -3 -12 -4 -19 -1 -8 3 -5 6 6 6 11 1 17 -2 13 -5z m-193 -40 c4
-10 13 -13 24 -10 13 5 19 1 19 -10 0 -9 -9 -19 -19 -22 -20 -5 -25 -32 -6
-32 6 0 23 10 36 23 14 12 22 16 18 9 -5 -7 -2 -21 6 -30 27 -31 30 -42 13
-42 -9 0 -13 4 -10 10 3 6 -1 7 -9 4 -9 -3 -16 -11 -16 -18 0 -6 -5 -4 -10 4
-8 13 -10 12 -10 -4 0 -11 -7 -28 -17 -38 -15 -17 -15 -18 0 -18 10 0 17 5 17
10 0 6 8 10 18 9 10 0 12 -3 5 -6 -7 -2 -13 -11 -13 -19 0 -14 -4 -16 -51 -19
-34 -3 -49 -12 -49 -33 0 -13 2 -14 9 -4 7 11 9 11 14 -2 6 -16 -14 -22 -52
-17 -8 2 -10 -2 -5 -10 5 -8 3 -10 -5 -5 -7 5 -10 14 -7 22 4 9 -2 14 -17 14
-12 0 -17 4 -12 8 6 4 12 16 13 27 2 11 9 26 14 33 12 14 42 17 33 2 -8 -13 1
-13 27 1 15 8 19 8 14 0 -12 -19 10 -12 29 9 10 11 15 23 10 28 -4 4 -10 1
-12 -6 -4 -10 -9 -8 -20 7 -8 12 -23 21 -34 21 -10 0 -19 5 -19 10 0 6 -4 10
-10 10 -5 0 -10 -12 -10 -26 0 -17 -6 -28 -20 -31 -11 -3 -17 -9 -14 -14 3 -5
1 -9 -5 -9 -20 0 -21 19 -1 25 11 4 18 11 14 16 -7 13 -64 -28 -64 -47 0 -15
-46 -20 -66 -6 -15 10 -25 42 -14 42 6 0 10 -5 10 -11 0 -6 7 -4 15 5 9 8 23
12 32 9 12 -5 15 -2 10 10 -4 12 -2 14 10 10 10 -4 14 -2 10 4 -12 18 28 40
66 35 20 -2 45 -1 54 3 10 5 23 7 29 6 7 -1 14 8 17 19 4 17 3 19 -8 10 -9 -8
-14 -6 -19 6 -10 26 -7 36 10 30 8 -3 12 -2 9 4 -3 6 -2 10 3 10 6 0 13 -7 16
-16z m294 -6 c16 6 16 4 0 -19 -9 -14 -18 -39 -20 -55 -4 -27 -5 -26 -17 16
-7 25 -17 50 -23 57 -7 9 -4 11 11 8 12 -2 22 2 22 8 1 7 3 4 6 -5 3 -11 10
-15 21 -10z m-345 -14 c3 -19 1 -24 -10 -20 -8 3 -20 6 -26 6 -7 0 -4 5 6 11
9 6 15 14 12 20 -4 5 -2 9 3 9 5 0 12 -12 15 -26z m167 -11 c0 -13 6 -23 14
-23 7 0 16 -11 18 -25 4 -21 3 -23 -9 -14 -11 9 -12 9 -8 -4 4 -8 2 -18 -4
-22 -6 -3 -11 -2 -11 4 0 5 -5 22 -12 38 -6 15 -10 32 -9 37 1 4 -3 13 -8 20
-7 8 -4 12 10 12 13 0 19 -7 19 -23z m56 -29 c2 -28 1 -28 -15 4 -9 17 -9 22
1 22 7 0 14 -12 14 -26z m61 11 c0 -8 -4 -15 -9 -15 -4 0 -8 7 -8 15 0 8 4 15
8 15 5 0 9 -7 9 -15z m-297 -5 c0 -5 -12 -10 -27 -9 -25 0 -26 1 -8 9 27 12
35 12 35 0z m294 -41 c-3 -5 -10 -7 -15 -3 -5 3 -7 10 -3 15 3 5 10 7 15 3 5
-3 7 -10 3 -15z m490 5 c3 -8 2 -12 -4 -9 -6 3 -10 10 -10 16 0 14 7 11 14 -7z
m-414 -4 c0 -5 -2 -10 -4 -10 -3 0 -8 5 -11 10 -3 6 -1 10 4 10 6 0 11 -4 11
-10z m70 -10 c0 -5 -4 -10 -10 -10 -5 0 -10 5 -10 10 0 6 5 10 10 10 6 0 10
-4 10 -10z m5 -30 c3 -5 1 -10 -4 -10 -6 0 -11 5 -11 10 0 6 2 10 4 10 3 0 8
-4 11 -10z m-345 -84 c0 -2 -8 -10 -17 -17 -16 -13 -17 -12 -4 4 13 16 21 21
21 13z m773 -26 c-5 -19 -23 -29 -23 -12 0 7 20 32 26 32 1 0 0 -9 -3 -20z
m12 -50 c3 -5 1 -10 -4 -10 -6 0 -11 5 -11 10 0 6 2 10 4 10 3 0 8 -4 11 -10z
m-97 -40 c-7 -10 -14 -17 -17 -15 -4 4 18 35 25 35 2 0 -1 -9 -8 -20z m97 0
c-3 -5 -11 -10 -16 -10 -6 0 -7 5 -4 10 3 6 11 10 16 10 6 0 7 -4 4 -10z
m-1429 -87 l-15 -28 -1 27 c0 14 6 28 13 31 19 7 20 1 3 -30z m1404 -27 c0 -3
-4 -8 -10 -11 -5 -3 -10 -1 -10 4 0 6 5 11 10 11 6 0 10 -2 10 -4z m-105 -36
c-3 -5 -10 -10 -16 -10 -5 0 -9 5 -9 10 0 6 7 10 16 10 8 0 12 -4 9 -10z m162
-91 c8 -8 9 -19 1 -38 -6 -14 -10 -38 -9 -53 1 -15 -4 -30 -10 -33 -17 -11
-19 -1 -9 36 18 59 21 91 10 84 -5 -3 -10 -1 -10 4 0 14 13 14 27 0z m-53
-128 c3 -5 -1 -14 -8 -20 -12 -10 -13 -8 -9 8 6 23 9 25 17 12z m-1214 -46
c11 -13 10 -14 -4 -9 -9 3 -16 10 -16 15 0 13 6 11 20 -6z m1190 -15 c0 -5 -5
-10 -11 -10 -5 0 -7 5 -4 10 3 6 8 10 11 10 2 0 4 -4 4 -10z m-550 -150 c0 -5
-5 -10 -11 -10 -5 0 -7 5 -4 10 3 6 8 10 11 10 2 0 4 -4 4 -10z m-36 -63 c-8
-22 -23 -22 -19 1 2 9 4 21 4 27 1 5 5 5 11 -1 6 -6 8 -18 4 -27z m63 -19 c-4
-14 -2 -18 10 -14 9 4 13 1 11 -6 -7 -21 -24 -19 -35 4 -11 26 -6 51 9 42 5
-3 7 -15 5 -26z m-381 -46 c-12 -11 -18 7 -10 30 l8 23 4 -23 c2 -13 1 -26 -2
-30z m337 22 c-4 -10 -9 -12 -15 -6 -12 12 -1 35 12 27 5 -3 6 -13 3 -21z m97
-24 c0 -5 -2 -10 -4 -10 -3 0 -8 5 -11 10 -3 6 -1 10 4 10 6 0 11 -4 11 -10z"/>
<path d="M1657 1604 c-3 -4 -2 -15 4 -26 5 -10 7 -24 3 -30 -4 -7 -3 -8 4 -4
7 4 12 2 12 -3 0 -6 14 -11 31 -11 17 0 28 -4 24 -10 -3 -5 1 -10 9 -10 21 0
20 16 -1 24 -15 6 -15 8 -3 16 13 8 12 10 -2 10 -10 0 -18 -4 -18 -10 0 -5
-10 0 -22 12 -13 13 -22 29 -20 35 3 14 -10 18 -21 7z"/>
<path d="M1750 1480 c0 -5 5 -10 10 -10 6 0 10 5 10 10 0 6 -4 10 -10 10 -5 0
-10 -4 -10 -10z"/>
</g>
</svg>
