<?xml version="1.0" standalone="no"?>
<!DOCTYPE svg PUBLIC "-//W3C//DTD SVG 20010904//EN"
 "http://www.w3.org/TR/2001/REC-SVG-20010904/DTD/svg10.dtd">
<svg version="1.0" xmlns="http://www.w3.org/2000/svg"
 width="300.000000pt" height="210.000000pt" viewBox="0 0 300.000000 210.000000"
 preserveAspectRatio="xMidYMid meet">

<g transform="translate(0.000000,210.000000) scale(0.100000,-0.100000)"
fill="#000000" stroke="none">
<path d="M2040 1536 c0 -2 8 -10 18 -17 15 -13 16 -12 3 4 -13 16 -21 21 -21
13z"/>
<path d="M1960 1487 c0 -8 7 -20 15 -27 10 -9 15 -9 15 -1 0 6 -5 11 -12 11
-9 0 -9 3 0 12 10 10 15 10 23 -2 9 -13 10 -13 6 0 -5 20 -47 26 -47 7z"/>
<path d="M2080 1496 c0 -2 8 -10 18 -17 15 -13 16 -12 3 4 -13 16 -21 21 -21
13z"/>
<path d="M2120 1440 c6 -11 13 -20 16 -20 2 0 0 9 -6 20 -6 11 -13 20 -16 20
-2 0 0 -9 6 -20z"/>
<path d="M2000 1434 c0 -8 -3 -13 -7 -11 -5 2 -16 -4 -25 -14 -16 -17 -15 -18
13 -24 25 -6 27 -8 15 -21 -8 -8 -23 -14 -33 -13 -17 0 -16 1 1 8 11 4 15 10
10 13 -10 7 -47 -16 -38 -24 2 -3 -7 -5 -21 -5 -29 0 -31 5 -8 22 16 12 15 13
-9 12 -14 -1 -24 -5 -21 -9 4 -7 -28 -13 -49 -9 -5 0 -8 -4 -8 -11 0 -7 -5 -6
-12 4 -27 33 -88 31 -88 -3 0 -10 -4 -19 -10 -19 -5 0 -9 3 -9 8 4 26 -2 30
-32 22 -42 -12 -52 -23 -14 -15 28 6 28 5 10 -7 -27 -17 -22 -52 6 -45 28 8
24 0 -31 -53 -45 -43 -48 -48 -29 -53 12 -3 19 -12 17 -19 -5 -14 -56 -17
-100 -5 -22 6 -28 4 -28 -8 0 -9 -9 -15 -24 -15 -13 0 -26 -4 -28 -10 -1 -5
-15 -11 -30 -12 -15 -1 -24 -6 -22 -10 3 -4 -9 -14 -25 -22 -20 -11 -31 -12
-33 -5 -2 7 -22 1 -50 -15 -26 -14 -56 -26 -67 -26 -12 0 -21 -4 -21 -8 0 -5
-13 -23 -30 -42 -16 -18 -26 -38 -23 -44 14 -22 10 -46 -9 -46 -10 0 -18 -7
-18 -15 0 -9 6 -12 18 -9 9 3 5 -2 -10 -11 -16 -8 -28 -21 -28 -27 0 -7 -4 -7
-14 1 -8 7 -12 22 -10 34 4 19 3 19 -7 -3 -7 -15 -13 -20 -16 -12 -3 6 -12 12
-20 12 -8 0 -13 -6 -10 -13 6 -17 -23 -53 -52 -62 -14 -4 -20 -12 -17 -21 3
-8 0 -14 -6 -14 -6 0 -9 -3 -6 -6 4 -3 0 -17 -7 -31 -8 -15 -11 -31 -8 -36 4
-6 -1 -8 -10 -4 -10 3 -17 2 -17 -2 0 -5 6 -12 13 -14 9 -4 9 -6 -1 -6 -10 -1
-10 -6 -2 -21 7 -13 7 -20 1 -20 -6 0 -15 9 -21 20 -8 14 -8 20 0 20 6 0 8 5
5 10 -9 14 -22 12 -28 -3 -6 -15 34 -67 51 -67 18 0 22 -30 5 -50 -19 -22 -35
-17 -27 8 5 13 4 14 -4 4 -7 -11 -11 -10 -16 4 -4 10 -1 21 6 26 9 6 5 7 -9 3
-17 -5 -23 -2 -23 9 0 9 -4 16 -10 16 -15 0 6 -46 42 -93 43 -55 46 -57 96
-91 46 -31 52 -38 25 -30 -15 5 -15 4 -3 -4 8 -6 17 -9 21 -6 4 2 17 -9 29
-26 12 -16 25 -30 30 -30 5 0 25 -11 44 -23 19 -13 78 -39 133 -57 87 -30 110
-33 213 -34 151 -1 269 27 405 96 89 46 208 150 266 235 41 59 95 179 115 255
32 123 18 331 -30 443 -8 17 -21 49 -31 72 -10 23 -27 50 -37 60 -15 13 -12 3
11 -42 26 -50 47 -135 34 -135 -2 0 -24 20 -49 45 -38 39 -49 60 -45 87 0 4
-9 5 -21 3 -13 -3 -30 5 -46 20 -21 21 -22 25 -7 25 17 0 17 1 2 18 -10 10
-17 24 -17 30 0 7 -4 12 -10 12 -5 0 -10 -7 -10 -16z m-205 -84 c-3 -5 -11
-10 -16 -10 -6 0 -7 5 -4 10 3 6 11 10 16 10 6 0 7 -4 4 -10z m238 -7 c-7 -2
-19 -2 -25 0 -7 3 -2 5 12 5 14 0 19 -2 13 -5z m-436 -208 c0 -8 -7 -15 -15
-15 -12 0 -12 3 -2 15 7 8 13 15 15 15 1 0 2 -7 2 -15z m663 -159 c0 -3 -4 -8
-10 -11 -5 -3 -10 -1 -10 4 0 6 5 11 10 11 6 0 10 -2 10 -4z m0 -57 c0 -5 -4
-9 -10 -9 -5 0 -10 7 -10 16 0 8 5 12 10 9 6 -3 10 -10 10 -16z m-1290 -199
c0 -5 -5 -10 -11 -10 -5 0 -7 5 -4 10 3 6 8 10 11 10 2 0 4 -4 4 -10z m-20
-60 c0 -5 -5 -10 -11 -10 -5 0 -7 5 -4 10 3 6 8 10 11 10 2 0 4 -4 4 -10z m-4
-149 c-4 -5 -13 -8 -21 -5 -11 5 -12 9 -2 19 13 15 33 3 23 -14z m54 2 c-1
-19 -27 -41 -39 -34 -10 6 -9 12 4 25 17 17 35 21 35 9z m4 -48 c-4 -8 -8 -15
-10 -15 -2 0 -4 7 -4 15 0 8 4 15 10 15 5 0 7 -7 4 -15z m76 -25 c-10 -6 -4
-14 21 -29 l34 -21 -27 -1 c-16 -1 -34 -2 -40 -3 -7 -1 -12 7 -11 17 0 10 -2
16 -5 13 -6 -6 -32 13 -32 23 0 4 16 8 37 8 22 1 31 -2 23 -7z m890 -40 c-34
-30 -64 -37 -89 -21 -9 6 -6 9 12 9 14 0 38 9 53 21 43 34 65 25 24 -9z m-824
-35 c-4 -11 1 -15 17 -15 12 -1 38 -14 57 -30 19 -17 28 -30 20 -30 -23 1 -92
36 -125 64 l-30 25 34 1 c25 0 32 -3 27 -15z m744 -4 c0 -6 -4 -13 -10 -16 -5
-3 -10 1 -10 9 0 9 5 16 10 16 6 0 10 -4 10 -9z"/>
<path d="M1841 1427 c2 -1 13 -9 24 -17 19 -14 19 -14 6 3 -7 9 -18 17 -24 17
-6 0 -8 -1 -6 -3z"/>
<path d="M1928 1423 c6 -2 9 -10 6 -15 -4 -7 -2 -8 5 -4 13 9 5 26 -12 25 -9
0 -8 -2 1 -6z"/>
<path d="M1808 1393 c7 -3 16 -2 19 1 4 3 -2 6 -13 5 -11 0 -14 -3 -6 -6z"/>
<path d="M1520 1229 c0 -5 5 -7 10 -4 6 3 10 8 10 11 0 2 -4 4 -10 4 -5 0 -10
-5 -10 -11z"/>
<path d="M1116 931 c13 -12 21 -15 26 -7 4 6 0 14 -10 18 -30 12 -36 8 -16
-11z"/>
<path d="M1006 906 c3 -9 11 -16 16 -16 13 0 5 23 -10 28 -7 2 -10 -2 -6 -12z"/>
<path d="M955 890 c-10 -11 -13 -20 -7 -20 7 0 11 -3 11 -7 -3 -21 2 -33 12
-27 8 4 7 9 -2 15 -11 7 -11 9 -1 9 7 0 11 4 8 9 -4 5 -2 11 4 13 5 1 6 9 1
16 -6 9 -12 8 -26 -8z"/>
<path d="M911 724 c0 -11 3 -14 6 -6 3 7 2 16 -1 19 -3 4 -6 -2 -5 -13z"/>
</g>
</svg>
