<?xml version="1.0" standalone="no"?>
<!DOCTYPE svg PUBLIC "-//W3C//DTD SVG 20010904//EN"
 "http://www.w3.org/TR/2001/REC-SVG-20010904/DTD/svg10.dtd">
<svg version="1.0" xmlns="http://www.w3.org/2000/svg"
 width="300.000000pt" height="210.000000pt" viewBox="0 0 300.000000 210.000000"
 preserveAspectRatio="xMidYMid meet">

<g transform="translate(0.000000,210.000000) scale(0.100000,-0.100000)"
fill="#000000" stroke="none">
<path d="M865 1912 c9 -82 71 -284 131 -425 53 -124 59 -152 29 -140 -8 3 -15
0 -15 -7 0 -6 4 -9 10 -5 16 10 48 -32 60 -77 16 -64 18 -68 33 -68 7 0 21
-15 30 -32 9 -18 35 -67 58 -108 23 -41 51 -93 63 -115 12 -22 35 -62 50 -88
32 -55 29 -72 -6 -31 -13 15 -41 46 -63 68 -22 23 -40 44 -40 47 0 3 -8 13
-17 23 -10 10 -18 24 -18 32 0 8 -6 14 -12 14 -9 0 -8 3 2 10 11 7 9 11 -13
19 -16 6 -32 11 -37 11 -4 0 -6 17 -3 38 5 38 -6 51 -55 64 -10 3 -8 10 7 27
16 18 18 28 10 42 -11 21 -24 24 -34 9 -4 -6 -21 -8 -42 -4 -26 5 -34 4 -29
-5 4 -6 3 -11 -3 -11 -16 0 -29 -67 -30 -148 -1 -82 24 -197 48 -221 9 -9 22
-29 30 -44 8 -15 18 -27 23 -27 4 0 8 -9 8 -21 0 -12 4 -17 11 -14 5 4 19 -1
30 -11 10 -9 19 -14 19 -9 0 4 7 2 15 -5 20 -17 19 -31 -2 -23 -16 6 -16 4 1
-16 11 -12 26 -19 33 -17 7 3 15 1 18 -4 4 -6 15 -10 26 -10 11 0 37 -18 58
-40 21 -22 47 -40 58 -40 21 0 53 -24 53 -39 0 -14 62 -30 81 -21 24 13 29 13
29 -5 0 -21 18 -19 25 4 8 25 39 32 65 14 11 -8 -8 29 -45 83 -36 53 -63 99
-61 101 2 2 14 -11 26 -29 13 -18 39 -49 57 -69 l34 -36 81 3 c57 1 85 7 96
18 12 11 13 16 4 16 -7 0 -10 5 -7 10 4 6 11 7 17 4 7 -5 9 -1 5 9 -4 11 -2
14 9 10 7 -3 14 -12 14 -20 0 -10 6 -12 21 -8 15 5 19 4 15 -4 -11 -17 -1 -14
54 19 28 17 55 30 60 30 16 0 23 22 9 31 -12 8 -12 11 1 19 10 6 11 10 3 10
-18 0 -16 27 2 34 9 3 15 18 15 35 0 39 10 62 23 54 6 -4 7 -1 2 7 -13 22 34
50 64 38 14 -5 22 -6 18 -2 -4 4 -2 13 4 20 21 25 13 273 -10 324 l-11 25 5
-27 c7 -35 -11 -37 -19 -3 -6 24 -26 35 -26 14 0 -5 -4 -8 -10 -4 -12 7 -1 36
19 52 14 11 14 12 -2 13 -11 0 -17 6 -15 18 2 11 -4 17 -17 17 -14 0 -20 7
-20 22 0 30 -41 59 -60 43 -17 -14 -26 -1 -27 41 -1 18 -8 34 -20 40 -10 5
-18 20 -18 33 0 13 -6 29 -14 36 -12 9 -17 8 -27 -8 -7 -11 -18 -18 -25 -15
-6 2 -21 -5 -32 -17 -17 -19 -20 -19 -26 -4 -5 13 -14 15 -41 10 -29 -6 -35
-4 -36 11 0 15 -2 14 -9 -3 -13 -33 -28 -37 -67 -19 -19 9 -53 18 -75 19 -22
1 -42 7 -46 13 -13 19 -49 24 -62 8 -7 -8 -18 -15 -26 -15 -22 0 -44 -43 -44
-87 0 -39 -2 -43 -25 -43 -14 0 -25 -5 -25 -11 0 -5 4 -8 10 -4 8 5 40 -43 40
-60 0 -3 -13 -5 -30 -5 -16 0 -30 4 -30 10 0 5 -10 19 -22 31 -16 15 -19 23
-10 26 6 3 12 9 12 15 0 6 -6 6 -15 -2 -12 -10 -16 -6 -27 20 -12 29 -15 31
-27 16 -11 -14 -11 -16 3 -16 9 0 16 -5 16 -11 0 -6 -8 -9 -18 -7 -17 5 -18 1
-9 -56 5 -34 17 -75 28 -92 14 -23 17 -38 11 -55 -9 -23 -10 -22 -33 16 -14
22 -39 72 -58 110 -43 93 -48 100 -58 98 -5 -1 -9 6 -10 15 0 9 -20 60 -43
112 -50 114 -95 244 -121 354 -16 69 -18 73 -14 28z m647 -476 c-6 -20 -6 -20
-12 4 -8 29 -1 48 10 30 4 -7 5 -22 2 -34z m38 -6 c0 -5 -5 -10 -11 -10 -5 0
-7 5 -4 10 3 6 8 10 11 10 2 0 4 -4 4 -10z m105 -9 c3 -5 1 -12 -5 -16 -5 -3
-10 1 -10 9 0 18 6 21 15 7z m-110 -71 c-4 -12 -9 -19 -12 -17 -3 3 -2 15 2
27 4 12 9 19 12 17 3 -3 2 -15 -2 -27z m225 -111 c0 -6 -4 -7 -10 -4 -5 3 -10
11 -10 16 0 6 5 7 10 4 6 -3 10 -11 10 -16z m-80 -23 c0 -3 -4 -8 -10 -11 -5
-3 -10 -1 -10 4 0 6 5 11 10 11 6 0 10 -2 10 -4z m370 -77 c11 -19 10 -20 -10
-9 -11 6 -18 15 -15 21 9 13 13 11 25 -12z m-834 -32 c-3 -12 0 -27 6 -34 6
-8 8 -16 4 -20 -3 -4 -13 2 -21 13 -17 23 -19 34 -4 34 6 0 8 9 4 21 -5 15 -4
19 5 14 6 -4 9 -17 6 -28z m529 -55 c-1 -20 -4 -44 -4 -52 -1 -12 -5 -11 -16
4 -8 11 -13 29 -10 40 2 12 -1 9 -7 -6 -13 -31 -33 -38 -23 -9 3 11 1 22 -5
26 -12 7 50 46 62 39 4 -3 5 -21 3 -42z m-465 11 c0 -18 17 -16 24 2 6 17 36
21 36 5 0 -6 -11 -15 -25 -20 -39 -15 -28 -78 11 -67 11 3 30 8 42 12 21 6 23
4 17 -15 -6 -20 -5 -20 17 -8 12 7 27 19 31 26 4 6 14 12 22 12 11 0 13 -8 9
-28 -3 -16 -1 -45 4 -65 11 -39 6 -53 -14 -36 -10 8 -14 0 -19 -35 -4 -24 -5
-48 -2 -53 2 -4 -1 -23 -7 -42 l-12 -35 -26 35 c-35 47 -148 245 -148 260 0 7
14 -8 31 -32 32 -45 57 -73 47 -54 -3 6 -13 28 -23 50 -10 22 -27 52 -37 67
-23 33 -22 34 2 34 11 0 20 -6 20 -13z m389 -77 c27 -25 33 -64 10 -71 -10 -4
-28 -18 -39 -32 -11 -14 -20 -21 -20 -14 0 14 -37 15 -45 1 -3 -5 -10 -10 -16
-10 -12 0 -12 37 1 45 6 4 10 12 9 18 -1 7 1 29 5 50 8 35 10 37 42 34 18 -2
42 -11 53 -21z m-529 -45 c0 -6 -4 -13 -10 -16 -5 -3 -10 1 -10 9 0 9 5 16 10
16 6 0 10 -4 10 -9z m-156 -67 c8 -22 -4 -40 -15 -23 -11 18 -11 39 0 39 5 0
12 -7 15 -16z m536 -8 c0 -8 -4 -17 -9 -20 -10 -7 -23 19 -14 28 11 11 23 6
23 -8z m-484 -63 c-3 -8 -6 -19 -6 -24 0 -19 -18 1 -22 24 -4 20 -1 23 14 19
12 -3 17 -10 14 -19z m908 -35 c-7 -22 -7 -22 -14 -3 -4 11 -3 23 4 27 15 10
19 3 10 -24z m-445 -112 c1 -6 -5 -1 -13 9 -8 11 -12 24 -8 29 5 9 20 -17 21
-38z"/>
<path d="M1346 887 c3 -10 9 -15 12 -12 3 3 0 11 -7 18 -10 9 -11 8 -5 -6z"/>
<path d="M1370 844 c0 -6 7 -19 16 -30 14 -18 14 -18 3 6 -14 31 -19 36 -19
24z"/>
<path d="M1395 1643 c5 -19 0 -24 -37 -34 -24 -7 -36 -14 -28 -16 8 -2 34 2
57 9 l42 13 -20 25 c-19 24 -20 24 -14 3z"/>
<path d="M2013 775 c0 -13 3 -22 8 -19 5 3 9 14 9 25 0 10 -4 19 -9 19 -5 0
-8 -11 -8 -25z"/>
<path d="M1980 731 c0 -6 5 -13 10 -16 6 -3 10 1 10 9 0 9 -4 16 -10 16 -5 0
-10 -4 -10 -9z"/>
<path d="M1666 378 c16 -18 33 -37 37 -43 5 -5 5 -1 1 10 -9 25 -44 65 -58 65
-5 0 3 -15 20 -32z"/>
<path d="M1805 215 c26 -30 55 -55 63 -55 10 0 -4 21 -38 55 -30 30 -58 55
-63 55 -5 0 13 -25 38 -55z"/>
</g>
</svg>
