<?xml version="1.0" encoding="UTF-8"?>
<svg version="1.1" viewBox="0 0 120 120" xmlns="http://www.w3.org/2000/svg">
<title>water</title>
<desc>Created with Sketch.</desc>
<g fill="none" fill-rule="evenodd" stroke-linecap="round">
<g transform="translate(11.41 11.41)" stroke="#6B6B6B" stroke-width="2">
<path d="m70.927 5.7214c23.511 12.539 31.976 42.007 19.436 65.205-12.539 23.511-42.007 31.976-65.205 19.436-23.198-12.539-31.976-42.007-19.436-65.205 12.539-23.198 41.694-31.976 65.205-19.436"/>
<path d="m0.078694 45.534s17.242-8.1506 30.095-5.6428c12.853 2.5079 38.245 22.571 65.519 4.7023m-84.641 32.916s6.5832-7.2102 15.361-4.3888c12.539 3.7618 29.154 18.623 56.114 8.2776m-63.25 4.5466c2.3761-1.1325 5.1992-2.1943 7.7634-2.4792 7.5237-0.31349 22.884 12.853 35.424 10.345"/>
<path d="m3.8405 66.538s9.9482-7.931 23.115-5.1096c12.853 2.5079 33.372 26.554 65.348 4.9231"/>
<path d="m1.2186 55.465c3.3545-1.6276 16.303-7.3913 27.387-5.2286 12.853 2.5079 34.043 26.146 66.646 4.8293"/>
</g>
</g>
</svg>
