<?xml version="1.0" encoding="UTF-8"?>
<svg version="1.1" viewBox="0 0 120 120" xmlns="http://www.w3.org/2000/svg">
<title>wind</title>
<desc>Created with Sketch.</desc>
<g fill="none" fill-rule="evenodd" stroke-linecap="round">
<g transform="translate(11.41 11.41)" stroke="#6B6B6B" stroke-width="2">
<circle cx="48.277" cy="48.277" r="48.277"/>
<path d="m1.2539 37.932s15.674-7.2102 24.452-6.5832c14.419 0 26.646 21.004 41.067 15.047 14.107-5.9562 16.615-26.722 0-29.543-10.032-1.8809-12.904 4.4642-13.844 8.5395-0.62697 3.4483 1.3047 6.8967 4.1261 8.7776 2.1944 1.5674 13.486 0 6.0182-8.7776" stroke-linejoin="round"/>
<path d="m0 49.844s16.928-8.1506 23.511-7.2102c15.831 0 15.988 17.555 37.932 17.555 10.032 0 17.242-8.4641 17.242-8.4641m-76.491 10.659s14.734-7.2102 21.631-6.2697c10.698 0 19.436 25.183 37.932 17.555m-53.293 1.8809s6.2697-7.2102 14.107-6.8967c8.051 0 8.051 13.32 23.817 13.32" stroke-linejoin="round"/>
</g>
</g>
</svg>
